Oxygen.ufo
<glyph name="exclam" format="1">
  <advance width="710"/>
  <unicode hex="0021"/>
  <outline>
    <contour>
      <point x="453" y="1462" type="line"/>
      <point x="453" y="1234" type="line"/>
      <point x="391" y="377" type="line"/>
      <point x="325" y="377" type="line"/>
      <point x="256" y="1234" type="line"/>
      <point x="256" y="1462" type="line"/>
    </contour>
    <contour>
      <point x="256" y="-23" type="line"/>
      <point x="256" y="185" type="line"/>
      <point x="453" y="185" type="line"/>
      <point x="453" y="-23" type="line"/>
    </contour>
  </outline>
</glyph>
<glyph name="quotedbl" format="1">
  <advance width="679"/>
  <unicode hex="0022"/>
  <outline>
    <contour>
      <point x="443" y="1063" type="line"/>
      <point x="409" y="1555" type="line"/>
      <point x="570" y="1555" type="line"/>
      <point x="570" y="1063" type="line"/>
    </contour>
    <contour>
      <point x="118" y="1063" type="line"/>
      <point x="85" y="1555" type="line"/>
      <point x="245" y="1555" type="line"/>
      <point x="245" y="1063" type="line"/>
    </contour>
  </outline>
</glyph>
<glyph name="numbersign" format="1">
  <advance width="1134"/>
  <unicode hex="0023"/>
  <outline>
    <contour>
      <point x="1032" y="1055" type="line"/>
      <point x="1018" y="931" type="line"/>
      <point x="871" y="931" type="line"/>
      <point x="804" y="536" type="line"/>
      <point x="951" y="536" type="line"/>
      <point x="941" y="410" type="line"/>
      <point x="786" y="410" type="line"/>
      <point x="700" y="-23" type="line"/>
      <point x="549" y="-23" type="line"/>
      <point x="633" y="410" type="line"/>
      <point x="398" y="410" type="line"/>
      <point x="318" y="-23" type="line"/>
      <point x="189" y="-23" type="line"/>
      <point x="262" y="410" type="line"/>
      <point x="91" y="410" type="line"/>
      <point x="101" y="536" type="line"/>
      <point x="284" y="536" type="line"/>
      <point x="345" y="930" type="line"/>
      <point x="168" y="930" type="line"/>
      <point x="177" y="1055" type="line"/>
      <point x="370" y="1055" type="line"/>
      <point x="453" y="1462" type="line"/>
      <point x="606" y="1462" type="line"/>
      <point x="527" y="1055" type="line"/>
      <point x="761" y="1055" type="line"/>
      <point x="832" y="1462" type="line"/>
      <point x="960" y="1462" type="line"/>
      <point x="894" y="1055" type="line"/>
    </contour>
    <contour>
      <point x="737" y="931" type="line"/>
      <point x="502" y="931" type="line"/>
      <point x="422" y="536" type="line"/>
      <point x="658" y="536" type="line"/>
    </contour>
  </outline>
</glyph>
<glyph name="dollar" format="1">
  <advance width="1215"/>
  <unicode hex="0024"/>
  <outline>
    <contour>
      <point x="600" y="1591" type="line"/>
      <point x="720" y="1591" type="line"/>
      <point x="720" y="1485" type="line"/>
      <point x="857" y="1474"/>
      <point x="986" y="1436"/>
      <point x="1073" y="1378" type="curve"/>
      <point x="1011" y="1225" type="line"/>
      <point x="948" y="1264"/>
      <point x="834" y="1306"/>
      <point x="720" y="1317" type="curve"/>
      <point x="720" y="828" type="line"/>
      <point x="952" y="758"/>
      <point x="1132" y="655"/>
      <point x="1132" y="401" type="curve" smooth="yes"/>
      <point x="1132" y="147"/>
      <point x="949" y="17"/>
      <point x="720" y="-15" type="curve"/>
      <point x="720" y="-173" type="line"/>
      <point x="600" y="-173" type="line"/>
      <point x="600" y="-23" type="line"/>
      <point x="381" y="-19"/>
      <point x="224" y="46"/>
      <point x="131" y="100" type="curve"/>
      <point x="199" y="261" type="line"/>
      <point x="300" y="189"/>
      <point x="445" y="145"/>
      <point x="600" y="141" type="curve"/>
      <point x="600" y="669" type="line"/>
      <point x="472" y="705" type="line"/>
      <point x="276" y="765"/>
      <point x="131" y="870"/>
      <point x="131" y="1083" type="curve" smooth="yes"/>
      <point x="131" y="1332"/>
      <point x="336" y="1480"/>
      <point x="600" y="1489" type="curve"/>
    </contour>
    <contour>
      <point x="720" y="628" type="curve"/>
      <point x="720" y="148" type="line"/>
      <point x="846" y="174"/>
      <point x="931" y="251"/>
      <point x="931" y="392" type="curve" smooth="yes"/>
      <point x="931" y="504"/>
      <point x="869" y="573"/>
    </contour>
    <contour>
      <point x="600" y="865" type="line"/>
      <point x="600" y="1321" type="line"/>
      <point x="435" y="1313"/>
      <point x="323" y="1239"/>
      <point x="323" y="1100" type="curve" smooth="yes"/>
      <point x="323" y="984"/>
      <point x="396" y="929"/>
      <point x="537" y="884" type="curve"/>
    </contour>
  </outline>
</glyph>
<glyph name="percent" format="1">
  <advance width="1877"/>
  <unicode hex="0025"/>
  <outline>
    <contour>
      <point x="1431" y="754" type="curve" smooth="yes"/>
      <point x="1203" y="754"/>
      <point x="1079" y="587"/>
      <point x="1079" y="369" type="curve" smooth="yes"/>
      <point x="1079" y="153"/>
      <point x="1200" y="-15"/>
      <point x="1431" y="-15" type="curve" smooth="yes"/>
      <point x="1660" y="-15"/>
      <point x="1784" y="153"/>
      <point x="1784" y="369" type="curve" smooth="yes"/>
      <point x="1784" y="591"/>
      <point x="1663" y="754"/>
    </contour>
    <contour>
      <point x="1431" y="640" type="curve" smooth="yes"/>
      <point x="1579" y="640"/>
      <point x="1657" y="515"/>
      <point x="1657" y="369" type="curve" smooth="yes"/>
      <point x="1657" y="228"/>
      <point x="1581" y="98"/>
      <point x="1431" y="98" type="curve" smooth="yes"/>
      <point x="1283" y="98"/>
      <point x="1205" y="223"/>
      <point x="1205" y="369" type="curve" smooth="yes"/>
      <point x="1205" y="510"/>
      <point x="1281" y="640"/>
    </contour>
    <contour>
      <point x="420" y="1489" type="curve" smooth="yes"/>
      <point x="226" y="1489"/>
      <point x="103" y="1322"/>
      <point x="103" y="1104" type="curve" smooth="yes"/>
      <point x="103" y="888"/>
      <point x="223" y="728"/>
      <point x="420" y="728" type="curve" smooth="yes"/>
      <point x="614" y="728"/>
      <point x="740" y="888"/>
      <point x="740" y="1104" type="curve" smooth="yes"/>
      <point x="740" y="1326"/>
      <point x="617" y="1489"/>
    </contour>
    <contour>
      <point x="401" y="-4" type="line"/>
      <point x="536" y="-4" type="line"/>
      <point x="1358" y="1462" type="line"/>
      <point x="1196" y="1462" type="line"/>
    </contour>
    <contour>
      <point x="420" y="1378" type="curve" smooth="yes"/>
      <point x="545" y="1378"/>
      <point x="611" y="1250"/>
      <point x="611" y="1104" type="curve" smooth="yes"/>
      <point x="611" y="963"/>
      <point x="547" y="844"/>
      <point x="420" y="844" type="curve" smooth="yes"/>
      <point x="295" y="844"/>
      <point x="230" y="958"/>
      <point x="230" y="1104" type="curve" smooth="yes"/>
      <point x="230" y="1245"/>
      <point x="293" y="1378"/>
    </contour>
  </outline>
</glyph>
<glyph name="ampersand" format="1">
  <advance width="1477"/>
  <unicode hex="0026"/>
  <outline>
    <contour>
      <point x="441" y="839" type="curve"/>
      <point x="241" y="739"/>
      <point x="104" y="611"/>
      <point x="104" y="395" type="curve" smooth="yes"/>
      <point x="104" y="138"/>
      <point x="277" y="-23"/>
      <point x="620" y="-23" type="curve" smooth="yes"/>
      <point x="819" y="-23"/>
      <point x="977" y="43"/>
      <point x="1100" y="143" type="curve"/>
      <point x="1236" y="-11" type="line"/>
      <point x="1287" y="4"/>
      <point x="1342" y="23"/>
      <point x="1393" y="41" type="curve"/>
      <point x="1212" y="257" type="line"/>
      <point x="1275" y="331"/>
      <point x="1331" y="420"/>
      <point x="1371" y="507" type="curve"/>
      <point x="1250" y="599" type="line"/>
      <point x="1214" y="518"/>
      <point x="1165" y="435"/>
      <point x="1108" y="375" type="curve"/>
      <point x="707" y="804" type="line"/>
      <point x="897" y="893"/>
      <point x="1046" y="1006"/>
      <point x="1046" y="1182" type="curve" smooth="yes"/>
      <point x="1046" y="1389"/>
      <point x="861" y="1489"/>
      <point x="657" y="1489" type="curve" smooth="yes"/>
      <point x="422" y="1489"/>
      <point x="268" y="1366"/>
      <point x="268" y="1165" type="curve" smooth="yes"/>
      <point x="268" y="1034"/>
      <point x="338" y="953"/>
    </contour>
    <contour>
      <point x="544" y="726" type="curve"/>
      <point x="692" y="568"/>
      <point x="837" y="417"/>
      <point x="985" y="259" type="curve"/>
      <point x="888" y="182"/>
      <point x="771" y="132"/>
      <point x="629" y="132" type="curve" smooth="yes"/>
      <point x="410" y="132"/>
      <point x="281" y="235"/>
      <point x="281" y="406" type="curve" smooth="yes"/>
      <point x="281" y="554"/>
      <point x="392" y="649"/>
    </contour>
    <contour>
      <point x="660" y="1345" type="curve" smooth="yes"/>
      <point x="765" y="1345"/>
      <point x="858" y="1287"/>
      <point x="858" y="1171" type="curve" smooth="yes"/>
      <point x="858" y="1042"/>
      <point x="742" y="977"/>
      <point x="605" y="910" type="curve"/>
      <point x="517" y="995"/>
      <point x="455" y="1067"/>
      <point x="455" y="1165" type="curve" smooth="yes"/>
      <point x="455" y="1279"/>
      <point x="538" y="1345"/>
    </contour>
  </outline>
</glyph>
<glyph name="quotesingle" format="1">
  <advance width="417"/>
  <unicode hex="0027"/>
  <outline>
    <contour>
      <point x="168" y="1063" type="line"/>
      <point x="137" y="1557" type="line"/>
      <point x="281" y="1557" type="line"/>
      <point x="281" y="1063" type="line"/>
    </contour>
  </outline>
</glyph>
<glyph name="parenleft" format="1">
  <advance width="612"/>
  <unicode hex="0028"/>
  <outline>
    <contour>
      <point x="520" y="-223" type="line"/>
      <point x="380" y="29"/>
      <point x="290" y="351"/>
      <point x="290" y="637" type="curve" smooth="yes"/>
      <point x="290" y="945"/>
      <point x="373" y="1240"/>
      <point x="518" y="1505" type="curve"/>
      <point x="370" y="1505" type="line"/>
      <point x="222" y="1236"/>
      <point x="125" y="949"/>
      <point x="125" y="631" type="curve" smooth="yes"/>
      <point x="125" y="325"/>
      <point x="233" y="18"/>
      <point x="373" y="-223" type="curve"/>
    </contour>
  </outline>
</glyph>
<glyph name="parenright" format="1">
  <advance width="702"/>
  <unicode hex="0029"/>
  <outline>
    <contour>
      <point x="266" y="-223" type="curve"/>
      <point x="105" y="-223" type="line"/>
      <point x="260" y="29"/>
      <point x="359" y="351"/>
      <point x="359" y="637" type="curve" smooth="yes"/>
      <point x="359" y="945"/>
      <point x="266" y="1240"/>
      <point x="105" y="1505" type="curve"/>
      <point x="270" y="1505" type="line"/>
      <point x="435" y="1236"/>
      <point x="544" y="949"/>
      <point x="544" y="631" type="curve" smooth="yes"/>
      <point x="544" y="325"/>
      <point x="421" y="18"/>
    </contour>
  </outline>
</glyph>
<glyph name="asterisk" format="1">
  <advance width="1081"/>
  <unicode hex="002A"/>
  <outline>
    <contour>
      <point x="629" y="1442" type="line"/>
      <point x="600" y="1015" type="line"/>
      <point x="921" y="1206" type="line"/>
      <point x="994" y="1046" type="line"/>
      <point x="641" y="911" type="line" smooth="yes"/>
      <point x="641" y="910"/>
      <point x="817" y="683"/>
      <point x="897" y="570" type="curve"/>
      <point x="852" y="535"/>
      <point x="807" y="511"/>
      <point x="762" y="476" type="curve"/>
      <point x="537" y="839" type="line"/>
      <point x="320" y="476" type="line"/>
      <point x="184" y="570" type="line"/>
      <point x="438" y="911" type="line"/>
      <point x="89" y="1046" type="line"/>
      <point x="159" y="1206" type="line"/>
      <point x="483" y="1015" type="line"/>
      <point x="451" y="1442" type="line"/>
    </contour>
  </outline>
</glyph>
<glyph name="plus" format="1">
  <advance width="1426"/>
  <unicode hex="002B"/>
  <outline>
    <contour>
      <point x="254" y="606" type="line"/>
      <point x="659" y="606" type="line"/>
      <point x="659" y="1065" type="line"/>
      <point x="808" y="1065" type="line"/>
      <point x="808" y="606" type="line"/>
      <point x="1196" y="606" type="line"/>
      <point x="1196" y="472" type="line"/>
      <point x="806" y="472" type="line"/>
      <point x="806" y="0" type="line"/>
      <point x="656" y="0" type="line"/>
      <point x="656" y="472" type="line"/>
      <point x="254" y="472" type="line"/>
    </contour>
  </outline>
</glyph>
<glyph name="comma" format="1">
  <advance width="508"/>
  <unicode hex="002C"/>
  <outline>
    <contour>
      <point x="382" y="230" type="line"/>
      <point x="220" y="230" type="line"/>
      <point x="126" y="-276" type="line"/>
      <point x="240" y="-276" type="line"/>
    </contour>
  </outline>
</glyph>
<glyph name="hyphen" format="1">
  <advance width="731"/>
  <unicode hex="002D"/>
  <outline>
    <contour>
      <point x="139" y="521" type="line"/>
      <point x="139" y="663" type="line"/>
      <point x="600" y="663" type="line"/>
      <point x="600" y="521" type="line"/>
    </contour>
  </outline>
</glyph>
<glyph name="period" format="1">
  <advance width="494"/>
  <unicode hex="002E"/>
  <outline>
    <contour>
      <point x="260" y="-19" type="curve" smooth="yes"/>
      <point x="169" y="-19"/>
      <point x="101" y="60"/>
      <point x="101" y="140" type="curve" smooth="yes"/>
      <point x="101" y="220"/>
      <point x="169" y="299"/>
      <point x="260" y="299" type="curve" smooth="yes"/>
      <point x="351" y="299"/>
      <point x="421" y="220"/>
      <point x="421" y="140" type="curve" smooth="yes"/>
      <point x="421" y="60"/>
      <point x="351" y="-19"/>
    </contour>
  </outline>
</glyph>
<glyph name="slash" format="1">
  <advance width="952"/>
  <unicode hex="002F"/>
  <outline>
    <contour>
      <point x="194" y="-218" type="line"/>
      <point x="50" y="-218" type="line"/>
      <point x="726" y="1466" type="line"/>
      <point x="872" y="1466" type="line"/>
    </contour>
  </outline>
</glyph>
<glyph name="zero" format="1">
  <advance width="1275"/>
  <unicode hex="0030"/>
  <outline>
    <contour>
      <point x="639" y="-23" type="curve" smooth="yes"/>
      <point x="1003" y="-23"/>
      <point x="1149" y="292"/>
      <point x="1149" y="731" type="curve" smooth="yes"/>
      <point x="1149" y="1191"/>
      <point x="988" y="1489"/>
      <point x="639" y="1489" type="curve" smooth="yes"/>
      <point x="290" y="1489"/>
      <point x="126" y="1191"/>
      <point x="126" y="731" type="curve" smooth="yes"/>
      <point x="126" y="292"/>
      <point x="275" y="-23"/>
    </contour>
    <contour>
      <point x="639" y="1323" type="curve" smooth="yes"/>
      <point x="847" y="1323"/>
      <point x="960" y="1093"/>
      <point x="960" y="737" type="curve" smooth="yes"/>
      <point x="960" y="374"/>
      <point x="847" y="144"/>
      <point x="639" y="144" type="curve" smooth="yes"/>
      <point x="431" y="144"/>
      <point x="318" y="374"/>
      <point x="318" y="737" type="curve" smooth="yes"/>
      <point x="318" y="1093"/>
      <point x="431" y="1323"/>
    </contour>
  </outline>
</glyph>
<glyph name="one" format="1">
  <advance width="666"/>
  <unicode hex="0031"/>
  <outline>
    <contour>
      <point x="330" y="1462" type="line"/>
      <point x="252" y="1407"/>
      <point x="172" y="1353"/>
      <point x="85" y="1315" type="curve"/>
      <point x="85" y="1158" type="line"/>
      <point x="176" y="1199"/>
      <point x="252" y="1243"/>
      <point x="330" y="1295" type="curve"/>
      <point x="330" y="0" type="line"/>
      <point x="509" y="0" type="line"/>
      <point x="509" y="1462" type="line"/>
    </contour>
  </outline>
</glyph>
<glyph name="two" format="1">
  <advance width="1102"/>
  <unicode hex="0032"/>
  <outline>
    <contour>
      <point x="514" y="1489" type="curve" smooth="yes"/>
      <point x="326" y="1489"/>
      <point x="214" y="1431"/>
      <point x="130" y="1354" type="curve"/>
      <point x="188" y="1197" type="line"/>
      <point x="272" y="1282"/>
      <point x="384" y="1323"/>
      <point x="509" y="1323" type="curve" smooth="yes"/>
      <point x="682" y="1323"/>
      <point x="787" y="1234"/>
      <point x="787" y="1061" type="curve" smooth="yes"/>
      <point x="787" y="943"/>
      <point x="715" y="822"/>
      <point x="590" y="700" type="curve"/>
      <point x="126" y="189" type="line"/>
      <point x="126" y="0" type="line"/>
      <point x="968" y="0" type="line"/>
      <point x="968" y="154" type="line"/>
      <point x="301" y="154" type="line"/>
      <point x="707" y="569" type="line"/>
      <point x="869" y="745"/>
      <point x="980" y="890"/>
      <point x="980" y="1077" type="curve" smooth="yes"/>
      <point x="980" y="1334"/>
      <point x="793" y="1489"/>
    </contour>
  </outline>
</glyph>
<glyph name="three" format="1">
  <advance width="1128"/>
  <unicode hex="0033"/>
  <outline>
    <contour>
      <point x="830" y="392" type="curve" smooth="yes"/>
      <point x="830" y="223"/>
      <point x="696" y="132"/>
      <point x="500" y="132" type="curve" smooth="yes"/>
      <point x="349" y="132"/>
      <point x="242" y="182"/>
      <point x="167" y="240" type="curve"/>
      <point x="111" y="93" type="line"/>
      <point x="168" y="41"/>
      <point x="307" y="-23"/>
      <point x="502" y="-23" type="curve" smooth="yes"/>
      <point x="792" y="-23"/>
      <point x="1005" y="136"/>
      <point x="1005" y="390" type="curve" smooth="yes"/>
      <point x="1005" y="591"/>
      <point x="889" y="723"/>
      <point x="706" y="761" type="curve"/>
      <point x="868" y="811"/>
      <point x="969" y="929"/>
      <point x="969" y="1120" type="curve" smooth="yes"/>
      <point x="969" y="1359"/>
      <point x="762" y="1489"/>
      <point x="540" y="1489" type="curve" smooth="yes"/>
      <point x="333" y="1489"/>
      <point x="202" y="1445"/>
      <point x="111" y="1376" type="curve"/>
      <point x="167" y="1225" type="line"/>
      <point x="245" y="1287"/>
      <point x="365" y="1332"/>
      <point x="502" y="1332" type="curve" smooth="yes"/>
      <point x="679" y="1332"/>
      <point x="777" y="1262"/>
      <point x="777" y="1097" type="curve" smooth="yes"/>
      <point x="777" y="861"/>
      <point x="559" y="837"/>
      <point x="329" y="837" type="curve"/>
      <point x="329" y="662" type="line"/>
      <point x="573" y="658"/>
      <point x="830" y="647"/>
    </contour>
  </outline>
</glyph>
<glyph name="four" format="1">
  <advance width="1180"/>
  <unicode hex="0034"/>
  <outline>
    <contour>
      <point x="1101" y="371" type="line"/>
      <point x="930" y="371" type="line"/>
      <point x="930" y="0" type="line"/>
      <point x="762" y="0" type="line"/>
      <point x="762" y="371" type="line"/>
      <point x="86" y="371" type="line"/>
      <point x="86" y="524" type="line"/>
      <point x="743" y="1497" type="line"/>
      <point x="930" y="1497" type="line"/>
      <point x="930" y="509" type="line"/>
      <point x="1101" y="509" type="line"/>
    </contour>
    <contour>
      <point x="762" y="1232" type="line"/>
      <point x="262" y="509" type="line"/>
      <point x="762" y="509" type="line"/>
    </contour>
  </outline>
</glyph>
<glyph name="five" format="1">
  <advance width="1236"/>
  <unicode hex="0035"/>
  <outline>
    <contour>
      <point x="1024" y="1462" type="line"/>
      <point x="1024" y="1297" type="line"/>
      <point x="415" y="1297" type="line"/>
      <point x="411" y="1153"/>
      <point x="405" y="1005"/>
      <point x="401" y="861" type="curve"/>
      <point x="475" y="911"/>
      <point x="553" y="933"/>
      <point x="632" y="933" type="curve" smooth="yes"/>
      <point x="922" y="933"/>
      <point x="1091" y="731"/>
      <point x="1091" y="477" type="curve" smooth="yes"/>
      <point x="1091" y="178"/>
      <point x="869" y="-23"/>
      <point x="551" y="-23" type="curve" smooth="yes"/>
      <point x="384" y="-23"/>
      <point x="230" y="33"/>
      <point x="131" y="114" type="curve"/>
      <point x="203" y="255" type="line"/>
      <point x="273" y="205"/>
      <point x="399" y="139"/>
      <point x="556" y="139" type="curve" smooth="yes"/>
      <point x="765" y="139"/>
      <point x="890" y="278"/>
      <point x="890" y="475" type="curve" smooth="yes"/>
      <point x="890" y="648"/>
      <point x="790" y="776"/>
      <point x="600" y="776" type="curve" smooth="yes"/>
      <point x="511" y="776"/>
      <point x="434" y="746"/>
      <point x="371" y="677" type="curve"/>
      <point x="217" y="696" type="line"/>
      <point x="260" y="1462" type="line"/>
    </contour>
  </outline>
</glyph>
<glyph name="six" format="1">
  <advance width="1199.0"/>
  <unicode hex="0036"/>
  <outline>
    <contour>
      <point x="637" y="921" type="curve" smooth="yes"/>
      <point x="889" y="921"/>
      <point x="1107.0" y="725.0"/>
      <point x="1107.0" y="449.0" type="curve" smooth="yes"/>
      <point x="1107.0" y="182.0"/>
      <point x="913" y="-23"/>
      <point x="607" y="-23" type="curve" smooth="yes"/>
      <point x="287" y="-23"/>
      <point x="103" y="202"/>
      <point x="103" y="472" type="curve" smooth="yes"/>
      <point x="103" y="793"/>
      <point x="295" y="948"/>
      <point x="747" y="1496" type="curve"/>
      <point x="983" y="1496" type="line"/>
      <point x="412" y="861" type="line"/>
      <point x="476" y="895"/>
      <point x="557" y="921"/>
    </contour>
    <contour>
      <point x="292" y="453" type="curve" smooth="yes"/>
      <point x="292" y="280"/>
      <point x="395" y="129"/>
      <point x="601" y="129" type="curve" smooth="yes"/>
      <point x="806" y="129"/>
      <point x="918.0" y="274.0"/>
      <point x="918.0" y="446.0" type="curve" smooth="yes"/>
      <point x="918.0" y="630.0"/>
      <point x="803" y="771"/>
      <point x="601" y="771" type="curve" smooth="yes"/>
      <point x="379" y="771"/>
      <point x="292" y="625"/>
    </contour>
  </outline>
</glyph>
<glyph name="seven" format="1">
  <advance width="1084"/>
  <unicode hex="0037"/>
  <outline>
    <contour>
      <point x="270" y="0" type="line"/>
      <point x="784" y="1303" type="line"/>
      <point x="86" y="1303" type="line"/>
      <point x="86" y="1462" type="line"/>
      <point x="987" y="1462" type="line"/>
      <point x="987" y="1325" type="line"/>
      <point x="452" y="0" type="line"/>
    </contour>
  </outline>
</glyph>
<glyph name="eight" format="1">
  <advance width="1182"/>
  <unicode hex="0038"/>
  <outline>
    <contour>
      <point x="594" y="-23" type="curve" smooth="yes"/>
      <point x="327" y="-23"/>
      <point x="103" y="119"/>
      <point x="103" y="385" type="curve" smooth="yes"/>
      <point x="103" y="577"/>
      <point x="219" y="724"/>
      <point x="414" y="788" type="curve"/>
      <point x="241" y="849"/>
      <point x="134" y="966"/>
      <point x="134" y="1148" type="curve" smooth="yes"/>
      <point x="134" y="1389"/>
      <point x="329" y="1525"/>
      <point x="594" y="1525" type="curve" smooth="yes"/>
      <point x="858" y="1525"/>
      <point x="1049" y="1389"/>
      <point x="1049" y="1148" type="curve" smooth="yes"/>
      <point x="1049" y="966"/>
      <point x="948" y="849"/>
      <point x="791" y="788" type="curve"/>
      <point x="970" y="724"/>
      <point x="1080" y="577"/>
      <point x="1080" y="385" type="curve" smooth="yes"/>
      <point x="1080" y="119"/>
      <point x="861" y="-23"/>
    </contour>
    <contour>
      <point x="594" y="703" type="curve"/>
      <point x="415" y="662"/>
      <point x="279" y="562"/>
      <point x="279" y="397" type="curve" smooth="yes"/>
      <point x="279" y="230"/>
      <point x="415" y="129"/>
      <point x="594" y="129" type="curve" smooth="yes"/>
      <point x="773" y="129"/>
      <point x="904" y="230"/>
      <point x="904" y="397" type="curve" smooth="yes"/>
      <point x="904" y="562"/>
      <point x="773" y="662"/>
    </contour>
    <contour>
      <point x="594" y="1373" type="curve" smooth="yes"/>
      <point x="446" y="1373"/>
      <point x="311" y="1296"/>
      <point x="311" y="1152" type="curve" smooth="yes"/>
      <point x="311" y="993"/>
      <point x="411" y="894"/>
      <point x="594" y="853" type="curve"/>
      <point x="777" y="894"/>
      <point x="873" y="993"/>
      <point x="873" y="1152" type="curve" smooth="yes"/>
      <point x="873" y="1296"/>
      <point x="742" y="1373"/>
    </contour>
  </outline>
</glyph>
<glyph name="nine" format="1">
  <advance width="1236"/>
  <unicode hex="0039"/>
  <outline>
    <contour>
      <point x="546" y="557" type="curve" smooth="yes"/>
      <point x="280" y="557"/>
      <point x="85" y="734"/>
      <point x="85" y="1010" type="curve" smooth="yes"/>
      <point x="85" y="1277"/>
      <point x="290" y="1489"/>
      <point x="602" y="1489" type="curve" smooth="yes"/>
      <point x="923" y="1489"/>
      <point x="1112" y="1282"/>
      <point x="1112" y="1006" type="curve" smooth="yes"/>
      <point x="1112" y="686"/>
      <point x="922" y="524"/>
      <point x="483" y="-23" type="curve"/>
      <point x="245" y="-23" type="line"/>
      <point x="780" y="617" type="line"/>
      <point x="721" y="583"/>
      <point x="620" y="557"/>
    </contour>
    <contour>
      <point x="921" y="1025" type="curve" smooth="yes"/>
      <point x="921" y="1198"/>
      <point x="802" y="1332"/>
      <point x="608" y="1332" type="curve" smooth="yes"/>
      <point x="414" y="1332"/>
      <point x="288" y="1191"/>
      <point x="288" y="1020" type="curve" smooth="yes"/>
      <point x="288" y="837"/>
      <point x="399" y="707"/>
      <point x="602" y="707" type="curve" smooth="yes"/>
      <point x="811" y="707"/>
      <point x="921" y="854"/>
    </contour>
  </outline>
</glyph>
<glyph name="colon" format="1">
  <advance width="507"/>
  <unicode hex="003A"/>
  <outline>
    <contour>
      <point x="139" y="893" type="line"/>
      <point x="139" y="1124" type="line"/>
      <point x="367" y="1124" type="line"/>
      <point x="367" y="893" type="line"/>
    </contour>
    <contour>
      <point x="139" y="-25" type="line"/>
      <point x="139" y="208" type="line"/>
      <point x="367" y="208" type="line"/>
      <point x="367" y="-25" type="line"/>
    </contour>
  </outline>
</glyph>
<glyph name="less" format="1">
  <advance width="1410"/>
  <unicode hex="003C"/>
  <outline>
    <contour>
      <point x="1200" y="982" type="line"/>
      <point x="427" y="596" type="line"/>
      <point x="1196" y="216" type="line"/>
      <point x="1196" y="50" type="line"/>
      <point x="215" y="547" type="line"/>
      <point x="215" y="642" type="line"/>
      <point x="1200" y="1149" type="line"/>
    </contour>
  </outline>
</glyph>
<glyph name="equal" format="1">
  <advance width="1286"/>
  <unicode hex="003D"/>
  <outline>
    <contour>
      <point x="143" y="891" type="line"/>
      <point x="1146" y="891" type="line"/>
      <point x="1146" y="741" type="line"/>
      <point x="143" y="741" type="line"/>
    </contour>
    <contour>
      <point x="145" y="452" type="line"/>
      <point x="1146" y="452" type="line"/>
      <point x="1146" y="305" type="line"/>
      <point x="145" y="305" type="line"/>
    </contour>
  </outline>
</glyph>
<glyph name="greater" format="1">
  <advance width="1410"/>
  <unicode hex="003E"/>
  <outline>
    <contour>
      <point x="211" y="230" type="line"/>
      <point x="982" y="598" type="line"/>
      <point x="215" y="997" type="line"/>
      <point x="215" y="1160" type="line"/>
      <point x="1198" y="640" type="line"/>
      <point x="1198" y="544" type="line"/>
      <point x="211" y="62" type="line"/>
    </contour>
  </outline>
</glyph>
<glyph name="question" format="1">
  <advance width="865"/>
  <unicode hex="003F"/>
  <outline>
    <contour>
      <point x="404" y="435" type="line"/>
      <point x="554" y="770"/>
      <point x="765" y="927"/>
      <point x="765" y="1200" type="curve" smooth="yes"/>
      <point x="765" y="1408"/>
      <point x="614" y="1524"/>
      <point x="404" y="1524" type="curve" smooth="yes"/>
      <point x="292.981983444" y="1524.0"/>
      <point x="163.251788916" y="1497.54162812"/>
      <point x="73" y="1427" type="curve"/>
      <point x="118" y="1292" type="line"/>
      <point x="166" y="1322"/>
      <point x="257" y="1373"/>
      <point x="377" y="1373" type="curve" smooth="yes"/>
      <point x="510" y="1373"/>
      <point x="600" y="1318"/>
      <point x="602" y="1186" type="curve" smooth="yes"/>
      <point x="602" y="989"/>
      <point x="317" y="668"/>
      <point x="317" y="435" type="curve"/>
    </contour>
    <contour>
      <point x="287" y="252"/>
      <point x="242" y="186"/>
      <point x="242" y="120" type="curve" smooth="yes"/>
      <point x="242" y="54"/>
      <point x="287" y="-12"/>
      <point x="375" y="-12" type="curve" smooth="yes"/>
      <point x="464" y="-12"/>
      <point x="508" y="54"/>
      <point x="508" y="120" type="curve" smooth="yes"/>
      <point x="508" y="186"/>
      <point x="464" y="252"/>
      <point x="375" y="252" type="curve" smooth="yes"/>
    </contour>
  </outline>
</glyph>
<glyph name="at" format="1">
  <advance width="1797"/>
  <unicode hex="0040"/>
  <outline>
    <contour>
      <point x="1221" y="146" type="curve" smooth="yes"/>
      <point x="1122" y="146"/>
      <point x="1053" y="193"/>
      <point x="1037" y="304" type="curve"/>
      <point x="969" y="205"/>
      <point x="888" y="165"/>
      <point x="799" y="165" type="curve" smooth="yes"/>
      <point x="655" y="165"/>
      <point x="551" y="283"/>
      <point x="551" y="480" type="curve" smooth="yes"/>
      <point x="551" y="740"/>
      <point x="673" y="986"/>
      <point x="958" y="986" type="curve" smooth="yes"/>
      <point x="1062" y="986"/>
      <point x="1176" y="953"/>
      <point x="1258" y="924" type="curve"/>
      <point x="1210" y="692"/>
      <point x="1153" y="452"/>
      <point x="1153" y="373" type="curve" smooth="yes"/>
      <point x="1153" y="298"/>
      <point x="1186" y="267"/>
      <point x="1242" y="267" type="curve" smooth="yes"/>
      <point x="1372" y="267"/>
      <point x="1569" y="454"/>
      <point x="1569" y="690" type="curve" smooth="yes"/>
      <point x="1569" y="1042"/>
      <point x="1293" y="1254"/>
      <point x="920" y="1254" type="curve" smooth="yes"/>
      <point x="545" y="1254"/>
      <point x="239" y="954"/>
      <point x="239" y="569" type="curve" smooth="yes"/>
      <point x="239" y="148"/>
      <point x="545" y="-118"/>
      <point x="908" y="-118" type="curve" smooth="yes"/>
      <point x="1091" y="-118"/>
      <point x="1241" y="-59"/>
      <point x="1353" y="34" type="curve"/>
      <point x="1423" y="-54" type="line"/>
      <point x="1298" y="-169"/>
      <point x="1119" y="-239"/>
      <point x="906" y="-239" type="curve" smooth="yes"/>
      <point x="463" y="-239"/>
      <point x="110" y="84"/>
      <point x="110" y="569" type="curve" smooth="yes"/>
      <point x="110" y="1017"/>
      <point x="470" y="1374"/>
      <point x="925" y="1374" type="curve" smooth="yes"/>
      <point x="1354" y="1374"/>
      <point x="1696" y="1107"/>
      <point x="1696" y="688" type="curve" smooth="yes"/>
      <point x="1696" y="341"/>
      <point x="1427" y="146"/>
    </contour>
    <contour>
      <point x="823" y="291" type="curve" smooth="yes"/>
      <point x="1001" y="291"/>
      <point x="1048" y="591"/>
      <point x="1096" y="847" type="curve"/>
      <point x="1069" y="861"/>
      <point x="1000" y="868"/>
      <point x="961" y="868" type="curve" smooth="yes"/>
      <point x="753" y="868"/>
      <point x="684" y="659"/>
      <point x="684" y="470" type="curve" smooth="yes"/>
      <point x="684" y="362"/>
      <point x="734" y="291"/>
    </contour>
  </outline>
</glyph>
<glyph name="A" format="1">
  <advance width="1333"/>
  <unicode hex="0041"/>
  <outline>
    <contour>
      <point x="921" y="611" type="line"/>
      <point x="683" y="1324" type="line"/>
      <point x="422" y="611" type="line"/>
    </contour>
    <contour>
      <point x="2" y="0" type="line"/>
      <point x="576" y="1496" type="line"/>
      <point x="788" y="1496" type="line"/>
      <point x="1331" y="0" type="line"/>
      <point x="1151" y="0" type="line"/>
      <point x="980" y="473" type="line"/>
      <point x="367" y="473" type="line"/>
      <point x="183" y="0" type="line"/>
    </contour>
    <contour>
      <point x="667" y="1489" type="line"/>
    </contour>
    <contour>
      <point x="1200" y="10" type="line"/>
    </contour>
    <contour>
      <point x="667" y="1489" type="line" smooth="yes"/>
    </contour>
    <contour>
      <point x="1200" y="10" type="line" smooth="yes"/>
    </contour>
    <contour>
      <point x="667" y="1489" type="move" name="top"/>
    </contour>
    <contour>
      <point x="1200" y="10" type="move" name="ogonek"/>
    </contour>
  </outline>
</glyph>
<glyph name="B" format="1">
  <advance width="1336"/>
  <unicode hex="0042"/>
  <outline>
    <contour>
      <point x="162" y="0" type="line"/>
      <point x="162" y="1462" type="line"/>
      <point x="598" y="1462" type="line" smooth="yes"/>
      <point x="959" y="1462"/>
      <point x="1166" y="1364"/>
      <point x="1166" y="1100" type="curve" smooth="yes"/>
      <point x="1166" y="957"/>
      <point x="1105" y="820"/>
      <point x="954" y="770" type="curve"/>
      <point x="1142" y="730"/>
      <point x="1228" y="585"/>
      <point x="1228" y="426" type="curve" smooth="yes"/>
      <point x="1228" y="163"/>
      <point x="1074" y="0"/>
      <point x="685" y="0" type="curve" smooth="yes"/>
    </contour>
    <contour>
      <point x="339" y="1306" type="line"/>
      <point x="339" y="821" type="line"/>
      <point x="683" y="821" type="line" smooth="yes"/>
      <point x="822" y="821"/>
      <point x="981" y="854"/>
      <point x="981" y="1065" type="curve" smooth="yes"/>
      <point x="981" y="1290"/>
      <point x="808" y="1306"/>
      <point x="565" y="1306" type="curve" smooth="yes"/>
    </contour>
    <contour>
      <point x="339" y="677" type="line"/>
      <point x="339" y="156" type="line"/>
      <point x="652" y="156" type="line" smooth="yes"/>
      <point x="912" y="156"/>
      <point x="1048" y="227"/>
      <point x="1048" y="428" type="curve" smooth="yes"/>
      <point x="1048" y="616"/>
      <point x="927" y="677"/>
      <point x="703" y="677" type="curve" smooth="yes"/>
    </contour>
  </outline>
</glyph>
<glyph name="C" format="1">
  <advance width="1368"/>
  <unicode hex="0043"/>
  <outline>
    <contour>
      <point x="136" y="745" type="curve" smooth="yes"/>
      <point x="136" y="333"/>
      <point x="380" y="-23"/>
      <point x="845" y="-23" type="curve" smooth="yes"/>
      <point x="1042" y="-23"/>
      <point x="1182" y="19"/>
      <point x="1283" y="107" type="curve"/>
      <point x="1225" y="254" type="line"/>
      <point x="1142" y="190"/>
      <point x="1014" y="135"/>
      <point x="863" y="135" type="curve" smooth="yes"/>
      <point x="478" y="135"/>
      <point x="325" y="433"/>
      <point x="325" y="746" type="curve" smooth="yes"/>
      <point x="325" y="1075"/>
      <point x="495" y="1367"/>
      <point x="862" y="1367" type="curve" smooth="yes"/>
      <point x="1013" y="1367"/>
      <point x="1141" y="1308"/>
      <point x="1224" y="1237" type="curve"/>
      <point x="1283" y="1394" type="line"/>
      <point x="1182" y="1482"/>
      <point x="1042" y="1525"/>
      <point x="845" y="1525" type="curve" smooth="yes"/>
      <point x="379" y="1525"/>
      <point x="136" y="1165"/>
    </contour>
    <contour>
      <point x="702" y="1489" type="line" smooth="yes"/>
    </contour>
    <contour>
      <point x="702" y="0" type="line" smooth="yes"/>
    </contour>
    <contour>
      <point x="684" y="1489" type="move" name="top"/>
    </contour>
    <contour>
      <point x="684" y="0" type="move" name="bottom"/>
    </contour>
  </outline>
</glyph>
<glyph name="D" format="1">
  <advance width="1522"/>
  <unicode hex="0044"/>
  <outline>
    <contour>
      <point x="147" y="0" type="line"/>
      <point x="147" y="1496" type="line"/>
      <point x="519" y="1496" type="line" smooth="yes"/>
      <point x="1036" y="1496"/>
      <point x="1421" y="1315"/>
      <point x="1421" y="738" type="curve" smooth="yes"/>
      <point x="1421" y="240"/>
      <point x="1093" y="0"/>
      <point x="621" y="0" type="curve" smooth="yes"/>
    </contour>
    <contour>
      <point x="324" y="1341" type="line"/>
      <point x="324" y="155" type="line"/>
      <point x="639" y="155" type="line" smooth="yes"/>
      <point x="1005" y="155"/>
      <point x="1232" y="347"/>
      <point x="1232" y="734" type="curve" smooth="yes"/>
      <point x="1232" y="1205"/>
      <point x="949" y="1341"/>
      <point x="540" y="1341" type="curve" smooth="yes"/>
    </contour>
    <contour>
      <point x="766" y="1489" type="move" name="top"/>
    </contour>
    <contour>
      <point x="766" y="745" type="move" name="center"/>
    </contour>
  </outline>
</glyph>
<glyph name="E" format="1">
  <advance width="1140"/>
  <unicode hex="0045"/>
  <outline>
    <contour>
      <point x="987" y="845" type="line"/>
      <point x="987" y="692" type="line"/>
      <point x="324" y="692" type="line"/>
      <point x="324" y="155" type="line"/>
      <point x="1058" y="155" type="line"/>
      <point x="1043" y="0" type="line"/>
      <point x="147" y="0" type="line"/>
      <point x="147" y="1496" type="line"/>
      <point x="1029" y="1496" type="line"/>
      <point x="1015" y="1341" type="line"/>
      <point x="324" y="1341" type="line"/>
      <point x="324" y="845" type="line"/>
    </contour>
  </outline>
</glyph>
<glyph name="F" format="1">
  <advance width="1045"/>
  <unicode hex="0046"/>
  <outline>
    <contour>
      <point x="953" y="838" type="line"/>
      <point x="953" y="695" type="line"/>
      <point x="337" y="695" type="line"/>
      <point x="337" y="0" type="line"/>
      <point x="161" y="0" type="line"/>
      <point x="161" y="1496" type="line"/>
      <point x="987" y="1496" type="line"/>
      <point x="973" y="1341" type="line"/>
      <point x="337" y="1341" type="line"/>
      <point x="337" y="838" type="line"/>
    </contour>
  </outline>
</glyph>
<glyph name="G" format="1">
  <advance width="1498"/>
  <unicode hex="0047"/>
  <outline>
    <contour>
      <point x="130" y="745" type="curve" smooth="yes"/>
      <point x="130" y="334"/>
      <point x="354" y="-23"/>
      <point x="840" y="-23" type="curve" smooth="yes"/>
      <point x="1030" y="-23"/>
      <point x="1194" y="30"/>
      <point x="1350" y="131" type="curve"/>
      <point x="1350" y="764" type="line"/>
      <point x="826" y="764" type="line"/>
      <point x="826" y="615" type="line"/>
      <point x="1196" y="615" type="line"/>
      <point x="1196" y="234" type="line"/>
      <point x="1102" y="179"/>
      <point x="984" y="139"/>
      <point x="859" y="139" type="curve" smooth="yes"/>
      <point x="481" y="139"/>
      <point x="319" y="430"/>
      <point x="319" y="745" type="curve" smooth="yes"/>
      <point x="319" y="1069"/>
      <point x="481" y="1363"/>
      <point x="859" y="1363" type="curve" smooth="yes"/>
      <point x="1009" y="1363"/>
      <point x="1165" y="1309"/>
      <point x="1252" y="1237" type="curve"/>
      <point x="1310" y="1394" type="line"/>
      <point x="1209" y="1481"/>
      <point x="1037" y="1525"/>
      <point x="840" y="1525" type="curve" smooth="yes"/>
      <point x="354" y="1525"/>
      <point x="130" y="1165"/>
    </contour>
  </outline>
</glyph>
<glyph name="H" format="1">
  <advance width="1487"/>
  <unicode hex="0048"/>
  <outline>
    <contour>
      <point x="1152" y="696" type="line"/>
      <point x="1152" y="0" type="line"/>
      <point x="1328" y="0" type="line"/>
      <point x="1328" y="1497" type="line"/>
      <point x="1152" y="1497" type="line"/>
      <point x="1152" y="848" type="line"/>
      <point x="335" y="848" type="line"/>
      <point x="335" y="1497" type="line"/>
      <point x="159" y="1497" type="line"/>
      <point x="159" y="0" type="line"/>
      <point x="335" y="0" type="line"/>
      <point x="335" y="696" type="line"/>
    </contour>
  </outline>
</glyph>
<glyph name="I" format="1">
  <advance width="509"/>
  <unicode hex="0049"/>
  <outline>
    <contour>
      <point x="340" y="0" type="line"/>
      <point x="163" y="0" type="line"/>
      <point x="163" y="1496" type="line"/>
      <point x="340" y="1496" type="line"/>
    </contour>
  </outline>
</glyph>
<glyph name="J" format="1">
  <advance width="669"/>
  <unicode hex="004A"/>
  <outline>
    <contour>
      <point x="331" y="384" type="line" smooth="yes"/>
      <point x="331" y="236"/>
      <point x="322" y="137"/>
      <point x="141" y="131" type="curve"/>
      <point x="94" y="131" type="line"/>
      <point x="94" y="-26" type="line"/>
      <point x="123" y="-26" type="line" smooth="yes"/>
      <point x="475" y="-26"/>
      <point x="510" y="125"/>
      <point x="510" y="433" type="curve" smooth="yes"/>
      <point x="510" y="1497" type="line"/>
      <point x="331" y="1497" type="line"/>
    </contour>
  </outline>
</glyph>
<glyph name="K" format="1">
  <advance width="1228"/>
  <unicode hex="004B"/>
  <outline>
    <contour>
      <point x="582" y="778" type="line"/>
      <point x="1263" y="0" type="line"/>
      <point x="1040" y="0" type="line"/>
      <point x="440" y="682" type="line"/>
      <point x="323" y="581" type="line"/>
      <point x="323" y="0" type="line"/>
      <point x="147" y="0" type="line"/>
      <point x="147" y="1496" type="line"/>
      <point x="323" y="1496" type="line"/>
      <point x="323" y="770" type="line"/>
      <point x="961" y="1496" type="line"/>
      <point x="1194" y="1496" type="line"/>
    </contour>
  </outline>
</glyph>
<glyph name="L" format="1">
  <advance width="1130"/>
  <unicode hex="004C"/>
  <outline>
    <contour>
      <point x="160" y="1497" type="line"/>
      <point x="337" y="1497" type="line"/>
      <point x="337" y="156" type="line"/>
      <point x="982" y="156" type="line"/>
      <point x="982" y="0" type="line"/>
      <point x="160" y="0" type="line"/>
    </contour>
  </outline>
</glyph>
<glyph name="M" format="1">
  <advance width="1801"/>
  <unicode hex="004D"/>
  <outline>
    <contour>
      <point x="322" y="1159" type="line"/>
      <point x="322" y="0" type="line"/>
      <point x="155" y="0" type="line"/>
      <point x="155" y="1497" type="line"/>
      <point x="357" y="1497" type="line"/>
      <point x="906" y="347" type="line"/>
      <point x="1449" y="1497" type="line"/>
      <point x="1642" y="1497" type="line"/>
      <point x="1642" y="0" type="line"/>
      <point x="1476" y="0" type="line"/>
      <point x="1476" y="1153" type="line"/>
      <point x="1004" y="183" type="line"/>
      <point x="803" y="183" type="line"/>
    </contour>
  </outline>
</glyph>
<glyph name="N" format="1">
  <advance width="1520.0"/>
  <unicode hex="004E"/>
  <outline>
    <contour>
      <point x="1357.0" y="0" type="line"/>
      <point x="1160.0" y="0" type="line"/>
      <point x="416.0" y="1087" type="line"/>
      <point x="325.0" y="1230" type="line"/>
      <point x="325.0" y="0" type="line"/>
      <point x="163.0" y="0" type="line"/>
      <point x="163.0" y="1497" type="line"/>
      <point x="357.0" y="1497" type="line"/>
      <point x="1103.0" y="406" type="line"/>
      <point x="1196.0" y="261" type="line"/>
      <point x="1196.0" y="1497" type="line"/>
      <point x="1357.0" y="1497" type="line"/>
    </contour>
    <contour>
      <point x="762.0" y="1489" type="move" name="top"/>
    </contour>
    <contour>
      <point x="762.0" y="0" type="move" name="bottom"/>
    </contour>
  </outline>
</glyph>
<glyph name="O" format="1">
  <advance width="1693"/>
  <unicode hex="004F"/>
  <outline>
    <contour>
      <point x="847" y="-23" type="curve" smooth="yes"/>
      <point x="367" y="-23"/>
      <point x="117" y="308"/>
      <point x="117" y="746" type="curve" smooth="yes"/>
      <point x="117.0" y="1211.0"/>
      <point x="384" y="1525"/>
      <point x="847" y="1525" type="curve" smooth="yes"/>
      <point x="1310" y="1525"/>
      <point x="1576.0" y="1211.0"/>
      <point x="1576" y="746" type="curve" smooth="yes"/>
      <point x="1576" y="308"/>
      <point x="1326" y="-23"/>
    </contour>
    <contour>
      <point x="847" y="1368" type="curve" smooth="yes"/>
      <point x="487" y="1368"/>
      <point x="306" y="1092"/>
      <point x="306" y="746" type="curve" smooth="yes"/>
      <point x="306" y="405"/>
      <point x="484" y="134"/>
      <point x="847" y="134" type="curve" smooth="yes"/>
      <point x="1210" y="134"/>
      <point x="1387" y="405"/>
      <point x="1387" y="746" type="curve" smooth="yes"/>
      <point x="1387" y="1092"/>
      <point x="1208" y="1368"/>
    </contour>
    <contour>
      <point x="854" y="1489" type="move" name="top"/>
    </contour>
  </outline>
</glyph>
<glyph name="P" format="1">
  <advance width="1141"/>
  <unicode hex="0050"/>
  <outline>
    <contour>
      <point x="323" y="0" type="line"/>
      <point x="146" y="0" type="line"/>
      <point x="146" y="1496" type="line"/>
      <point x="613" y="1496" type="line" smooth="yes"/>
      <point x="897" y="1496"/>
      <point x="1115" y="1382"/>
      <point x="1115" y="1093" type="curve" smooth="yes"/>
      <point x="1115" y="815"/>
      <point x="995" y="625"/>
      <point x="552" y="625" type="curve" smooth="yes"/>
      <point x="490" y="625"/>
      <point x="399" y="634"/>
      <point x="323" y="641" type="curve"/>
    </contour>
    <contour>
      <point x="569" y="778" type="curve" smooth="yes"/>
      <point x="908" y="778"/>
      <point x="935" y="941"/>
      <point x="935" y="1090" type="curve" smooth="yes"/>
      <point x="935" y="1267"/>
      <point x="802" y="1337"/>
      <point x="617" y="1337" type="curve" smooth="yes"/>
      <point x="323" y="1337" type="line"/>
      <point x="323" y="783" type="line"/>
      <point x="323" y="783"/>
      <point x="501" y="778"/>
    </contour>
  </outline>
</glyph>
<glyph name="Q" format="1">
  <advance width="1731"/>
  <unicode hex="0051"/>
  <outline>
    <contour>
      <point x="867" y="-23" type="curve" smooth="yes"/>
      <point x="388" y="-23"/>
      <point x="137" y="298"/>
      <point x="137" y="746" type="curve" smooth="yes"/>
      <point x="137" y="1221"/>
      <point x="404" y="1525"/>
      <point x="867" y="1525" type="curve" smooth="yes"/>
      <point x="1330" y="1525"/>
      <point x="1596" y="1221"/>
      <point x="1596" y="746" type="curve" smooth="yes"/>
      <point x="1596" y="298"/>
      <point x="1346" y="-23"/>
    </contour>
    <contour>
      <point x="867" y="1363" type="curve" smooth="yes"/>
      <point x="506" y="1363"/>
      <point x="326" y="1092"/>
      <point x="326" y="746" type="curve" smooth="yes"/>
      <point x="326" y="405"/>
      <point x="504" y="139"/>
      <point x="867" y="139" type="curve" smooth="yes"/>
      <point x="1230" y="139"/>
      <point x="1407" y="405"/>
      <point x="1407" y="746" type="curve" smooth="yes"/>
      <point x="1407" y="1092"/>
      <point x="1228" y="1363"/>
    </contour>
    <contour>
      <point x="974" y="-8" type="curve"/>
      <point x="1148" y="21" type="line"/>
      <point x="1240" y="-164"/>
      <point x="1405" y="-306"/>
      <point x="1405" y="-306" type="curve"/>
      <point x="1287" y="-426" type="line"/>
      <point x="1287" y="-426"/>
      <point x="1084" y="-233"/>
    </contour>
  </outline>
</glyph>
<glyph name="R" format="1">
  <advance width="1389"/>
  <unicode hex="0052"/>
  <outline>
    <contour>
      <point x="695" y="1489" type="move" name="top"/>
    </contour>
    <contour>
      <point x="695" y="0" type="move" name="bottom"/>
    </contour>
    <contour>
      <point x="1275" y="0" type="line"/>
      <point x="1093" y="0" type="line"/>
      <point x="882" y="474" type="line"/>
      <point x="847" y="563"/>
      <point x="800" y="633"/>
      <point x="769" y="684" type="curve"/>
      <point x="724" y="681"/>
      <point x="673" y="682"/>
      <point x="616" y="682" type="curve" smooth="yes"/>
      <point x="331" y="682" type="line"/>
      <point x="331" y="0" type="line"/>
      <point x="155" y="0" type="line"/>
      <point x="155" y="1497" type="line"/>
      <point x="614" y="1497" type="line" smooth="yes"/>
      <point x="943" y="1497"/>
      <point x="1209" y="1442"/>
      <point x="1209" y="1105" type="curve" smooth="yes"/>
      <point x="1209" y="920"/>
      <point x="1123" y="772"/>
      <point x="927" y="724" type="curve"/>
      <point x="970" y="669"/>
      <point x="1012" y="612"/>
      <point x="1039" y="532" type="curve"/>
    </contour>
    <contour>
      <point x="331" y="1341" type="line"/>
      <point x="331" y="841" type="line"/>
      <point x="657" y="841" type="line" smooth="yes"/>
      <point x="928" y="841"/>
      <point x="1035" y="937"/>
      <point x="1035" y="1102" type="curve" smooth="yes"/>
      <point x="1035" y="1258"/>
      <point x="927" y="1341"/>
      <point x="698" y="1341" type="curve" smooth="yes"/>
    </contour>
  </outline>
</glyph>
<glyph name="S" format="1">
  <advance width="1267.0"/>
  <unicode hex="0053"/>
  <outline>
    <contour>
      <point x="665.0" y="130" type="curve" smooth="yes"/>
      <point x="876.0" y="130"/>
      <point x="999.0" y="216"/>
      <point x="999.0" y="411" type="curve" smooth="yes"/>
      <point x="999.0" y="540"/>
      <point x="954.556" y="624"/>
      <point x="752.556" y="675" type="curve" smooth="yes"/>
      <point x="452.0" y="749" type="line"/>
      <point x="241.487" y="798.281"/>
      <point x="108.138" y="910.652"/>
      <point x="108.138" y="1109.04" type="curve" smooth="yes"/>
      <point x="108.138" y="1399.89"/>
      <point x="331.0" y="1525"/>
      <point x="666.0" y="1525" type="curve" smooth="yes"/>
      <point x="853.0" y="1525"/>
      <point x="1018.0" y="1482"/>
      <point x="1123.0" y="1418" type="curve"/>
      <point x="1070.556" y="1277" type="line"/>
      <point x="990.556" y="1321"/>
      <point x="827.232" y="1372"/>
      <point x="662.0" y="1372" type="curve" smooth="yes"/>
      <point x="418.856" y="1372"/>
      <point x="292.453" y="1291.99"/>
      <point x="292.453" y="1118.86" type="curve" smooth="yes"/>
      <point x="292.453" y="1001.95"/>
      <point x="372.025" y="939.312"/>
      <point x="519.0" y="904" type="curve" smooth="yes"/>
      <point x="805.556" y="836" type="line" smooth="yes"/>
      <point x="1033.556" y="779"/>
      <point x="1180.0" y="676"/>
      <point x="1180.0" y="432" type="curve" smooth="yes"/>
      <point x="1180.0" y="121"/>
      <point x="966.0" y="-23"/>
      <point x="654.0" y="-23" type="curve" smooth="yes"/>
      <point x="388.0" y="-23"/>
      <point x="199.0" y="44"/>
      <point x="106.0" y="100" type="curve"/>
      <point x="158.556" y="244" type="line"/>
      <point x="295.556" y="178"/>
      <point x="470.0" y="130"/>
    </contour>
    <contour>
      <point x="608.0" y="1489" type="line" smooth="yes"/>
    </contour>
    <contour>
      <point x="618.0" y="0" type="line" smooth="yes"/>
    </contour>
    <contour>
      <point x="603.556" y="1489" type="move" name="top"/>
    </contour>
    <contour>
      <point x="603.556" y="0" type="move" name="bottom"/>
    </contour>
  </outline>
</glyph>
<glyph name="T" format="1">
  <advance width="1167"/>
  <unicode hex="0054"/>
  <outline>
    <contour>
      <point x="68" y="1341" type="line"/>
      <point x="68" y="1497" type="line"/>
      <point x="1100" y="1497" type="line"/>
      <point x="1100" y="1341" type="line"/>
      <point x="671" y="1341" type="line"/>
      <point x="671" y="0" type="line"/>
      <point x="495" y="0" type="line"/>
      <point x="495" y="1341" type="line"/>
    </contour>
  </outline>
</glyph>
<glyph name="U" format="1">
  <advance width="1412.0"/>
  <unicode hex="0055"/>
  <outline>
    <contour>
      <point x="706.0" y="-23" type="curve" smooth="yes"/>
      <point x="271.0" y="-23"/>
      <point x="145.0" y="209"/>
      <point x="145.0" y="541" type="curve" smooth="yes"/>
      <point x="145.0" y="1497" type="line"/>
      <point x="321.0" y="1497" type="line"/>
      <point x="321.0" y="547" type="line" smooth="yes"/>
      <point x="321.0" y="255"/>
      <point x="436.0" y="143"/>
      <point x="706.0" y="143" type="curve" smooth="yes"/>
      <point x="975.0" y="143"/>
      <point x="1093.0" y="255"/>
      <point x="1093.0" y="547" type="curve" smooth="yes"/>
      <point x="1093.0" y="1497" type="line"/>
      <point x="1268.0" y="1497" type="line"/>
      <point x="1268.0" y="541" type="line" smooth="yes"/>
      <point x="1268.0" y="209"/>
      <point x="1142.0" y="-23"/>
    </contour>
    <contour>
      <point x="709.0" y="1489" type="move" name="top"/>
    </contour>
    <contour>
      <point x="1277.0" y="10" type="move" name="ogonek"/>
    </contour>
  </outline>
</glyph>
<glyph name="V" format="1">
  <advance width="1397"/>
  <unicode hex="0056"/>
  <outline>
    <contour>
      <point x="684" y="167" type="line"/>
      <point x="838.737" y="613.93"/>
      <point x="1000.93" y="1053.4"/>
      <point x="1159" y="1497" type="curve"/>
      <point x="1341" y="1497" type="line"/>
      <point x="773" y="0" type="line"/>
      <point x="588" y="0" type="line"/>
      <point x="56" y="1497" type="line"/>
      <point x="247" y="1497" type="line"/>
      <point x="614" y="406" type="line"/>
    </contour>
  </outline>
</glyph>
<glyph name="W" format="1">
  <advance width="1986"/>
  <unicode hex="0057"/>
  <outline>
    <contour>
      <point x="1494" y="195" type="line"/>
      <point x="1788" y="1496" type="line"/>
      <point x="1970" y="1496" type="line"/>
      <point x="1598" y="0" type="line"/>
      <point x="1388" y="0" type="line"/>
      <point x="993" y="1247" type="line"/>
      <point x="597" y="0" type="line"/>
      <point x="389" y="0" type="line"/>
      <point x="17" y="1496" type="line"/>
      <point x="200" y="1496" type="line"/>
      <point x="499" y="197" type="line"/>
      <point x="894" y="1496" type="line"/>
      <point x="1104" y="1496" type="line"/>
    </contour>
    <contour>
      <point x="995" y="1488" type="line"/>
    </contour>
    <contour>
      <point x="993" y="1488" type="line"/>
    </contour>
    <contour>
      <point x="994" y="1488" type="line" smooth="yes"/>
    </contour>
    <contour>
      <point x="993" y="1489" type="move" name="top"/>
    </contour>
  </outline>
</glyph>
<glyph name="X" format="1">
  <advance width="1272"/>
  <unicode hex="0058"/>
  <outline>
    <contour>
      <point x="0" y="0" type="line"/>
      <point x="528" y="746" type="line"/>
      <point x="36" y="1462" type="line"/>
      <point x="266" y="1462" type="line"/>
      <point x="645" y="857" type="line"/>
      <point x="1052" y="1462" type="line"/>
      <point x="1263" y="1462" type="line"/>
      <point x="759" y="746" type="line"/>
      <point x="1272" y="0" type="line"/>
      <point x="1044" y="0" type="line"/>
      <point x="638" y="645" type="line"/>
      <point x="217" y="0" type="line"/>
    </contour>
  </outline>
</glyph>
<glyph name="Y" format="1">
  <advance width="1250"/>
  <unicode hex="0059"/>
  <outline>
    <contour>
      <point x="1247" y="1496" type="line"/>
      <point x="691" y="614" type="line"/>
      <point x="691" y="0" type="line"/>
      <point x="514" y="0" type="line"/>
      <point x="514" y="614" type="line"/>
      <point x="3" y="1496" type="line"/>
      <point x="191" y="1496" type="line"/>
      <point x="620" y="778" type="line"/>
      <point x="1055" y="1496" type="line"/>
    </contour>
    <contour>
      <point x="625" y="1488" type="line"/>
    </contour>
    <contour>
      <point x="606" y="1488" type="line"/>
    </contour>
    <contour>
      <point x="593" y="1488" type="line" smooth="yes"/>
    </contour>
    <contour>
      <point x="625" y="1489" type="move" name="top"/>
    </contour>
  </outline>
</glyph>
<glyph name="Z" format="1">
  <advance width="1222"/>
  <unicode hex="005A"/>
  <outline>
    <contour>
      <point x="1178" y="1496" type="line"/>
      <point x="1178" y="1372" type="line"/>
      <point x="336.005" y="156" type="line"/>
      <point x="1170" y="156" type="line"/>
      <point x="1170" y="0" type="line"/>
      <point x="112.005" y="0" type="line"/>
      <point x="112.005" y="139" type="line"/>
      <point x="943.005" y="1335" type="line"/>
      <point x="146.005" y="1335" type="line"/>
      <point x="146" y="1496" type="line"/>
    </contour>
    <contour>
      <point x="636" y="1488" type="line"/>
    </contour>
    <contour>
      <point x="634" y="1488" type="line"/>
    </contour>
    <contour>
      <point x="614" y="1488" type="line" smooth="yes"/>
    </contour>
    <contour>
      <point x="611" y="1489" type="move" name="top"/>
    </contour>
  </outline>
</glyph>
<glyph name="bracketleft" format="1">
  <advance width="590"/>
  <unicode hex="005B"/>
  <outline>
    <contour>
      <point x="477" y="-139" type="line"/>
      <point x="336" y="-139" type="line"/>
      <point x="336" y="1381" type="line"/>
      <point x="477" y="1381" type="line"/>
      <point x="477" y="1505" type="line"/>
      <point x="158" y="1505" type="line"/>
      <point x="158" y="-261" type="line"/>
      <point x="477" y="-261" type="line"/>
    </contour>
  </outline>
</glyph>
<glyph name="backslash" format="1">
  <advance width="935"/>
  <unicode hex="005C"/>
  <outline>
    <contour>
      <point x="881" y="-120" type="line"/>
      <point x="735" y="-120" type="line"/>
      <point x="82" y="1466" type="line"/>
      <point x="230" y="1466" type="line"/>
    </contour>
  </outline>
</glyph>
<glyph name="bracketright" format="1">
  <advance width="590"/>
  <unicode hex="005D"/>
  <outline>
    <contour>
      <point x="111" y="-261" type="line"/>
      <point x="430" y="-261" type="line"/>
      <point x="430" y="1505" type="line"/>
      <point x="111" y="1505" type="line"/>
      <point x="111" y="1381" type="line"/>
      <point x="255" y="1381" type="line"/>
      <point x="255" y="-139" type="line"/>
      <point x="111" y="-139" type="line"/>
    </contour>
  </outline>
</glyph>
<glyph name="asciicircum" format="1">
  <advance width="1408"/>
  <unicode hex="005E"/>
  <outline>
    <contour>
      <point x="348" y="627" type="line"/>
      <point x="196" y="627" type="line"/>
      <point x="667" y="1559" type="line"/>
      <point x="766" y="1559" type="line"/>
      <point x="1242" y="627" type="line"/>
      <point x="1093" y="627" type="line"/>
      <point x="713" y="1375" type="line"/>
    </contour>
  </outline>
</glyph>
<glyph name="underscore" format="1">
  <advance width="1252"/>
  <unicode hex="005F"/>
  <outline>
    <contour>
      <point x="1102" y="-156" type="line"/>
      <point x="1102" y="-292" type="line"/>
      <point x="150" y="-292" type="line"/>
      <point x="150" y="-156" type="line"/>
    </contour>
  </outline>
</glyph>
<glyph name="grave" format="1">
  <advance width="643"/>
  <unicode hex="0060"/>
  <outline>
    <contour>
      <point x="269" y="1098" type="line"/>
    </contour>
    <contour>
      <point x="408" y="1251" type="line"/>
      <point x="85" y="1638" type="line"/>
      <point x="335" y="1638" type="line"/>
      <point x="520" y="1251" type="line"/>
    </contour>
    <contour>
      <point x="268.5" y="1098" type="line"/>
    </contour>
    <contour>
      <point x="268.5" y="1098" type="line" smooth="yes"/>
    </contour>
    <contour>
      <point x="302.5" y="1098" type="move" name="_top"/>
    </contour>
  </outline>
</glyph>
<glyph name="a" format="1">
  <advance width="1128"/>
  <unicode hex="0061"/>
  <outline>
    <contour>
      <point x="722" y="165"/>
      <point x="584" y="102"/>
      <point x="480" y="102" type="curve" smooth="yes"/>
      <point x="375" y="102"/>
      <point x="292" y="157"/>
      <point x="292" y="289" type="curve" smooth="yes"/>
      <point x="292" y="466"/>
      <point x="396" y="480"/>
      <point x="793" y="500" type="curve"/>
      <point x="793" y="264" type="line"/>
    </contour>
    <contour>
      <point x="577" y="-25"/>
      <point x="702" y="12"/>
      <point x="798" y="120" type="curve"/>
      <point x="798" y="120"/>
      <point x="817" y="1"/>
      <point x="818" y="0" type="curve"/>
      <point x="962" y="0" type="line"/>
      <point x="962" y="806" type="line" smooth="yes"/>
      <point x="962" y="1051"/>
      <point x="792" y="1124"/>
      <point x="575" y="1124" type="curve" smooth="yes"/>
      <point x="425" y="1124"/>
      <point x="283" y="1087"/>
      <point x="203" y="1041" type="curve"/>
      <point x="203" y="1041"/>
      <point x="240" y="895"/>
      <point x="241" y="895" type="curve"/>
      <point x="330" y="943"/>
      <point x="460" y="976"/>
      <point x="579" y="976" type="curve" smooth="yes"/>
      <point x="720" y="976"/>
      <point x="793" y="914"/>
      <point x="793" y="781" type="curve" smooth="yes"/>
      <point x="793" y="617" type="line"/>
      <point x="473" y="589"/>
      <point x="124" y="632"/>
      <point x="124" y="292" type="curve" smooth="yes"/>
      <point x="124" y="77"/>
      <point x="281" y="-25"/>
      <point x="462" y="-25" type="curve" smooth="yes"/>
    </contour>
    <contour>
      <point x="564" y="1098" type="move" name="top"/>
    </contour>
    <contour>
      <point x="1003" y="10" type="move" name="ogonek"/>
    </contour>
  </outline>
</glyph>
<glyph name="b" format="1">
  <advance width="1215"/>
  <unicode hex="0062"/>
  <outline>
    <contour>
      <point x="122" y="1510" type="line"/>
      <point x="291" y="1510" type="line"/>
      <point x="291" y="939" type="line"/>
      <point x="368" y="1065"/>
      <point x="495" y="1124"/>
      <point x="638" y="1124" type="curve" smooth="yes"/>
      <point x="965" y="1124"/>
      <point x="1105" y="859"/>
      <point x="1105" y="562" type="curve" smooth="yes"/>
      <point x="1105" y="244"/>
      <point x="967" y="-25"/>
      <point x="638" y="-25" type="curve" smooth="yes"/>
      <point x="492" y="-25"/>
      <point x="377" y="36"/>
      <point x="291" y="148" type="curve"/>
      <point x="288" y="0" type="line"/>
      <point x="122" y="0" type="line"/>
    </contour>
    <contour>
      <point x="288" y="551" type="curve" smooth="yes"/>
      <point x="288" y="313"/>
      <point x="386" y="123"/>
      <point x="618" y="123" type="curve" smooth="yes"/>
      <point x="855" y="123"/>
      <point x="934" y="351"/>
      <point x="934" y="551" type="curve" smooth="yes"/>
      <point x="934" y="750"/>
      <point x="855" y="976"/>
      <point x="618" y="976" type="curve" smooth="yes"/>
      <point x="386" y="976"/>
      <point x="288" y="786"/>
    </contour>
  </outline>
</glyph>
<glyph name="c" format="1">
  <advance width="1096"/>
  <unicode hex="0063"/>
  <outline>
    <contour>
      <point x="661" y="118" type="curve" smooth="yes"/>
      <point x="769" y="118"/>
      <point x="861" y="154"/>
      <point x="928" y="197" type="curve"/>
      <point x="979" y="75" type="line"/>
      <point x="901" y="8"/>
      <point x="771" y="-25"/>
      <point x="653" y="-25" type="curve" smooth="yes"/>
      <point x="288" y="-25"/>
      <point x="113" y="246"/>
      <point x="113" y="554" type="curve" smooth="yes"/>
      <point x="113" y="850"/>
      <point x="294" y="1124"/>
      <point x="650" y="1124" type="curve" smooth="yes"/>
      <point x="789" y="1124"/>
      <point x="910" y="1088"/>
      <point x="978" y="1029" type="curve"/>
      <point x="927" y="902" type="line"/>
      <point x="835" y="958"/>
      <point x="748" y="982"/>
      <point x="660" y="982" type="curve" smooth="yes"/>
      <point x="441" y="982"/>
      <point x="287" y="809"/>
      <point x="287" y="554" type="curve" smooth="yes"/>
      <point x="287" y="302"/>
      <point x="420" y="118"/>
    </contour>
    <contour>
      <point x="545" y="1098" type="move" name="top"/>
    </contour>
    <contour>
      <point x="545" y="0" type="move" name="bottom"/>
    </contour>
  </outline>
</glyph>
<glyph name="d" format="1">
  <advance width="1180"/>
  <unicode hex="0064"/>
  <outline>
    <contour>
      <point x="1062" y="1510" type="line"/>
      <point x="1062" y="0" type="line"/>
      <point x="892" y="0" type="line"/>
      <point x="892" y="172" type="line"/>
      <point x="829" y="60"/>
      <point x="706" y="-24"/>
      <point x="554" y="-24" type="curve" smooth="yes"/>
      <point x="258" y="-24"/>
      <point x="85" y="219"/>
      <point x="85" y="562" type="curve" smooth="yes"/>
      <point x="85" y="873"/>
      <point x="270" y="1125"/>
      <point x="548" y="1125" type="curve" smooth="yes"/>
      <point x="693" y="1125"/>
      <point x="837" y="1053"/>
      <point x="894" y="937" type="curve"/>
      <point x="894" y="1510" type="line"/>
    </contour>
    <contour>
      <point x="563" y="977" type="curve" smooth="yes"/>
      <point x="339" y="977"/>
      <point x="258" y="756"/>
      <point x="258" y="557" type="curve" smooth="yes"/>
      <point x="258" y="339"/>
      <point x="338" y="124"/>
      <point x="565" y="124" type="curve" smooth="yes"/>
      <point x="790" y="124"/>
      <point x="895" y="315"/>
      <point x="895" y="551" type="curve" smooth="yes"/>
      <point x="895" y="786"/>
      <point x="797" y="977"/>
    </contour>
    <contour>
      <point x="587" y="549" type="move" name="center"/>
    </contour>
  </outline>
</glyph>
<glyph name="e" format="1">
  <advance width="1135"/>
  <unicode hex="0065"/>
  <outline>
    <contour>
      <point x="957" y="260" type="curve"/>
      <point x="1024" y="133" type="line"/>
      <point x="927.769" y="42.4874"/>
      <point x="776.133" y="-25"/>
      <point x="607" y="-25" type="curve" smooth="yes"/>
      <point x="288.554" y="-25"/>
      <point x="113" y="214"/>
      <point x="113" y="551" type="curve" smooth="yes"/>
      <point x="113" y="873"/>
      <point x="281.5" y="1124"/>
      <point x="599" y="1124" type="curve" smooth="yes"/>
      <point x="863.5" y="1124"/>
      <point x="1032" y="922"/>
      <point x="1032" y="585" type="curve" smooth="yes"/>
      <point x="1032" y="569"/>
      <point x="1030" y="540"/>
      <point x="1030" y="521" type="curve"/>
      <point x="303" y="521" type="line"/>
      <point x="312.968" y="282.811"/>
      <point x="401.683" y="123"/>
      <point x="614" y="123" type="curve" smooth="yes"/>
      <point x="739.307" y="123"/>
      <point x="878.418" y="183.707"/>
    </contour>
    <contour>
      <point x="605" y="976" type="curve" smooth="yes"/>
      <point x="438" y="976"/>
      <point x="315.5" y="868.1"/>
      <point x="303" y="631" type="curve"/>
      <point x="852" y="631" type="line"/>
      <point x="852" y="872.1"/>
      <point x="744.778" y="976.237"/>
    </contour>
  </outline>
</glyph>
<glyph name="f" format="1">
  <advance width="775"/>
  <unicode hex="0066"/>
  <outline>
    <contour>
      <point x="89" y="985" type="line"/>
      <point x="89" y="1098" type="line"/>
      <point x="245" y="1098" type="line"/>
      <point x="245" y="1425.11"/>
      <point x="367" y="1536"/>
      <point x="652" y="1535.96" type="curve" smooth="yes"/>
      <point x="710" y="1536" type="line"/>
      <point x="710" y="1408" type="line"/>
      <point x="651" y="1407.93" type="line" smooth="yes"/>
      <point x="452" y="1408"/>
      <point x="418" y="1330.92"/>
      <point x="418" y="1098" type="curve"/>
      <point x="667" y="1098" type="line"/>
      <point x="667" y="985" type="line"/>
      <point x="418" y="985" type="line"/>
      <point x="418" y="0" type="line"/>
      <point x="245" y="0" type="line"/>
      <point x="245" y="985" type="line"/>
    </contour>
  </outline>
</glyph>
<glyph name="g" format="1">
  <advance width="1259"/>
  <unicode hex="0067"/>
  <outline>
    <contour>
      <point x="932" y="557" type="curve" smooth="yes"/>
      <point x="932" y="336"/>
      <point x="842" y="158"/>
      <point x="602" y="158" type="curve" smooth="yes"/>
      <point x="366" y="158"/>
      <point x="284" y="373"/>
      <point x="284" y="563" type="curve" smooth="yes"/>
      <point x="284" y="753"/>
      <point x="364" y="982"/>
      <point x="600" y="982" type="curve" smooth="yes"/>
      <point x="841" y="982"/>
      <point x="932" y="787"/>
    </contour>
    <contour>
      <point x="355" y="-507" type="line"/>
      <point x="507" y="-507" type="line" smooth="yes"/>
      <point x="1080" y="-507"/>
      <point x="1100" y="-156"/>
      <point x="1100" y="159" type="curve" smooth="yes"/>
      <point x="1100" y="816" type="line" smooth="yes"/>
      <point x="1100" y="846"/>
      <point x="1105" y="1098"/>
      <point x="1105" y="1098" type="curve"/>
      <point x="932" y="1098" type="line"/>
      <point x="932" y="951" type="line"/>
      <point x="845" y="1064"/>
      <point x="737" y="1124"/>
      <point x="586" y="1124" type="curve" smooth="yes"/>
      <point x="253" y="1124"/>
      <point x="112" y="866"/>
      <point x="112" y="554" type="curve" smooth="yes"/>
      <point x="112" y="294"/>
      <point x="241" y="0"/>
      <point x="563" y="0" type="curve" smooth="yes"/>
      <point x="746" y="0"/>
      <point x="856" y="67"/>
      <point x="932" y="184" type="curve"/>
      <point x="932" y="143" type="line" smooth="yes"/>
      <point x="932" y="-153"/>
      <point x="931" y="-340"/>
      <point x="511" y="-343" type="curve"/>
      <point x="355" y="-343" type="line"/>
    </contour>
  </outline>
</glyph>
<glyph name="h" format="1">
  <advance width="1113"/>
  <unicode hex="0068"/>
  <outline>
    <contour>
      <point x="283" y="727" type="curve"/>
      <point x="283" y="0" type="line"/>
      <point x="115" y="0" type="line"/>
      <point x="115" y="1510" type="line"/>
      <point x="283" y="1510" type="line"/>
      <point x="283" y="945" type="line"/>
      <point x="379" y="1072"/>
      <point x="509" y="1124"/>
      <point x="676" y="1124" type="curve" smooth="yes"/>
      <point x="905" y="1124"/>
      <point x="1008" y="965"/>
      <point x="1008" y="677" type="curve" smooth="yes"/>
      <point x="1008" y="0" type="line"/>
      <point x="840" y="0" type="line"/>
      <point x="840" y="600" type="line" smooth="yes"/>
      <point x="840" y="848"/>
      <point x="807" y="971"/>
      <point x="620" y="971" type="curve" smooth="yes"/>
      <point x="449" y="971"/>
      <point x="310" y="831"/>
    </contour>
    <contour>
      <point x="558" y="1098" type="move" name="top"/>
    </contour>
    <contour>
      <point x="558" y="549" type="move" name="center"/>
    </contour>
  </outline>
</glyph>
<glyph name="i" format="1">
  <advance width="479"/>
  <unicode hex="0069"/>
  <outline>
    <contour>
      <point x="324" y="1098" type="line"/>
      <point x="324" y="0" type="line"/>
      <point x="155" y="0" type="line"/>
      <point x="155" y="1098" type="line"/>
    </contour>
    <contour>
      <point x="324" y="1490" type="line"/>
      <point x="324" y="1292" type="line"/>
      <point x="155" y="1292" type="line"/>
      <point x="155" y="1490" type="line"/>
    </contour>
  </outline>
</glyph>
<glyph name="j" format="1">
  <advance width="571"/>
  <unicode hex="006A"/>
  <outline>
    <contour>
      <point x="458" y="1098" type="line"/>
      <point x="458" y="-139" type="line" smooth="yes"/>
      <point x="458" y="-407"/>
      <point x="305" y="-501"/>
      <point x="103" y="-502" type="curve"/>
      <point x="103" y="-351" type="line"/>
      <point x="285" y="-351"/>
      <point x="290" y="-214"/>
      <point x="290" y="-49" type="curve" smooth="yes"/>
      <point x="290" y="-23" type="line" smooth="yes"/>
      <point x="290" y="1098" type="line"/>
    </contour>
    <contour>
      <point x="458" y="1490" type="line"/>
      <point x="458" y="1292" type="line"/>
      <point x="290" y="1292" type="line"/>
      <point x="290" y="1490" type="line"/>
    </contour>
  </outline>
</glyph>
<glyph name="k" format="1">
  <advance width="1108"/>
  <unicode hex="006B"/>
  <outline>
    <contour>
      <point x="147" y="1510" type="line"/>
      <point x="317" y="1510" type="line"/>
      <point x="317" y="644" type="line"/>
      <point x="793" y="1098" type="line"/>
      <point x="1034" y="1098" type="line"/>
      <point x="556" y="641" type="line"/>
      <point x="1066" y="0" type="line"/>
      <point x="848" y="0" type="line"/>
      <point x="424" y="547" type="line"/>
      <point x="317" y="448" type="line"/>
      <point x="317" y="0" type="line"/>
      <point x="147" y="0" type="line"/>
    </contour>
    <contour>
      <point x="554" y="0" type="line" smooth="yes"/>
    </contour>
    <contour>
      <point x="554" y="0" type="move" name="bottom"/>
    </contour>
  </outline>
</glyph>
<glyph name="l" format="1">
  <advance width="567"/>
  <unicode hex="006C"/>
  <outline>
    <contour>
      <point x="137" y="480" type="curve" smooth="yes"/>
      <point x="137" y="1510" type="line"/>
      <point x="308" y="1510" type="line"/>
      <point x="308" y="456" type="line" smooth="yes"/>
      <point x="308" y="212"/>
      <point x="308" y="133"/>
      <point x="442" y="133" type="curve" smooth="yes"/>
      <point x="587" y="133" type="line"/>
      <point x="564" y="-11" type="line"/>
      <point x="462" y="-11" type="line" smooth="yes"/>
      <point x="158" y="-11"/>
      <point x="137" y="90"/>
    </contour>
    <contour>
      <point x="284" y="1098" type="line" smooth="yes"/>
    </contour>
    <contour>
      <point x="284" y="0" type="line" smooth="yes"/>
    </contour>
    <contour>
      <point x="552" y="1098" type="line" smooth="yes"/>
    </contour>
    <contour>
      <point x="285" y="1098" type="move" name="top"/>
    </contour>
    <contour>
      <point x="285" y="0" type="move" name="bottom"/>
    </contour>
    <contour>
      <point x="547" y="1098" type="move" name="topright"/>
    </contour>
  </outline>
</glyph>
<glyph name="m" format="1">
  <advance width="1891"/>
  <unicode hex="006D"/>
  <outline>
    <contour>
      <point x="1727" y="697" type="curve" smooth="yes"/>
      <point x="1727" y="0" type="line"/>
      <point x="1536" y="0" type="line"/>
      <point x="1536" y="573" type="line" smooth="yes"/>
      <point x="1536" y="820"/>
      <point x="1510" y="971"/>
      <point x="1334" y="971" type="curve" smooth="yes"/>
      <point x="1203" y="971"/>
      <point x="1062" y="840"/>
      <point x="1062" y="650" type="curve" smooth="yes"/>
      <point x="1062" y="0" type="line"/>
      <point x="872" y="0" type="line"/>
      <point x="872" y="608" type="line" smooth="yes"/>
      <point x="872" y="832"/>
      <point x="822" y="971"/>
      <point x="665" y="971" type="curve" smooth="yes"/>
      <point x="506" y="971"/>
      <point x="396" y="839"/>
      <point x="368" y="691" type="curve"/>
      <point x="368" y="612" type="line" smooth="yes"/>
      <point x="368" y="0" type="line"/>
      <point x="177" y="0" type="line"/>
      <point x="177" y="820" type="line" smooth="yes"/>
      <point x="177" y="913"/>
      <point x="176" y="1007"/>
      <point x="174" y="1098" type="curve"/>
      <point x="349" y="1098" type="line"/>
      <point x="362" y="935" type="line"/>
      <point x="455" y="1072"/>
      <point x="553" y="1124"/>
      <point x="684" y="1124" type="curve" smooth="yes"/>
      <point x="829" y="1124"/>
      <point x="957" y="1067"/>
      <point x="1014" y="921" type="curve"/>
      <point x="1113" y="1069"/>
      <point x="1224" y="1124"/>
      <point x="1369" y="1124" type="curve" smooth="yes"/>
      <point x="1614" y="1124"/>
      <point x="1727" y="954"/>
    </contour>
  </outline>
</glyph>
<glyph name="n" format="1">
  <advance width="1116"/>
  <unicode hex="006E"/>
  <outline>
    <contour>
      <point x="665" y="1124" type="curve" smooth="yes"/>
      <point x="906" y="1124"/>
      <point x="1011" y="965"/>
      <point x="1011" y="657" type="curve" smooth="yes"/>
      <point x="1011" y="0" type="line"/>
      <point x="843" y="0" type="line"/>
      <point x="843" y="551" type="line" smooth="yes"/>
      <point x="843" y="836"/>
      <point x="832" y="980"/>
      <point x="629" y="980" type="curve" smooth="yes"/>
      <point x="445" y="980"/>
      <point x="313" y="849"/>
      <point x="286" y="750" type="curve"/>
      <point x="286" y="0" type="line"/>
      <point x="118" y="0" type="line"/>
      <point x="118" y="831" type="line"/>
      <point x="115" y="1098" type="line"/>
      <point x="259" y="1098" type="line"/>
      <point x="275" y="935" type="line"/>
      <point x="360" y="1052"/>
      <point x="513" y="1124"/>
    </contour>
    <contour>
      <point x="559" y="1098" type="move" name="top"/>
    </contour>
    <contour>
      <point x="559" y="0" type="move" name="bottom"/>
    </contour>
  </outline>
</glyph>
<glyph name="o" format="1">
  <advance width="1275"/>
  <unicode hex="006F"/>
  <outline>
    <contour>
      <point x="1166" y="549" type="curve" smooth="yes"/>
      <point x="1166" y="244"/>
      <point x="971" y="-25"/>
      <point x="642" y="-25" type="curve" smooth="yes"/>
      <point x="307" y="-25"/>
      <point x="109" y="233"/>
      <point x="109" y="547" type="curve" smooth="yes"/>
      <point x="109" y="861"/>
      <point x="310" y="1124"/>
      <point x="645" y="1124" type="curve" smooth="yes"/>
      <point x="981" y="1124"/>
      <point x="1166" y="865"/>
    </contour>
    <contour>
      <point x="992" y="547" type="curve" smooth="yes"/>
      <point x="992" y="780"/>
      <point x="889" y="982"/>
      <point x="642" y="982" type="curve" smooth="yes"/>
      <point x="407" y="982"/>
      <point x="282" y="768"/>
      <point x="282" y="544" type="curve" smooth="yes"/>
      <point x="282" y="322"/>
      <point x="404" y="118"/>
      <point x="645" y="118" type="curve" smooth="yes"/>
      <point x="883" y="118"/>
      <point x="992" y="323"/>
    </contour>
  </outline>
</glyph>
<glyph name="p" format="1">
  <advance width="1197"/>
  <unicode hex="0070"/>
  <outline>
    <contour>
      <point x="120" y="-459" type="line"/>
      <point x="120" y="1099" type="line"/>
      <point x="286" y="1099" type="line"/>
      <point x="289" y="951" type="line"/>
      <point x="372" y="1063"/>
      <point x="484" y="1124"/>
      <point x="628" y="1124" type="curve" smooth="yes"/>
      <point x="952" y="1124"/>
      <point x="1088" y="855"/>
      <point x="1088" y="537" type="curve" smooth="yes"/>
      <point x="1088" y="240"/>
      <point x="950" y="-25"/>
      <point x="628" y="-25" type="curve" smooth="yes"/>
      <point x="489" y="-25"/>
      <point x="365" y="34"/>
      <point x="289" y="160" type="curve"/>
      <point x="289" y="-459" type="line"/>
    </contour>
    <contour>
      <point x="286" y="548" type="curve" smooth="yes"/>
      <point x="286" y="313"/>
      <point x="380" y="123"/>
      <point x="608" y="123" type="curve" smooth="yes"/>
      <point x="838" y="123"/>
      <point x="915" y="349"/>
      <point x="915" y="548" type="curve" smooth="yes"/>
      <point x="915" y="748"/>
      <point x="838" y="976"/>
      <point x="608" y="976" type="curve" smooth="yes"/>
      <point x="380" y="976"/>
      <point x="286" y="786"/>
    </contour>
  </outline>
</glyph>
<glyph name="q" format="1">
  <advance width="1239"/>
  <unicode hex="0071"/>
  <outline>
    <contour>
      <point x="1092" y="-459" type="line"/>
      <point x="923" y="-459" type="line"/>
      <point x="923" y="171" type="line"/>
      <point x="853" y="48"/>
      <point x="727" y="-28"/>
      <point x="570" y="-25" type="curve" smooth="yes"/>
      <point x="272" y="-20"/>
      <point x="117" y="246"/>
      <point x="117" y="538" type="curve" smooth="yes"/>
      <point x="117" y="855"/>
      <point x="270" y="1124"/>
      <point x="591" y="1124" type="curve" smooth="yes"/>
      <point x="744" y="1124"/>
      <point x="855" y="1049"/>
      <point x="926" y="938" type="curve"/>
      <point x="926" y="1098" type="line"/>
      <point x="1092" y="1098" type="line"/>
      <point x="1092" y="1098"/>
      <point x="1092" y="832"/>
      <point x="1092" y="816" type="curve" smooth="yes"/>
    </contour>
    <contour>
      <point x="926" y="551" type="curve" smooth="yes"/>
      <point x="926" y="783"/>
      <point x="830" y="976"/>
      <point x="598" y="976" type="curve" smooth="yes"/>
      <point x="362" y="976"/>
      <point x="290" y="748"/>
      <point x="290" y="551" type="curve" smooth="yes"/>
      <point x="290" y="346"/>
      <point x="363" y="123"/>
      <point x="599" y="123" type="curve" smooth="yes"/>
      <point x="833" y="123"/>
      <point x="926" y="317"/>
    </contour>
  </outline>
</glyph>
<glyph name="r" format="1">
  <advance width="762"/>
  <unicode hex="0072"/>
  <outline>
    <contour>
      <point x="710" y="1114" type="line"/>
      <point x="710" y="953" type="line"/>
      <point x="628" y="953" type="line" smooth="yes"/>
      <point x="423" y="953"/>
      <point x="320" y="808"/>
      <point x="320" y="644" type="curve" smooth="yes"/>
      <point x="320" y="0" type="line"/>
      <point x="150" y="0" type="line"/>
      <point x="150" y="845" type="line" smooth="yes"/>
      <point x="150" y="932"/>
      <point x="147" y="1015"/>
      <point x="147" y="1098" type="curve"/>
      <point x="294" y="1098" type="line"/>
      <point x="304" y="919" type="line"/>
      <point x="381" y="1060"/>
      <point x="495" y="1114"/>
      <point x="624" y="1114" type="curve" smooth="yes"/>
    </contour>
    <contour>
      <point x="383" y="1098" type="line" smooth="yes"/>
    </contour>
    <contour>
      <point x="383" y="0" type="line" smooth="yes"/>
    </contour>
    <contour>
      <point x="381" y="1098" type="move" name="top"/>
    </contour>
    <contour>
      <point x="381" y="0" type="move" name="bottom"/>
    </contour>
  </outline>
</glyph>
<glyph name="s" format="1">
  <advance width="1021"/>
  <unicode hex="0073"/>
  <outline>
    <contour>
      <point x="138" y="82" type="curve"/>
      <point x="182" y="224" type="line"/>
      <point x="250" y="176"/>
      <point x="375" y="126"/>
      <point x="514" y="126" type="curve" smooth="yes"/>
      <point x="655" y="126"/>
      <point x="717" y="178"/>
      <point x="717" y="292" type="curve" smooth="yes"/>
      <point x="717" y="367"/>
      <point x="675" y="425"/>
      <point x="560" y="461" type="curve"/>
      <point x="432" y="494" type="line"/>
      <point x="269" y="540"/>
      <point x="149" y="618"/>
      <point x="149" y="810" type="curve" smooth="yes"/>
      <point x="149" y="1018"/>
      <point x="307" y="1124"/>
      <point x="522" y="1124" type="curve" smooth="yes"/>
      <point x="661" y="1124"/>
      <point x="759" y="1093"/>
      <point x="839" y="1031" type="curve"/>
      <point x="794" y="893" type="line"/>
      <point x="736" y="937"/>
      <point x="648" y="971"/>
      <point x="529" y="971" type="curve" smooth="yes"/>
      <point x="413" y="971"/>
      <point x="314" y="928"/>
      <point x="314" y="820" type="curve" smooth="yes"/>
      <point x="314" y="729"/>
      <point x="353" y="695"/>
      <point x="478" y="659" type="curve"/>
      <point x="614" y="625" type="line" smooth="yes"/>
      <point x="769" y="579"/>
      <point x="880" y="504"/>
      <point x="880" y="312" type="curve" smooth="yes"/>
      <point x="880" y="92"/>
      <point x="739" y="-25"/>
      <point x="529" y="-25" type="curve" smooth="yes"/>
      <point x="360" y="-25"/>
      <point x="218" y="14"/>
    </contour>
  </outline>
</glyph>
<glyph name="t" format="1">
  <advance width="696"/>
  <unicode hex="0074"/>
  <outline>
    <contour>
      <point x="2" y="973" type="line"/>
      <point x="2" y="1098" type="line"/>
      <point x="182" y="1098" type="line"/>
      <point x="227" y="1462" type="line"/>
      <point x="351" y="1462" type="line"/>
      <point x="351" y="1098" type="line"/>
      <point x="642" y="1098" type="line"/>
      <point x="642" y="973" type="line"/>
      <point x="351" y="973" type="line"/>
      <point x="351" y="409" type="line" smooth="yes"/>
      <point x="351" y="178"/>
      <point x="353" y="133"/>
      <point x="564" y="133" type="curve" smooth="yes"/>
      <point x="645" y="133" type="line"/>
      <point x="619" y="-11" type="line"/>
      <point x="584" y="-11" type="line" smooth="yes"/>
      <point x="183" y="-11"/>
      <point x="182" y="90"/>
      <point x="182" y="463" type="curve" smooth="yes"/>
      <point x="182" y="973" type="line"/>
    </contour>
    <contour>
      <point x="347" y="0" type="line"/>
    </contour>
    <contour>
      <point x="347" y="549" type="line"/>
    </contour>
    <contour>
      <point x="337" y="0" type="line" smooth="yes"/>
    </contour>
    <contour>
      <point x="337" y="549" type="line" smooth="yes"/>
    </contour>
    <contour>
      <point x="349" y="0" type="move" name="bottom"/>
    </contour>
    <contour>
      <point x="349" y="549" type="move" name="center"/>
    </contour>
  </outline>
</glyph>
<glyph name="u" format="1">
  <advance width="1145"/>
  <unicode hex="0075"/>
  <outline>
    <contour>
      <point x="574" y="-25" type="curve" smooth="yes"/>
      <point x="342" y="-25"/>
      <point x="142" y="116"/>
      <point x="142" y="413" type="curve" smooth="yes"/>
      <point x="142" y="1098" type="line"/>
      <point x="313" y="1098" type="line"/>
      <point x="313" y="411" type="line" smooth="yes"/>
      <point x="313" y="197"/>
      <point x="429" y="118"/>
      <point x="574" y="118" type="curve" smooth="yes"/>
      <point x="720" y="118"/>
      <point x="834" y="199"/>
      <point x="834" y="411" type="curve" smooth="yes"/>
      <point x="834" y="1098" type="line"/>
      <point x="1003" y="1098" type="line"/>
      <point x="1003" y="413" type="line" smooth="yes"/>
      <point x="1003" y="116"/>
      <point x="806" y="-25"/>
    </contour>
    <contour>
      <point x="575" y="1098" type="move" name="top"/>
    </contour>
    <contour>
      <point x="1033" y="10" type="move" name="ogonek"/>
    </contour>
  </outline>
</glyph>
<glyph name="v" format="1">
  <advance width="1193"/>
  <unicode hex="0076"/>
  <outline>
    <contour>
      <point x="486" y="0" type="line"/>
      <point x="90" y="1098" type="line"/>
      <point x="280" y="1098" type="line"/>
      <point x="503" y="448" type="line"/>
      <point x="588" y="187" type="line"/>
      <point x="673" y="448" type="line"/>
      <point x="912" y="1098" type="line"/>
      <point x="1097" y="1098" type="line"/>
      <point x="665" y="0" type="line"/>
    </contour>
  </outline>
</glyph>
<glyph name="w" format="1">
  <advance width="1655"/>
  <unicode hex="0077"/>
  <outline>
    <contour>
      <point x="57" y="1098" type="line"/>
      <point x="240" y="1098" type="line"/>
      <point x="468" y="210" type="line"/>
      <point x="740" y="1098" type="line"/>
      <point x="944" y="1098" type="line"/>
      <point x="1198" y="214" type="line"/>
      <point x="1417" y="1098" type="line"/>
      <point x="1598" y="1098" type="line"/>
      <point x="1274" y="0" type="line"/>
      <point x="1108" y="0" type="line"/>
      <point x="836" y="893" type="line"/>
      <point x="546" y="0" type="line"/>
      <point x="377" y="0" type="line"/>
    </contour>
    <contour>
      <point x="837" y="1098" type="line" smooth="yes"/>
    </contour>
    <contour>
      <point x="828" y="1098" type="move" name="top"/>
    </contour>
  </outline>
</glyph>
<glyph name="x" format="1">
  <advance width="1170"/>
  <unicode hex="0078"/>
  <outline>
    <contour>
      <point x="867" y="1098" type="line"/>
      <point x="1068" y="1098" type="line"/>
      <point x="680" y="552" type="line"/>
      <point x="1068" y="0" type="line"/>
      <point x="877" y="0" type="line"/>
      <point x="582" y="415" type="line"/>
      <point x="287" y="0" type="line"/>
      <point x="86" y="0" type="line"/>
      <point x="482" y="556" type="line"/>
      <point x="96" y="1098" type="line"/>
      <point x="295" y="1098" type="line"/>
      <point x="580" y="694" type="line"/>
    </contour>
  </outline>
</glyph>
<glyph name="y" format="1">
  <advance width="1171"/>
  <unicode hex="0079"/>
  <outline>
    <contour>
      <point x="601" y="201" type="line"/>
      <point x="913" y="1098" type="line"/>
      <point x="1086" y="1098" type="line"/>
      <point x="684" y="-15" type="line" smooth="yes"/>
      <point x="584" y="-288"/>
      <point x="538" y="-502"/>
      <point x="165" y="-502" type="curve"/>
      <point x="165" y="-351" type="line"/>
      <point x="421" y="-351"/>
      <point x="451" y="-214"/>
      <point x="499" y="30" type="curve"/>
      <point x="88" y="1098" type="line"/>
      <point x="268" y="1098" type="line"/>
    </contour>
  </outline>
</glyph>
<glyph name="z" format="1">
  <advance width="908"/>
  <unicode hex="007A"/>
  <outline>
    <contour>
      <point x="606" y="964" type="line"/>
      <point x="98" y="964" type="line"/>
      <point x="98" y="1098" type="line"/>
      <point x="804" y="1098" type="line"/>
      <point x="804" y="964" type="line"/>
      <point x="285" y="136" type="line"/>
      <point x="822" y="136" type="line"/>
      <point x="822" y="0" type="line"/>
      <point x="91" y="0" type="line"/>
      <point x="91" y="139" type="line"/>
    </contour>
    <contour>
      <point x="446" y="1098" type="line" smooth="yes"/>
    </contour>
    <contour>
      <point x="446" y="1098" type="move" name="top"/>
    </contour>
  </outline>
</glyph>
<glyph name="braceleft" format="1">
  <advance width="692"/>
  <unicode hex="007B"/>
  <outline>
    <contour>
      <point x="308" y="689" type="curve"/>
      <point x="441" y="630"/>
      <point x="471" y="487"/>
      <point x="471" y="390" type="curve" smooth="yes"/>
      <point x="471" y="156" type="line" smooth="yes"/>
      <point x="471" y="-45"/>
      <point x="473" y="-101"/>
      <point x="632" y="-101" type="curve"/>
      <point x="632" y="-238" type="line"/>
      <point x="392" y="-238"/>
      <point x="292" y="-155"/>
      <point x="292" y="53" type="curve" smooth="yes"/>
      <point x="292" y="335" type="line" smooth="yes"/>
      <point x="292" y="465"/>
      <point x="286" y="614"/>
      <point x="155" y="614" type="curve" smooth="yes"/>
      <point x="89" y="614" type="line"/>
      <point x="89" y="764" type="line"/>
      <point x="155" y="764" type="line" smooth="yes"/>
      <point x="286" y="764"/>
      <point x="292" y="913"/>
      <point x="292" y="1043" type="curve" smooth="yes"/>
      <point x="292" y="1326" type="line" smooth="yes"/>
      <point x="292" y="1534"/>
      <point x="392" y="1616"/>
      <point x="632" y="1616" type="curve"/>
      <point x="632" y="1479" type="line"/>
      <point x="473" y="1479"/>
      <point x="471" y="1424"/>
      <point x="471" y="1223" type="curve" smooth="yes"/>
      <point x="471" y="988" type="line" smooth="yes"/>
      <point x="471" y="891"/>
      <point x="441" y="748"/>
    </contour>
  </outline>
</glyph>
<glyph name="bar" format="1">
  <advance width="472"/>
  <unicode hex="007C"/>
  <outline>
    <contour>
      <point x="323" y="1603" type="line"/>
      <point x="323" y="-303" type="line"/>
      <point x="157" y="-303" type="line"/>
      <point x="157" y="1603" type="line"/>
    </contour>
  </outline>
</glyph>
<glyph name="braceright" format="1">
  <advance width="680"/>
  <unicode hex="007D"/>
  <outline>
    <contour>
      <point x="391" y="689" type="curve"/>
      <point x="271" y="630"/>
      <point x="246" y="487"/>
      <point x="246" y="390" type="curve" smooth="yes"/>
      <point x="246" y="156" type="line" smooth="yes"/>
      <point x="246" y="-45"/>
      <point x="241" y="-101"/>
      <point x="98" y="-101" type="curve"/>
      <point x="98" y="-238" type="line"/>
      <point x="314" y="-238"/>
      <point x="407" y="-155"/>
      <point x="407" y="53" type="curve" smooth="yes"/>
      <point x="407" y="335" type="line" smooth="yes"/>
      <point x="407" y="465"/>
      <point x="413" y="614"/>
      <point x="531" y="614" type="curve" smooth="yes"/>
      <point x="590" y="614" type="line"/>
      <point x="590" y="764" type="line"/>
      <point x="531" y="764" type="line" smooth="yes"/>
      <point x="413" y="764"/>
      <point x="407" y="913"/>
      <point x="407" y="1043" type="curve" smooth="yes"/>
      <point x="407" y="1326" type="line" smooth="yes"/>
      <point x="407" y="1534"/>
      <point x="314" y="1616"/>
      <point x="98" y="1616" type="curve"/>
      <point x="98" y="1479" type="line"/>
      <point x="241" y="1479"/>
      <point x="246" y="1424"/>
      <point x="246" y="1223" type="curve" smooth="yes"/>
      <point x="246" y="988" type="line" smooth="yes"/>
      <point x="246" y="891"/>
      <point x="271" y="748"/>
    </contour>
  </outline>
</glyph>
<glyph name="asciitilde" format="1">
  <advance width="1410"/>
  <unicode hex="007E"/>
  <outline>
    <contour>
      <point x="481" y="760" type="curve" smooth="yes"/>
      <point x="628" y="760"/>
      <point x="843" y="587"/>
      <point x="936" y="587" type="curve" smooth="yes"/>
      <point x="1023" y="587"/>
      <point x="1085" y="681"/>
      <point x="1105" y="778" type="curve"/>
      <point x="1229" y="737" type="line"/>
      <point x="1193" y="565"/>
      <point x="1089" y="442"/>
      <point x="934" y="442" type="curve" smooth="yes"/>
      <point x="816" y="442"/>
      <point x="606" y="614"/>
      <point x="483" y="614" type="curve" smooth="yes"/>
      <point x="382" y="614"/>
      <point x="318" y="516"/>
      <point x="298" y="415" type="curve"/>
      <point x="184" y="474" type="line"/>
      <point x="214" y="622"/>
      <point x="318" y="760"/>
    </contour>
  </outline>
</glyph>
<glyph name="exclamdown" format="1">
  <advance width="497"/>
  <unicode hex="00A1"/>
  <outline>
    <contour>
      <point x="152" y="953" type="line"/>
      <point x="152" y="1174" type="line"/>
      <point x="341" y="1174" type="line"/>
      <point x="341" y="953" type="line"/>
    </contour>
    <contour>
      <point x="332" y="747" type="line"/>
      <point x="332" y="-415" type="line"/>
      <point x="196" y="-415" type="line"/>
      <point x="196" y="747" type="line"/>
    </contour>
  </outline>
</glyph>
<glyph name="cent" format="1">
  <advance width="1033"/>
  <unicode hex="00A2"/>
  <outline>
    <contour>
      <point x="547" y="1496" type="line"/>
      <point x="642" y="1496" type="line"/>
      <point x="642" y="0" type="line"/>
      <point x="547" y="0" type="line"/>
    </contour>
    <component base="c" yOffset="192"/>
  </outline>
</glyph>
<glyph name="sterling" format="1">
  <advance width="1165"/>
  <unicode hex="00A3"/>
  <outline>
    <contour>
      <point x="104" y="707" type="line"/>
      <point x="104" y="849" type="line"/>
      <point x="278" y="849" type="line"/>
      <point x="278" y="976" type="line" smooth="yes"/>
      <point x="278" y="1286"/>
      <point x="327" y="1586"/>
      <point x="717" y="1586" type="curve" smooth="yes"/>
      <point x="889" y="1586"/>
      <point x="996" y="1506"/>
      <point x="1059" y="1400" type="curve"/>
      <point x="976" y="1292" type="line"/>
      <point x="905" y="1374"/>
      <point x="828" y="1422"/>
      <point x="717" y="1422" type="curve" smooth="yes"/>
      <point x="521" y="1422"/>
      <point x="438" y="1283"/>
      <point x="438" y="1069" type="curve" smooth="yes"/>
      <point x="438" y="849" type="line"/>
      <point x="852" y="849" type="line"/>
      <point x="852" y="707" type="line"/>
      <point x="438" y="707" type="line"/>
      <point x="438" y="530" type="line" smooth="yes"/>
      <point x="438" y="389"/>
      <point x="429" y="241"/>
      <point x="343" y="152" type="curve"/>
      <point x="375" y="156"/>
      <point x="406" y="162"/>
      <point x="438" y="162" type="curve" smooth="yes"/>
      <point x="1052" y="162" type="line"/>
      <point x="1052" y="0" type="line"/>
      <point x="136" y="0" type="line"/>
      <point x="114" y="137" type="line"/>
      <point x="251" y="208"/>
      <point x="278" y="311"/>
      <point x="278" y="467" type="curve" smooth="yes"/>
      <point x="278" y="707" type="line"/>
    </contour>
  </outline>
</glyph>
<glyph name="currency" format="1">
  <advance width="1023"/>
  <unicode hex="00A4"/>
  <outline>
    <contour>
      <point x="516" y="1132" type="curve" smooth="yes"/>
      <point x="561" y="1132"/>
      <point x="603" y="1124"/>
      <point x="645" y="1114" type="curve"/>
      <point x="752" y="1400" type="line"/>
      <point x="795" y="1383" type="line"/>
      <point x="688" y="1096" type="line"/>
      <point x="828" y="1028"/>
      <point x="887" y="888"/>
      <point x="887" y="714" type="curve" smooth="yes"/>
      <point x="887" y="570"/>
      <point x="839" y="434"/>
      <point x="740" y="361" type="curve"/>
      <point x="883" y="59" type="line"/>
      <point x="851" y="44" type="line"/>
      <point x="703" y="339" type="line"/>
      <point x="646" y="309"/>
      <point x="584" y="294"/>
      <point x="510" y="294" type="curve" smooth="yes"/>
      <point x="468" y="294"/>
      <point x="429" y="302"/>
      <point x="395" y="310" type="curve"/>
      <point x="295" y="44" type="line"/>
      <point x="258" y="59" type="line"/>
      <point x="354" y="324" type="line"/>
      <point x="206" y="383"/>
      <point x="139" y="533"/>
      <point x="139" y="709" type="curve" smooth="yes"/>
      <point x="139" y="871"/>
      <point x="193" y="1014"/>
      <point x="314" y="1082" type="curve"/>
      <point x="168" y="1383" type="line"/>
      <point x="203" y="1400" type="line"/>
      <point x="354" y="1102" type="line"/>
      <point x="401" y="1121"/>
      <point x="456" y="1132"/>
    </contour>
    <contour>
      <point x="804" y="709" type="curve" smooth="yes"/>
      <point x="804" y="893"/>
      <point x="712" y="1055"/>
      <point x="510" y="1055" type="curve" smooth="yes"/>
      <point x="320" y="1055"/>
      <point x="219" y="889"/>
      <point x="219" y="709" type="curve" smooth="yes"/>
      <point x="219" y="529"/>
      <point x="320" y="371"/>
      <point x="516" y="371" type="curve" smooth="yes"/>
      <point x="710" y="371"/>
      <point x="804" y="531"/>
    </contour>
  </outline>
</glyph>
<glyph name="yen" format="1">
  <advance width="1099"/>
  <unicode hex="00A5"/>
  <outline>
    <contour>
      <point x="625" y="330" type="line"/>
      <point x="625" y="0" type="line"/>
      <point x="473" y="0" type="line"/>
      <point x="473" y="330" type="line"/>
      <point x="82" y="330" type="line"/>
      <point x="82" y="452" type="line"/>
      <point x="472" y="452" type="line"/>
      <point x="472" y="646" type="line"/>
      <point x="85" y="646" type="line"/>
      <point x="85" y="767" type="line"/>
      <point x="436" y="767" type="line"/>
      <point x="19" y="1496" type="line"/>
      <point x="198" y="1496" type="line"/>
      <point x="198" y="1496"/>
      <point x="550" y="875"/>
      <point x="550" y="875" type="curve"/>
      <point x="910" y="1496" type="line"/>
      <point x="1080" y="1496" type="line"/>
      <point x="650" y="767" type="line"/>
      <point x="999" y="767" type="line"/>
      <point x="999" y="646" type="line"/>
      <point x="624" y="646" type="line"/>
      <point x="624" y="452" type="line"/>
      <point x="1002" y="452" type="line"/>
      <point x="1002" y="330" type="line"/>
    </contour>
  </outline>
</glyph>
<glyph name="brokenbar" format="1">
  <advance width="449"/>
  <unicode hex="00A6"/>
  <outline>
    <contour>
      <point x="301" y="1603" type="line"/>
      <point x="301" y="964" type="line"/>
      <point x="151" y="964" type="line"/>
      <point x="151" y="1603" type="line"/>
    </contour>
    <contour>
      <point x="301" y="339" type="line"/>
      <point x="301" y="-301" type="line"/>
      <point x="151" y="-301" type="line"/>
      <point x="151" y="339" type="line"/>
    </contour>
  </outline>
</glyph>
<glyph name="section" format="1">
  <advance width="1059"/>
  <unicode hex="00A7"/>
  <outline>
    <contour>
      <point x="815" y="1563" type="curve"/>
      <point x="816" y="1405" type="line"/>
      <point x="755" y="1437"/>
      <point x="657" y="1460"/>
      <point x="596" y="1460" type="curve" smooth="yes"/>
      <point x="476" y="1460"/>
      <point x="384" y="1418"/>
      <point x="384" y="1314" type="curve" smooth="yes"/>
      <point x="384" y="1228"/>
      <point x="433" y="1177"/>
      <point x="598" y="1100" type="curve" smooth="yes"/>
      <point x="755" y="1025"/>
      <point x="890" y="946"/>
      <point x="890" y="794" type="curve" smooth="yes"/>
      <point x="890" y="675"/>
      <point x="804" y="581"/>
      <point x="709" y="517" type="curve"/>
      <point x="802" y="464"/>
      <point x="869" y="398"/>
      <point x="869" y="272" type="curve" smooth="yes"/>
      <point x="869" y="64"/>
      <point x="681" y="-50"/>
      <point x="472" y="-50" type="curve" smooth="yes"/>
      <point x="383" y="-50"/>
      <point x="290" y="-34"/>
      <point x="207" y="4" type="curve"/>
      <point x="207" y="166" type="line"/>
      <point x="302" y="118"/>
      <point x="388" y="95"/>
      <point x="467" y="95" type="curve" smooth="yes"/>
      <point x="614" y="95"/>
      <point x="701" y="169"/>
      <point x="701" y="262" type="curve" smooth="yes"/>
      <point x="701" y="357"/>
      <point x="625" y="388"/>
      <point x="494" y="450" type="curve" smooth="yes"/>
      <point x="411" y="490" type="line" smooth="yes"/>
      <point x="270" y="556"/>
      <point x="182" y="648"/>
      <point x="182" y="785" type="curve" smooth="yes"/>
      <point x="182" y="909"/>
      <point x="266" y="997"/>
      <point x="365" y="1050" type="curve"/>
      <point x="272" y="1114"/>
      <point x="217" y="1184"/>
      <point x="217" y="1310" type="curve" smooth="yes"/>
      <point x="217" y="1509"/>
      <point x="383" y="1608"/>
      <point x="590" y="1608" type="curve" smooth="yes"/>
      <point x="675" y="1608"/>
      <point x="736" y="1591"/>
    </contour>
    <contour>
      <point x="577" y="589" type="curve"/>
      <point x="640" y="633"/>
      <point x="717" y="692"/>
      <point x="717" y="778" type="curve" smooth="yes"/>
      <point x="717" y="904"/>
      <point x="566" y="934"/>
      <point x="483" y="980" type="curve"/>
      <point x="418" y="938"/>
      <point x="355" y="884"/>
      <point x="355" y="798" type="curve" smooth="yes"/>
      <point x="355" y="692"/>
      <point x="444" y="648"/>
    </contour>
  </outline>
</glyph>
<glyph name="dieresis" format="1">
  <advance width="727"/>
  <unicode hex="00A8"/>
  <outline>
    <contour>
      <point x="644" y="1259" type="line"/>
      <point x="472" y="1259" type="line"/>
      <point x="472" y="1436" type="line"/>
      <point x="644" y="1436" type="line"/>
    </contour>
    <contour>
      <point x="260" y="1259" type="line"/>
      <point x="89" y="1259" type="line"/>
      <point x="89" y="1436" type="line"/>
      <point x="260" y="1436" type="line"/>
    </contour>
  </outline>
</glyph>
<glyph name="copyright" format="1">
  <advance width="1841"/>
  <unicode hex="00A9"/>
  <outline>
    <contour>
      <point x="1220" y="496" type="curve"/>
      <point x="1260" y="366" type="line"/>
      <point x="1170" y="302"/>
      <point x="1062" y="270"/>
      <point x="939" y="270" type="curve" smooth="yes"/>
      <point x="649" y="270"/>
      <point x="464" y="499"/>
      <point x="464" y="785" type="curve" smooth="yes"/>
      <point x="464" y="1082"/>
      <point x="641" y="1301"/>
      <point x="949" y="1301" type="curve" smooth="yes"/>
      <point x="1068" y="1301"/>
      <point x="1171" y="1266"/>
      <point x="1257" y="1191" type="curve"/>
      <point x="1224" y="1061" type="line"/>
      <point x="1147" y="1129"/>
      <point x="1051" y="1162"/>
      <point x="944" y="1162" type="curve" smooth="yes"/>
      <point x="730" y="1162"/>
      <point x="600" y="997"/>
      <point x="600" y="789" type="curve" smooth="yes"/>
      <point x="600" y="577"/>
      <point x="726" y="411"/>
      <point x="973" y="411" type="curve" smooth="yes"/>
      <point x="1065" y="411"/>
      <point x="1152" y="437"/>
    </contour>
    <contour>
      <point x="223" y="783" type="curve" smooth="yes"/>
      <point x="223" y="393"/>
      <point x="524" y="93"/>
      <point x="910" y="93" type="curve" smooth="yes"/>
      <point x="1309" y="93"/>
      <point x="1614" y="396"/>
      <point x="1614" y="781" type="curve" smooth="yes"/>
      <point x="1614" y="1171"/>
      <point x="1306" y="1471"/>
      <point x="906" y="1471" type="curve" smooth="yes"/>
      <point x="524" y="1471"/>
      <point x="223" y="1170"/>
    </contour>
    <contour>
      <point x="913" y="-36" type="curve" smooth="yes"/>
      <point x="470" y="-36"/>
      <point x="114" y="333"/>
      <point x="114" y="781" type="curve" smooth="yes"/>
      <point x="114" y="1227"/>
      <point x="472" y="1596"/>
      <point x="906" y="1596" type="curve" smooth="yes"/>
      <point x="1369" y="1596"/>
      <point x="1726" y="1225"/>
      <point x="1726" y="781" type="curve" smooth="yes"/>
      <point x="1726" y="335"/>
      <point x="1370" y="-36"/>
    </contour>
  </outline>
</glyph>
<glyph name="ordfeminine" format="1">
  <advance width="807"/>
  <unicode hex="00AA"/>
  <outline>
    <contour>
      <point x="350" y="826" type="curve" smooth="yes"/>
      <point x="437" y="826"/>
      <point x="503" y="867"/>
      <point x="543" y="926" type="curve"/>
      <point x="546" y="847" type="line"/>
      <point x="664" y="847" type="line"/>
      <point x="659" y="938"/>
      <point x="658" y="968"/>
      <point x="658" y="982" type="curve" smooth="yes"/>
      <point x="660" y="1330" type="line"/>
      <point x="660" y="1517"/>
      <point x="549" y="1590"/>
      <point x="419" y="1590" type="curve" smooth="yes"/>
      <point x="309" y="1590"/>
      <point x="212" y="1550"/>
      <point x="167" y="1453" type="curve"/>
      <point x="228" y="1375" type="line"/>
      <point x="271" y="1457"/>
      <point x="340" y="1473"/>
      <point x="413" y="1473" type="curve" smooth="yes"/>
      <point x="516" y="1473"/>
      <point x="543" y="1433"/>
      <point x="543" y="1303" type="curve"/>
      <point x="478" y="1295"/>
      <point x="410" y="1294"/>
      <point x="343" y="1282" type="curve"/>
      <point x="220" y="1257"/>
      <point x="128" y="1174"/>
      <point x="128" y="1050" type="curve" smooth="yes"/>
      <point x="128" y="913"/>
      <point x="223" y="826"/>
    </contour>
    <contour>
      <point x="369" y="937" type="curve" smooth="yes"/>
      <point x="298" y="937"/>
      <point x="247" y="974"/>
      <point x="247" y="1053" type="curve" smooth="yes"/>
      <point x="247" y="1192"/>
      <point x="420" y="1165"/>
      <point x="543" y="1195" type="curve"/>
      <point x="543" y="1168" type="line"/>
      <point x="539" y="1047"/>
      <point x="487" y="937"/>
    </contour>
  </outline>
</glyph>
<glyph name="guillemotleft" format="1">
  <advance width="1117"/>
  <unicode hex="00AB"/>
  <outline>
    <contour>
      <point x="240" y="583" type="line"/>
      <point x="511" y="982" type="line"/>
      <point x="667" y="982" type="line"/>
      <point x="407" y="583" type="line"/>
      <point x="659" y="182" type="line"/>
      <point x="504" y="182" type="line"/>
    </contour>
    <contour>
      <point x="604" y="583" type="line"/>
      <point x="871" y="982" type="line"/>
      <point x="1024" y="982" type="line"/>
      <point x="768" y="583" type="line"/>
      <point x="1018" y="182" type="line"/>
      <point x="866" y="182" type="line"/>
    </contour>
  </outline>
</glyph>
<glyph name="logicalnot" format="1">
  <advance width="1280"/>
  <unicode hex="00AC"/>
  <outline>
    <contour>
      <point x="1136" y="256" type="line"/>
      <point x="1136" y="860" type="line"/>
      <point x="115" y="860" type="line"/>
      <point x="115" y="709" type="line"/>
      <point x="1003" y="709" type="line"/>
      <point x="1003" y="256" type="line"/>
    </contour>
  </outline>
</glyph>
<glyph name="uni00AD" format="1">
  <advance width="1234"/>
  <unicode hex="00AD"/>
  <outline>
    <contour>
      <point x="1111" y="0" type="line"/>
      <point x="133" y="0" type="line"/>
      <point x="133" y="148" type="line"/>
      <point x="1111" y="148" type="line"/>
    </contour>
  </outline>
</glyph>
<glyph name="registered" format="1">
  <advance width="1824"/>
  <unicode hex="00AE"/>
  <outline>
    <contour>
      <point x="1317" y="-26"/>
      <point x="1701" y="242"/>
      <point x="1701" y="781" type="curve" smooth="yes"/>
      <point x="1701" y="1316"/>
      <point x="1312" y="1586"/>
      <point x="897" y="1586" type="curve" smooth="yes"/>
      <point x="505" y="1586"/>
      <point x="117" y="1318"/>
      <point x="117" y="781" type="curve" smooth="yes"/>
      <point x="117" y="242"/>
      <point x="510" y="-26"/>
      <point x="902" y="-26" type="curve" smooth="yes"/>
    </contour>
    <contour>
      <point x="1588" y="387"/>
      <point x="1353" y="67"/>
      <point x="902" y="67" type="curve" smooth="yes"/>
      <point x="469" y="67"/>
      <point x="230" y="389"/>
      <point x="230" y="783" type="curve" smooth="yes"/>
      <point x="230" y="1169"/>
      <point x="468" y="1493"/>
      <point x="897" y="1493" type="curve" smooth="yes"/>
      <point x="1350" y="1493"/>
      <point x="1588" y="1168"/>
      <point x="1588" y="778" type="curve" smooth="yes"/>
    </contour>
    <contour>
      <point x="1141" y="871"/>
      <point x="1041" y="843"/>
      <point x="857" y="843" type="curve" smooth="yes"/>
      <point x="731" y="843" type="line"/>
      <point x="731" y="1149" type="line"/>
      <point x="847" y="1149" type="line" smooth="yes"/>
      <point x="1055" y="1149"/>
      <point x="1141" y="1131"/>
      <point x="1141" y="999" type="curve" smooth="yes"/>
    </contour>
    <contour>
      <point x="914" y="716" type="line"/>
      <point x="961" y="680"/>
      <point x="995" y="618"/>
      <point x="1046" y="525" type="curve" smooth="yes"/>
      <point x="1171" y="301" type="line"/>
      <point x="1320" y="301" type="line"/>
      <point x="1181" y="531"/>
      <point x="1132" y="662"/>
      <point x="1040" y="735" type="curve"/>
      <point x="1237" y="759"/>
      <point x="1300" y="877"/>
      <point x="1300" y="1007" type="curve" smooth="yes"/>
      <point x="1300" y="1184"/>
      <point x="1158" y="1277"/>
      <point x="857" y="1277" type="curve" smooth="yes"/>
      <point x="599" y="1277" type="line"/>
      <point x="599" y="301" type="line"/>
      <point x="731" y="301" type="line"/>
      <point x="731" y="716" type="line"/>
    </contour>
  </outline>
</glyph>
<glyph name="uni00AF" format="1">
  <advance width="1062"/>
  <unicode hex="00AF"/>
  <outline>
    <contour>
      <point x="933" y="1625" type="line"/>
      <point x="933" y="1486" type="line"/>
      <point x="133" y="1486" type="line"/>
      <point x="133" y="1625" type="line"/>
    </contour>
  </outline>
</glyph>
<glyph name="uni00AF" format="1">
  <advance width="821"/>
  <unicode hex="00AF"/>
  <outline>
    <contour>
      <point x="835" y="1625" type="line"/>
      <point x="835" y="1486" type="line"/>
      <point x="-2" y="1486" type="line"/>
      <point x="-2" y="1625" type="line"/>
    </contour>
  </outline>
</glyph>
<glyph name="degree" format="1">
  <advance width="815"/>
  <unicode hex="00B0"/>
  <outline>
    <contour>
      <point x="405" y="1430" type="curve" smooth="yes"/>
      <point x="304" y="1430"/>
      <point x="215" y="1347"/>
      <point x="215" y="1239" type="curve" smooth="yes"/>
      <point x="215" y="1131"/>
      <point x="300" y="1046"/>
      <point x="405" y="1046" type="curve" smooth="yes"/>
      <point x="510" y="1046"/>
      <point x="596" y="1131"/>
      <point x="596" y="1239" type="curve" smooth="yes"/>
      <point x="596" y="1347"/>
      <point x="508" y="1430"/>
    </contour>
    <contour>
      <point x="405" y="919" type="curve" smooth="yes"/>
      <point x="236" y="919"/>
      <point x="93" y="1065"/>
      <point x="93" y="1239" type="curve" smooth="yes"/>
      <point x="93" y="1413"/>
      <point x="236" y="1555"/>
      <point x="405" y="1555" type="curve" smooth="yes"/>
      <point x="576" y="1555"/>
      <point x="717" y="1413"/>
      <point x="717" y="1239" type="curve" smooth="yes"/>
      <point x="717" y="1065"/>
      <point x="574" y="919"/>
    </contour>
  </outline>
</glyph>
<glyph name="plusminus" format="1">
  <advance width="1410"/>
  <unicode hex="00B1"/>
  <outline>
    <contour>
      <point x="1221" y="0" type="line"/>
      <point x="196" y="0" type="line"/>
      <point x="196" y="148" type="line"/>
      <point x="1221" y="148" type="line"/>
    </contour>
    <contour>
      <point x="184" y="789" type="line"/>
      <point x="629" y="789" type="line"/>
      <point x="629" y="1193" type="line"/>
      <point x="776" y="1193" type="line"/>
      <point x="776" y="789" type="line"/>
      <point x="1217" y="789" type="line"/>
      <point x="1217" y="642" type="line"/>
      <point x="780" y="642" type="line"/>
      <point x="780" y="240" type="line"/>
      <point x="632" y="240" type="line"/>
      <point x="632" y="642" type="line"/>
      <point x="196" y="642" type="line"/>
    </contour>
  </outline>
</glyph>
<glyph name="twosuperior" format="1">
  <advance width="1149"/>
  <unicode hex="00B2"/>
  <outline>
    <contour>
      <point x="810" y="650" type="line"/>
      <point x="275" y="650" type="line"/>
      <point x="275" y="769" type="line"/>
      <point x="513" y="1009"/>
      <point x="686" y="1184"/>
      <point x="686" y="1303" type="curve" smooth="yes"/>
      <point x="686" y="1376"/>
      <point x="635" y="1424"/>
      <point x="548" y="1424" type="curve" smooth="yes"/>
      <point x="465" y="1424"/>
      <point x="405" y="1371"/>
      <point x="367" y="1282" type="curve"/>
      <point x="285" y="1367" type="line"/>
      <point x="329" y="1484"/>
      <point x="433" y="1551"/>
      <point x="556" y="1551" type="curve" smooth="yes"/>
      <point x="701" y="1551"/>
      <point x="812" y="1455"/>
      <point x="812" y="1305" type="curve" smooth="yes"/>
      <point x="812" y="1121"/>
      <point x="655" y="965"/>
      <point x="456" y="778" type="curve"/>
      <point x="810" y="778" type="line"/>
    </contour>
  </outline>
</glyph>
<glyph name="threesuperior" format="1">
  <advance width="756"/>
  <unicode hex="00B3"/>
  <outline>
    <contour>
      <point x="185" y="1339" type="curve"/>
      <point x="132" y="1442" type="line"/>
      <point x="185" y="1506"/>
      <point x="270" y="1553"/>
      <point x="354" y="1553" type="curve" smooth="yes"/>
      <point x="477" y="1553"/>
      <point x="593" y="1461"/>
      <point x="593" y="1305" type="curve" smooth="yes"/>
      <point x="593" y="1221"/>
      <point x="559" y="1152"/>
      <point x="498" y="1112" type="curve"/>
      <point x="569" y="1072"/>
      <point x="613" y="1003"/>
      <point x="613" y="899" type="curve" smooth="yes"/>
      <point x="613" y="733"/>
      <point x="493" y="631"/>
      <point x="350" y="631" type="curve" smooth="yes"/>
      <point x="266" y="631"/>
      <point x="189" y="667"/>
      <point x="132" y="735" type="curve"/>
      <point x="187" y="838" type="line"/>
      <point x="237" y="783"/>
      <point x="291" y="753"/>
      <point x="346" y="753" type="curve" smooth="yes"/>
      <point x="430" y="753"/>
      <point x="498" y="810"/>
      <point x="498" y="903" type="curve" smooth="yes"/>
      <point x="498" y="1009"/>
      <point x="426" y="1046"/>
      <point x="308" y="1046" type="curve" smooth="yes"/>
      <point x="260" y="1046" type="line"/>
      <point x="260" y="1174" type="line"/>
      <point x="304" y="1174" type="line" smooth="yes"/>
      <point x="405" y="1174"/>
      <point x="478" y="1206"/>
      <point x="478" y="1303" type="curve" smooth="yes"/>
      <point x="478" y="1387"/>
      <point x="425" y="1424"/>
      <point x="352" y="1424" type="curve" smooth="yes"/>
      <point x="289" y="1424"/>
      <point x="236" y="1389"/>
    </contour>
  </outline>
</glyph>
<glyph name="acute" format="1">
  <advance width="639"/>
  <unicode hex="00B4"/>
  <outline>
    <contour>
      <point x="380" y="1098" type="move" name="_top"/>
    </contour>
    <contour>
      <point x="631" y="1639" type="line"/>
      <point x="247" y="1251" type="line"/>
      <point x="128" y="1251" type="line"/>
      <point x="314" y="1639" type="line"/>
    </contour>
  </outline>
</glyph>
<glyph name="paragraph" format="1">
  <advance width="1172"/>
  <unicode hex="00B6"/>
  <outline>
    <contour>
      <point x="571" y="-158" type="line"/>
      <point x="432" y="-158" type="line"/>
      <point x="432" y="847" type="line"/>
      <point x="256" y="849"/>
      <point x="103" y="998"/>
      <point x="103" y="1218" type="curve" smooth="yes"/>
      <point x="103" y="1490"/>
      <point x="340" y="1561"/>
      <point x="610" y="1561" type="curve" smooth="yes"/>
      <point x="987" y="1561" type="line"/>
      <point x="987" y="1430" type="line"/>
      <point x="904" y="1430" type="line"/>
      <point x="904" y="-158" type="line"/>
      <point x="776" y="-158" type="line"/>
      <point x="776" y="1430" type="line"/>
      <point x="571" y="1430" type="line"/>
    </contour>
  </outline>
</glyph>
<glyph name="middot" format="1">
  <advance width="468"/>
  <unicode hex="00B7"/>
  <outline>
    <contour>
      <point x="332" y="778" type="line"/>
      <point x="332" y="551" type="line"/>
      <point x="140" y="551" type="line"/>
      <point x="140" y="778" type="line"/>
    </contour>
  </outline>
</glyph>
<glyph name="cedilla" format="1">
  <advance width="542"/>
  <unicode hex="00B8"/>
  <outline>
    <contour>
      <point x="50" y="-403" type="curve"/>
      <point x="59" y="-312" type="line"/>
      <point x="116" y="-326"/>
      <point x="167" y="-337"/>
      <point x="207" y="-337" type="curve" smooth="yes"/>
      <point x="290" y="-337"/>
      <point x="318" y="-306"/>
      <point x="318" y="-260" type="curve" smooth="yes"/>
      <point x="318" y="-203"/>
      <point x="274" y="-180"/>
      <point x="211" y="-180" type="curve" smooth="yes"/>
      <point x="205" y="-180"/>
      <point x="143" y="-184"/>
      <point x="143" y="-184" type="curve"/>
      <point x="174" y="16" type="line"/>
      <point x="270" y="16" type="line"/>
      <point x="254" y="-97" type="line"/>
      <point x="262" y="-97" type="line" smooth="yes"/>
      <point x="367" y="-97"/>
      <point x="458" y="-147"/>
      <point x="458" y="-257" type="curve" smooth="yes"/>
      <point x="458" y="-371"/>
      <point x="354" y="-425"/>
      <point x="221" y="-425" type="curve" smooth="yes"/>
      <point x="171" y="-425"/>
      <point x="109" y="-415"/>
    </contour>
  </outline>
</glyph>
<glyph name="onesuperior" format="1">
  <advance width="1149"/>
  <unicode hex="00B9"/>
  <outline>
    <contour>
      <point x="234" y="1294" type="curve"/>
      <point x="234" y="1436" type="line"/>
      <point x="302" y="1461"/>
      <point x="355" y="1487"/>
      <point x="399" y="1519" type="curve"/>
      <point x="502" y="1538" type="line"/>
      <point x="502" y="775" type="line"/>
      <point x="619" y="775" type="line"/>
      <point x="619" y="650" type="line"/>
      <point x="264" y="650" type="line"/>
      <point x="264" y="778" type="line"/>
      <point x="384" y="778" type="line"/>
      <point x="384" y="1179"/>
      <point x="382" y="1263"/>
      <point x="382" y="1369" type="curve"/>
      <point x="340" y="1344"/>
      <point x="284" y="1316"/>
    </contour>
  </outline>
</glyph>
<glyph name="ordmasculine" format="1">
  <advance width="795"/>
  <unicode hex="00BA"/>
  <outline>
    <contour>
      <point x="405" y="1590" type="curve" smooth="yes"/>
      <point x="632" y="1590"/>
      <point x="758" y="1419"/>
      <point x="758" y="1205" type="curve" smooth="yes"/>
      <point x="758" y="995"/>
      <point x="631" y="826"/>
      <point x="407" y="826" type="curve" smooth="yes"/>
      <point x="173" y="826"/>
      <point x="50" y="994"/>
      <point x="50" y="1210" type="curve" smooth="yes"/>
      <point x="50" y="1422"/>
      <point x="181" y="1590"/>
    </contour>
    <contour>
      <point x="188" y="1207" type="curve" smooth="yes"/>
      <point x="188" y="1059"/>
      <point x="262" y="941"/>
      <point x="407" y="941" type="curve" smooth="yes"/>
      <point x="546" y="941"/>
      <point x="621" y="1062"/>
      <point x="621" y="1203" type="curve" smooth="yes"/>
      <point x="621" y="1351"/>
      <point x="544" y="1473"/>
      <point x="403" y="1473" type="curve" smooth="yes"/>
      <point x="266" y="1473"/>
      <point x="188" y="1351"/>
    </contour>
  </outline>
</glyph>
<glyph name="guillemotright" format="1">
  <advance width="1117"/>
  <unicode hex="00BB"/>
  <outline>
    <contour>
      <point x="974" y="585" type="line"/>
      <point x="705" y="182" type="line"/>
      <point x="551" y="182" type="line"/>
      <point x="806" y="585" type="line"/>
      <point x="560" y="982" type="line"/>
      <point x="711" y="982" type="line"/>
    </contour>
    <contour>
      <point x="586" y="585" type="line"/>
      <point x="318" y="182" type="line"/>
      <point x="163" y="182" type="line"/>
      <point x="421" y="585" type="line"/>
      <point x="169" y="982" type="line"/>
      <point x="321" y="982" type="line"/>
    </contour>
  </outline>
</glyph>
<glyph name="onequarter" format="1">
  <advance width="1609"/>
  <unicode hex="00BC"/>
  <outline>
    <contour>
      <point x="120" y="1294" type="curve"/>
      <point x="120" y="1436" type="line"/>
      <point x="181" y="1461"/>
      <point x="228" y="1487"/>
      <point x="268" y="1519" type="curve"/>
      <point x="361" y="1538" type="line"/>
      <point x="361" y="775" type="line"/>
      <point x="473" y="775" type="line"/>
      <point x="473" y="650" type="line"/>
      <point x="147" y="650" type="line"/>
      <point x="147" y="778" type="line"/>
      <point x="255" y="778" type="line"/>
      <point x="255" y="1179"/>
      <point x="253" y="1263"/>
      <point x="253" y="1369" type="curve"/>
      <point x="215" y="1344"/>
      <point x="165" y="1316"/>
    </contour>
    <contour>
      <point x="1212" y="1547" type="line"/>
      <point x="1355" y="1547" type="line"/>
      <point x="425" y="0" type="line"/>
      <point x="293" y="0" type="line"/>
    </contour>
    <contour>
      <point x="1420" y="40" type="line"/>
      <point x="1313" y="40" type="line"/>
      <point x="1313" y="240" type="line"/>
      <point x="923" y="240" type="line"/>
      <point x="923" y="339" type="line"/>
      <point x="1302" y="899" type="line"/>
      <point x="1422" y="899" type="line"/>
      <point x="1422" y="358" type="line"/>
      <point x="1516" y="358" type="line"/>
      <point x="1526" y="240" type="line"/>
      <point x="1420" y="240" type="line"/>
    </contour>
    <contour>
      <point x="1066" y="358" type="line"/>
      <point x="1312" y="358" type="line"/>
      <point x="1312" y="608" type="line" smooth="yes"/>
      <point x="1312" y="660"/>
      <point x="1312" y="688"/>
      <point x="1313" y="716" type="curve"/>
    </contour>
  </outline>
</glyph>
<glyph name="onehalf" format="1">
  <advance width="1796"/>
  <unicode hex="00BD"/>
  <outline>
    <contour>
      <point x="234" y="1294" type="curve"/>
      <point x="234" y="1436" type="line"/>
      <point x="302" y="1461"/>
      <point x="355" y="1487"/>
      <point x="399" y="1519" type="curve"/>
      <point x="502" y="1538" type="line"/>
      <point x="502" y="775" type="line"/>
      <point x="619" y="775" type="line"/>
      <point x="619" y="650" type="line"/>
      <point x="264" y="650" type="line"/>
      <point x="264" y="778" type="line"/>
      <point x="384" y="778" type="line"/>
      <point x="384" y="1179"/>
      <point x="382" y="1263"/>
      <point x="382" y="1369" type="curve"/>
      <point x="340" y="1344"/>
      <point x="284" y="1316"/>
    </contour>
    <contour>
      <point x="1257" y="1547" type="line"/>
      <point x="1403" y="1547" type="line"/>
      <point x="519" y="0" type="line"/>
      <point x="371" y="0" type="line"/>
    </contour>
    <contour>
      <point x="1576" y="-30" type="line"/>
      <point x="1042" y="-30" type="line"/>
      <point x="1042" y="93" type="line"/>
      <point x="1280" y="333"/>
      <point x="1451" y="508"/>
      <point x="1451" y="627" type="curve" smooth="yes"/>
      <point x="1451" y="700"/>
      <point x="1401" y="745"/>
      <point x="1314" y="745" type="curve" smooth="yes"/>
      <point x="1231" y="745"/>
      <point x="1170" y="693"/>
      <point x="1132" y="604" type="curve"/>
      <point x="1048" y="689" type="line"/>
      <point x="1092" y="806"/>
      <point x="1195" y="872"/>
      <point x="1318" y="872" type="curve" smooth="yes"/>
      <point x="1463" y="872"/>
      <point x="1576" y="779"/>
      <point x="1576" y="629" type="curve" smooth="yes"/>
      <point x="1576" y="445"/>
      <point x="1418" y="286"/>
      <point x="1219" y="99" type="curve"/>
      <point x="1576" y="99" type="line"/>
    </contour>
  </outline>
</glyph>
<glyph name="threequarters" format="1">
  <advance width="1859"/>
  <unicode hex="00BE"/>
  <outline>
    <contour>
      <point x="229" y="1339" type="curve"/>
      <point x="174" y="1442" type="line"/>
      <point x="233" y="1506"/>
      <point x="328" y="1553"/>
      <point x="421" y="1553" type="curve" smooth="yes"/>
      <point x="558" y="1553"/>
      <point x="688" y="1461"/>
      <point x="688" y="1305" type="curve" smooth="yes"/>
      <point x="688" y="1221"/>
      <point x="650" y="1152"/>
      <point x="582" y="1112" type="curve"/>
      <point x="661" y="1072"/>
      <point x="707" y="1003"/>
      <point x="707" y="899" type="curve" smooth="yes"/>
      <point x="707" y="733"/>
      <point x="574" y="631"/>
      <point x="415" y="631" type="curve" smooth="yes"/>
      <point x="322" y="631"/>
      <point x="237" y="667"/>
      <point x="174" y="735" type="curve"/>
      <point x="232" y="838" type="line"/>
      <point x="287" y="783"/>
      <point x="348" y="753"/>
      <point x="409" y="753" type="curve" smooth="yes"/>
      <point x="502" y="753"/>
      <point x="579" y="810"/>
      <point x="579" y="903" type="curve" smooth="yes"/>
      <point x="579" y="1009"/>
      <point x="502" y="1046"/>
      <point x="371" y="1046" type="curve" smooth="yes"/>
      <point x="316" y="1046" type="line"/>
      <point x="316" y="1174" type="line"/>
      <point x="365" y="1174" type="line" smooth="yes"/>
      <point x="477" y="1174"/>
      <point x="558" y="1206"/>
      <point x="558" y="1303" type="curve" smooth="yes"/>
      <point x="558" y="1387"/>
      <point x="501" y="1424"/>
      <point x="420" y="1424" type="curve" smooth="yes"/>
      <point x="350" y="1424"/>
      <point x="286" y="1389"/>
    </contour>
    <contour>
      <point x="1300" y="1547" type="line"/>
      <point x="1445" y="1547" type="line"/>
      <point x="562" y="0" type="line"/>
      <point x="413" y="0" type="line"/>
    </contour>
    <contour>
      <point x="1498" y="44" type="line"/>
      <point x="1379" y="44" type="line"/>
      <point x="1379" y="245" type="line"/>
      <point x="1011" y="245" type="line"/>
      <point x="1011" y="343" type="line"/>
      <point x="1367" y="903" type="line"/>
      <point x="1500" y="903" type="line"/>
      <point x="1500" y="361" type="line"/>
      <point x="1606" y="361" type="line"/>
      <point x="1615" y="245" type="line"/>
      <point x="1498" y="245" type="line"/>
    </contour>
    <contour>
      <point x="1145" y="361" type="line"/>
      <point x="1377" y="361" type="line"/>
      <point x="1377" y="608"/>
      <point x="1377" y="664"/>
      <point x="1379" y="721" type="curve"/>
    </contour>
  </outline>
</glyph>
<glyph name="questiondown" format="1">
  <advance width="867"/>
  <unicode hex="00BF"/>
  <outline>
    <contour>
      <point x="725" y="207" type="curve"/>
      <point x="767" y="81" type="line"/>
      <point x="681" y="14"/>
      <point x="572" y="-25"/>
      <point x="466" y="-25" type="curve" smooth="yes"/>
      <point x="245" y="-25"/>
      <point x="86" y="92"/>
      <point x="86" y="310" type="curve" smooth="yes"/>
      <point x="86" y="628"/>
      <point x="430" y="660"/>
      <point x="430" y="917" type="curve" smooth="yes"/>
      <point x="430" y="1028" type="line"/>
      <point x="564" y="1028" type="line"/>
      <point x="564" y="1028"/>
      <point x="573" y="912"/>
      <point x="573" y="854" type="curve" smooth="yes"/>
      <point x="573" y="641"/>
      <point x="241" y="566"/>
      <point x="241" y="317" type="curve" smooth="yes"/>
      <point x="241" y="185"/>
      <point x="352" y="121"/>
      <point x="486" y="121" type="curve" smooth="yes"/>
      <point x="606" y="121"/>
      <point x="677" y="177"/>
    </contour>
    <contour>
      <point x="600" y="1464" type="line"/>
      <point x="600" y="1234" type="line"/>
      <point x="380" y="1234" type="line"/>
      <point x="380" y="1464" type="line"/>
    </contour>
  </outline>
</glyph>
<glyph name="Aacute" format="1">
  <advance width="1515"/>
  <unicode hex="00C1"/>
  <outline>
    <contour>
      <point x="1027" y="1947" type="line"/>
      <point x="816" y="1947" type="line"/>
      <point x="614" y="1611" type="line"/>
      <point x="743" y="1611" type="line"/>
    </contour>
    <contour>
      <point x="94" y="0" type="line"/>
      <point x="276" y="0" type="line"/>
      <point x="460" y="473" type="line"/>
      <point x="1070" y="473" type="line"/>
      <point x="1241" y="0" type="line"/>
      <point x="1423" y="0" type="line"/>
      <point x="880" y="1497" type="line"/>
      <point x="668" y="1497" type="line"/>
    </contour>
    <contour>
      <point x="1008" y="631" type="line"/>
      <point x="518" y="631" type="line"/>
      <point x="775" y="1294" type="line"/>
    </contour>
  </outline>
</glyph>
<glyph name="Acircumflex" format="1">
  <advance width="1515"/>
  <unicode hex="00C2"/>
  <outline>
    <contour>
      <point x="514" y="1611" type="line"/>
      <point x="625" y="1611" type="line"/>
      <point x="786" y="1843" type="line"/>
      <point x="947" y="1611" type="line"/>
      <point x="1061" y="1611" type="line"/>
      <point x="854" y="1959" type="line"/>
      <point x="721" y="1959" type="line"/>
    </contour>
    <contour>
      <point x="94" y="0" type="line"/>
      <point x="276" y="0" type="line"/>
      <point x="460" y="473" type="line"/>
      <point x="1070" y="473" type="line"/>
      <point x="1241" y="0" type="line"/>
      <point x="1423" y="0" type="line"/>
      <point x="880" y="1497" type="line"/>
      <point x="668" y="1497" type="line"/>
    </contour>
    <contour>
      <point x="1008" y="631" type="line"/>
      <point x="518" y="631" type="line"/>
      <point x="775" y="1294" type="line"/>
    </contour>
  </outline>
</glyph>
<glyph name="AE" format="1">
  <advance width="2101"/>
  <unicode hex="00C6"/>
  <outline>
    <contour>
      <point x="1078" y="1409" type="line"/>
      <point x="1139" y="589" type="line"/>
      <point x="573" y="589" type="line"/>
      <point x="1026" y="1409" type="line"/>
    </contour>
    <contour>
      <point x="94" y="0" type="line"/>
      <point x="267" y="0" type="line"/>
      <point x="489" y="427" type="line"/>
      <point x="1161" y="427" type="line"/>
      <point x="1192" y="0" type="line"/>
      <point x="1975" y="0" type="line"/>
      <point x="1975" y="158" type="line"/>
      <point x="1351" y="158" type="line"/>
      <point x="1309" y="724" type="line"/>
      <point x="1920" y="724" type="line"/>
      <point x="1920" y="882" type="line"/>
      <point x="1289" y="882" type="line"/>
      <point x="1250" y="1409" type="line"/>
      <point x="1955" y="1409" type="line"/>
      <point x="1955" y="1568" type="line"/>
      <point x="914" y="1568" type="line"/>
    </contour>
  </outline>
</glyph>
<glyph name="Ccedilla" format="1">
  <advance width="1362"/>
  <unicode hex="00C7"/>
  <outline>
    <contour>
      <point x="720" y="-427" type="line"/>
      <point x="773" y="-439"/>
      <point x="829" y="-449"/>
      <point x="874" y="-449" type="curve" smooth="yes"/>
      <point x="994" y="-449"/>
      <point x="1088" y="-395"/>
      <point x="1088" y="-281" type="curve" smooth="yes"/>
      <point x="1088" y="-171"/>
      <point x="1005" y="-121"/>
      <point x="911" y="-121" type="curve" smooth="yes"/>
      <point x="904" y="-121" type="line"/>
      <point x="918" y="-8" type="line"/>
      <point x="832" y="-8" type="line"/>
      <point x="804" y="-208" type="line"/>
      <point x="804" y="-208"/>
      <point x="860" y="-204"/>
      <point x="865" y="-204" type="curve" smooth="yes"/>
      <point x="922" y="-204"/>
      <point x="962" y="-227"/>
      <point x="962" y="-284" type="curve" smooth="yes"/>
      <point x="962" y="-330"/>
      <point x="937" y="-361"/>
      <point x="862" y="-361" type="curve" smooth="yes"/>
      <point x="826" y="-361"/>
      <point x="779" y="-350"/>
      <point x="728" y="-336" type="curve"/>
    </contour>
    <contour>
      <point x="130" y="745" type="curve" smooth="yes"/>
      <point x="130" y="334"/>
      <point x="353" y="-23"/>
      <point x="839" y="-23" type="curve" smooth="yes"/>
      <point x="1035" y="-23"/>
      <point x="1176" y="20"/>
      <point x="1277" y="107" type="curve"/>
      <point x="1219" y="253" type="line"/>
      <point x="1137" y="190"/>
      <point x="1007" y="143"/>
      <point x="857" y="143" type="curve" smooth="yes"/>
      <point x="479" y="143"/>
      <point x="319" y="432"/>
      <point x="319" y="745" type="curve" smooth="yes"/>
      <point x="319" y="1067"/>
      <point x="479" y="1359"/>
      <point x="857" y="1359" type="curve" smooth="yes"/>
      <point x="1007" y="1359"/>
      <point x="1136" y="1307"/>
      <point x="1218" y="1237" type="curve"/>
      <point x="1277" y="1394" type="line"/>
      <point x="1176" y="1481"/>
      <point x="1035" y="1525"/>
      <point x="839" y="1525" type="curve" smooth="yes"/>
      <point x="353" y="1525"/>
      <point x="130" y="1165"/>
    </contour>
  </outline>
</glyph>
<glyph name="Idieresis" format="1">
  <advance width="637"/>
  <unicode hex="00CF"/>
  <outline>
    <contour>
      <point x="601" y="1611" type="line"/>
      <point x="601" y="1788" type="line"/>
      <point x="446" y="1788" type="line"/>
      <point x="446" y="1611" type="line"/>
    </contour>
    <contour>
      <point x="256" y="1611" type="line"/>
      <point x="256" y="1788" type="line"/>
      <point x="102" y="1788" type="line"/>
      <point x="102" y="1611" type="line"/>
    </contour>
    <contour>
      <point x="353" y="1497" type="line"/>
      <point x="177" y="1497" type="line"/>
      <point x="177" y="0" type="line"/>
      <point x="353" y="0" type="line"/>
    </contour>
  </outline>
</glyph>
<glyph name="Eth" format="1">
  <advance width="1522"/>
  <unicode hex="00D0"/>
  <outline>
    <contour>
      <point x="29" y="697" type="line"/>
      <point x="29" y="832" type="line"/>
      <point x="566" y="832" type="line"/>
      <point x="566" y="697" type="line"/>
    </contour>
    <component base="D"/>
  </outline>
</glyph>
<glyph name="Eth" format="1">
  <advance width="1485"/>
  <unicode hex="00D0"/>
  <outline>
    <contour>
      <point x="188" y="0" type="line"/>
      <point x="188" y="707" type="line"/>
      <point x="0" y="707" type="line"/>
      <point x="0" y="856" type="line"/>
      <point x="188" y="856" type="line"/>
      <point x="188" y="1568" type="line"/>
      <point x="496" y="1568" type="line" smooth="yes"/>
      <point x="1007" y="1568"/>
      <point x="1399" y="1389"/>
      <point x="1399" y="781" type="curve" smooth="yes"/>
      <point x="1399" y="304"/>
      <point x="1102" y="0"/>
      <point x="598" y="0" type="curve" smooth="yes"/>
    </contour>
    <contour>
      <point x="560" y="707" type="line"/>
      <point x="357" y="707" type="line"/>
      <point x="357" y="158" type="line"/>
      <point x="612" y="158" type="line" smooth="yes"/>
      <point x="1027" y="158"/>
      <point x="1221" y="416"/>
      <point x="1221" y="775" type="curve" smooth="yes"/>
      <point x="1221" y="1247"/>
      <point x="980" y="1409"/>
      <point x="517" y="1409" type="curve" smooth="yes"/>
      <point x="357" y="1409" type="line"/>
      <point x="357" y="856" type="line"/>
      <point x="560" y="856" type="line"/>
    </contour>
  </outline>
</glyph>
<glyph name="Ograve" format="1">
  <advance width="1719"/>
  <unicode hex="00D2"/>
  <outline>
    <contour>
      <point x="891" y="1611" type="line"/>
      <point x="1022" y="1611" type="line"/>
      <point x="819" y="1947" type="line"/>
      <point x="608" y="1947" type="line"/>
    </contour>
    <contour>
      <point x="860" y="-23" type="curve" smooth="yes"/>
      <point x="1339" y="-23"/>
      <point x="1589" y="298"/>
      <point x="1589" y="746" type="curve" smooth="yes"/>
      <point x="1589" y="1221"/>
      <point x="1323" y="1525"/>
      <point x="860" y="1525" type="curve" smooth="yes"/>
      <point x="397" y="1525"/>
      <point x="130" y="1221"/>
      <point x="130" y="746" type="curve" smooth="yes"/>
      <point x="130" y="298"/>
      <point x="381" y="-23"/>
    </contour>
    <contour>
      <point x="860" y="1363" type="curve" smooth="yes"/>
      <point x="1221" y="1363"/>
      <point x="1400" y="1092"/>
      <point x="1400" y="746" type="curve" smooth="yes"/>
      <point x="1400" y="405"/>
      <point x="1223" y="139"/>
      <point x="860" y="139" type="curve" smooth="yes"/>
      <point x="497" y="139"/>
      <point x="319" y="405"/>
      <point x="319" y="746" type="curve" smooth="yes"/>
      <point x="319" y="1092"/>
      <point x="499" y="1363"/>
    </contour>
  </outline>
</glyph>
<glyph name="multiply" format="1">
  <advance width="1410"/>
  <unicode hex="00D7"/>
  <outline>
    <contour>
      <point x="1099" y="915" type="line"/>
      <point x="808" y="598" type="line"/>
      <point x="1099" y="278" type="line"/>
      <point x="996" y="166" type="line"/>
      <point x="707" y="486" type="line"/>
      <point x="415" y="166" type="line"/>
      <point x="314" y="276" type="line"/>
      <point x="606" y="598" type="line"/>
      <point x="314" y="917" type="line"/>
      <point x="415" y="1027" type="line"/>
      <point x="707" y="707" type="line"/>
      <point x="996" y="1027" type="line"/>
    </contour>
  </outline>
</glyph>
<glyph name="Oslash" format="1">
  <advance width="1717"/>
  <unicode hex="00D8"/>
  <outline>
    <contour>
      <point x="859" y="1489" type="line" smooth="yes"/>
    </contour>
    <contour>
      <point x="851" y="1409" type="curve" smooth="yes"/>
      <point x="490" y="1409"/>
      <point x="311" y="1133"/>
      <point x="311" y="785" type="curve" smooth="yes"/>
      <point x="311" y="540"/>
      <point x="395" y="331"/>
      <point x="566" y="227" type="curve"/>
      <point x="1032" y="1382" type="line"/>
      <point x="978" y="1400"/>
      <point x="918" y="1409"/>
    </contour>
    <contour>
      <point x="1178" y="1745" type="line"/>
      <point x="1309" y="1699" type="line"/>
      <point x="1227" y="1497" type="line"/>
      <point x="1456" y="1369"/>
      <point x="1581" y="1118"/>
      <point x="1581" y="778" type="curve" smooth="yes"/>
      <point x="1581" y="311"/>
      <point x="1331" y="-25"/>
      <point x="851" y="-25" type="curve" smooth="yes"/>
      <point x="766" y="-25"/>
      <point x="689" y="-15"/>
      <point x="619" y="5" type="curve"/>
      <point x="544" y="-180" type="line"/>
      <point x="419" y="-137" type="line"/>
      <point x="496" y="53" type="line"/>
      <point x="249" y="178"/>
      <point x="121" y="446"/>
      <point x="121" y="778" type="curve" smooth="yes"/>
      <point x="121" y="1270"/>
      <point x="388" y="1586"/>
      <point x="851" y="1586" type="curve" smooth="yes"/>
      <point x="941" y="1586"/>
      <point x="1024" y="1574"/>
      <point x="1100" y="1551" type="curve"/>
    </contour>
    <contour>
      <point x="688" y="173" type="line"/>
      <point x="737" y="159"/>
      <point x="791" y="152"/>
      <point x="851" y="152" type="curve" smooth="yes"/>
      <point x="1215" y="152"/>
      <point x="1390" y="429"/>
      <point x="1390" y="785" type="curve" smooth="yes"/>
      <point x="1390" y="1015"/>
      <point x="1312" y="1213"/>
      <point x="1155" y="1322" type="curve"/>
    </contour>
    <contour>
      <point x="859" y="1489" type="move" name="top"/>
    </contour>
  </outline>
</glyph>
<glyph name="Oslash" format="1">
  <advance width="1626"/>
  <unicode hex="00D8"/>
  <outline>
    <contour>
      <point x="1130" y="1745" type="line"/>
      <point x="1253" y="1699" type="line"/>
      <point x="533" y="-180" type="line"/>
      <point x="415" y="-137" type="line"/>
    </contour>
    <contour>
      <point x="822" y="-25" type="curve" smooth="yes"/>
      <point x="371" y="-25"/>
      <point x="103" y="311"/>
      <point x="103" y="778" type="curve" smooth="yes"/>
      <point x="103" y="1270"/>
      <point x="386" y="1586"/>
      <point x="822" y="1586" type="curve" smooth="yes"/>
      <point x="1258" y="1586"/>
      <point x="1542" y="1270"/>
      <point x="1542" y="778" type="curve" smooth="yes"/>
      <point x="1542" y="311"/>
      <point x="1273" y="-25"/>
    </contour>
    <contour>
      <point x="822" y="1409" type="curve" smooth="yes"/>
      <point x="482" y="1409"/>
      <point x="314" y="1133"/>
      <point x="314" y="785" type="curve" smooth="yes"/>
      <point x="314" y="429"/>
      <point x="480" y="152"/>
      <point x="822" y="152" type="curve" smooth="yes"/>
      <point x="1164" y="152"/>
      <point x="1330" y="429"/>
      <point x="1330" y="785" type="curve" smooth="yes"/>
      <point x="1330" y="1133"/>
      <point x="1162" y="1409"/>
    </contour>
  </outline>
</glyph>
<glyph name="Thorn" format="1">
  <advance width="1291"/>
  <unicode hex="00DE"/>
  <outline>
    <contour>
      <point x="147" y="0" type="line"/>
      <point x="147" y="1496" type="line"/>
      <point x="324" y="1496" type="line"/>
      <point x="324" y="1217" type="line"/>
      <point x="648" y="1217" type="line" smooth="yes"/>
      <point x="1008" y="1217"/>
      <point x="1209" y="1107"/>
      <point x="1209" y="791" type="curve" smooth="yes"/>
      <point x="1209" y="525"/>
      <point x="1066" y="342"/>
      <point x="719" y="342" type="curve" smooth="yes"/>
      <point x="711" y="342"/>
      <point x="324" y="349"/>
      <point x="324" y="349" type="curve"/>
      <point x="324" y="0" type="line"/>
    </contour>
    <contour>
      <point x="324" y="1068" type="line"/>
      <point x="324" y="493" type="line"/>
      <point x="324" y="493"/>
      <point x="706" y="493"/>
      <point x="708" y="493" type="curve" smooth="yes"/>
      <point x="956" y="493"/>
      <point x="1040" y="615"/>
      <point x="1040" y="782" type="curve" smooth="yes"/>
      <point x="1040.0" y="979.010152023"/>
      <point x="940.789598359" y="1068.0"/>
      <point x="666" y="1068" type="curve" smooth="yes"/>
    </contour>
  </outline>
</glyph>
<glyph name="Thorn" format="1">
  <advance width="1338"/>
  <unicode hex="00DE"/>
  <outline>
    <contour>
      <point x="159" y="0" type="line"/>
      <point x="324" y="0" type="line"/>
      <point x="324" y="373" type="line"/>
      <point x="671" y="373" type="line" smooth="yes"/>
      <point x="1005" y="373"/>
      <point x="1209" y="557"/>
      <point x="1209" y="829" type="curve" smooth="yes"/>
      <point x="1209" y="1145"/>
      <point x="990" y="1285"/>
      <point x="645" y="1285" type="curve" smooth="yes"/>
      <point x="324" y="1285" type="line"/>
      <point x="324" y="1557" type="line"/>
      <point x="159" y="1557" type="line"/>
    </contour>
    <contour>
      <point x="324" y="1116" type="line"/>
      <point x="663" y="1116" type="line" smooth="yes"/>
      <point x="895" y="1116"/>
      <point x="1040" y="1021"/>
      <point x="1040" y="826" type="curve" smooth="yes"/>
      <point x="1040" y="658"/>
      <point x="906" y="538"/>
      <point x="690" y="538" type="curve" smooth="yes"/>
      <point x="324" y="538" type="line"/>
    </contour>
  </outline>
</glyph>
<glyph name="germandbls" format="1">
  <advance width="1336"/>
  <unicode hex="00DF"/>
  <outline>
    <contour>
      <point x="805" y="137" type="curve" smooth="yes"/>
      <point x="936" y="137"/>
      <point x="1012" y="224"/>
      <point x="1012" y="343" type="curve" smooth="yes"/>
      <point x="1012" y="518"/>
      <point x="756" y="628"/>
      <point x="625" y="716" type="curve" smooth="yes"/>
      <point x="578" y="748"/>
      <point x="543" y="786"/>
      <point x="543" y="833" type="curve" smooth="yes"/>
      <point x="543" y="868"/>
      <point x="561" y="906"/>
      <point x="608" y="945" type="curve" smooth="yes"/>
      <point x="707" y="1026"/>
      <point x="833" y="1106"/>
      <point x="833" y="1243" type="curve" smooth="yes"/>
      <point x="833" y="1364"/>
      <point x="725" y="1430"/>
      <point x="602" y="1430" type="curve" smooth="yes"/>
      <point x="398" y="1430"/>
      <point x="326" y="1276"/>
      <point x="326" y="1086" type="curve" smooth="yes"/>
      <point x="326" y="0" type="line"/>
      <point x="152" y="0" type="line"/>
      <point x="152" y="1107" type="line" smooth="yes"/>
      <point x="152" y="1404"/>
      <point x="294" y="1586"/>
      <point x="602" y="1586" type="curve" smooth="yes"/>
      <point x="852" y="1586"/>
      <point x="1034" y="1459"/>
      <point x="1034" y="1243" type="curve" smooth="yes"/>
      <point x="1034" y="1053"/>
      <point x="849" y="932"/>
      <point x="741" y="849" type="curve"/>
      <point x="912" y="738"/>
      <point x="1200" y="605"/>
      <point x="1200" y="348" type="curve" smooth="yes"/>
      <point x="1200" y="94"/>
      <point x="1036" y="-28"/>
      <point x="820" y="-28" type="curve" smooth="yes"/>
      <point x="711" y="-28"/>
      <point x="564" y="7"/>
      <point x="477" y="75" type="curve"/>
      <point x="498" y="123"/>
      <point x="522" y="174"/>
      <point x="543" y="222" type="curve"/>
      <point x="623" y="174"/>
      <point x="717" y="137"/>
    </contour>
  </outline>
</glyph>
<glyph name="adieresis" format="1">
  <advance width="1115"/>
  <unicode hex="00E4"/>
  <outline>
    <contour>
      <point x="824" y="1246" type="line"/>
      <point x="824" y="1423" type="line"/>
      <point x="669" y="1423" type="line"/>
      <point x="669" y="1246" type="line"/>
    </contour>
    <contour>
      <point x="479" y="1246" type="line"/>
      <point x="479" y="1423" type="line"/>
      <point x="325" y="1423" type="line"/>
      <point x="325" y="1246" type="line"/>
    </contour>
    <contour>
      <point x="830" y="0" type="line"/>
      <point x="954" y="0" type="line"/>
      <point x="954" y="806" type="line" smooth="yes"/>
      <point x="954" y="1051"/>
      <point x="784" y="1124"/>
      <point x="567" y="1124" type="curve" smooth="yes"/>
      <point x="417" y="1124"/>
      <point x="260" y="1082"/>
      <point x="179" y="1036" type="curve"/>
      <point x="213" y="882" type="line"/>
      <point x="303" y="940"/>
      <point x="435" y="976"/>
      <point x="571" y="976" type="curve" smooth="yes"/>
      <point x="711" y="976"/>
      <point x="785" y="914"/>
      <point x="785" y="781" type="curve" smooth="yes"/>
      <point x="785" y="617" type="line"/>
      <point x="465" y="591"/>
      <point x="116" y="631"/>
      <point x="116" y="292" type="curve" smooth="yes"/>
      <point x="116" y="89"/>
      <point x="253" y="-25"/>
      <point x="424" y="-25" type="curve" smooth="yes"/>
      <point x="527" y="-25"/>
      <point x="636" y="-2"/>
      <point x="810" y="62" type="curve"/>
    </contour>
    <contour>
      <point x="785" y="184" type="line"/>
      <point x="658" y="146"/>
      <point x="572" y="119"/>
      <point x="445" y="119" type="curve" smooth="yes"/>
      <point x="357" y="119"/>
      <point x="284" y="184"/>
      <point x="284" y="301" type="curve" smooth="yes"/>
      <point x="284" y="474"/>
      <point x="397" y="480"/>
      <point x="785" y="500" type="curve"/>
    </contour>
  </outline>
</glyph>
<glyph name="ae" format="1">
  <advance width="1846"/>
  <unicode hex="00E6"/>
  <outline>
    <contour>
      <point x="262" y="822" type="curve"/>
      <point x="182" y="921" type="line"/>
      <point x="249" y="1071"/>
      <point x="398" y="1134"/>
      <point x="583" y="1134" type="curve" smooth="yes"/>
      <point x="710" y="1134"/>
      <point x="878" y="1067"/>
      <point x="909" y="921" type="curve"/>
      <point x="978" y="1062"/>
      <point x="1115" y="1134"/>
      <point x="1265" y="1134" type="curve" smooth="yes"/>
      <point x="1595" y="1134"/>
      <point x="1721" y="902"/>
      <point x="1721" y="563" type="curve" smooth="yes"/>
      <point x="1721" y="517" type="line"/>
      <point x="964" y="517" type="line"/>
      <point x="964" y="498" type="line" smooth="yes"/>
      <point x="964" y="306"/>
      <point x="1022" y="121"/>
      <point x="1228" y="121" type="curve" smooth="yes"/>
      <point x="1348" y="121"/>
      <point x="1456" y="195"/>
      <point x="1523" y="316" type="curve"/>
      <point x="1600" y="222" type="line"/>
      <point x="1520" y="58"/>
      <point x="1390" y="-28"/>
      <point x="1219" y="-28" type="curve" smooth="yes"/>
      <point x="1076" y="-28"/>
      <point x="951" y="59"/>
      <point x="886" y="212" type="curve"/>
      <point x="809" y="64"/>
      <point x="656" y="-32"/>
      <point x="472" y="-32" type="curve" smooth="yes"/>
      <point x="256" y="-32"/>
      <point x="126" y="97"/>
      <point x="126" y="305" type="curve" smooth="yes"/>
      <point x="126" y="640"/>
      <point x="439" y="661"/>
      <point x="813" y="661" type="curve"/>
      <point x="813" y="678" type="line" smooth="yes"/>
      <point x="813" y="844"/>
      <point x="750" y="988"/>
      <point x="571" y="988" type="curve" smooth="yes"/>
      <point x="440" y="988"/>
      <point x="328" y="943"/>
    </contour>
    <contour>
      <point x="814" y="517" type="curve"/>
      <point x="666" y="511" type="line"/>
      <point x="462" y="507"/>
      <point x="274" y="490"/>
      <point x="274" y="314" type="curve" smooth="yes"/>
      <point x="274" y="173"/>
      <point x="384" y="117"/>
      <point x="507" y="117" type="curve" smooth="yes"/>
      <point x="748" y="117"/>
      <point x="814" y="307"/>
    </contour>
    <contour>
      <point x="967" y="663" type="curve"/>
      <point x="1571" y="663" type="line"/>
      <point x="1571" y="675" type="line"/>
      <point x="1554" y="859"/>
      <point x="1470" y="988"/>
      <point x="1285" y="988" type="curve" smooth="yes"/>
      <point x="1095" y="988"/>
      <point x="980" y="835"/>
    </contour>
  </outline>
</glyph>
<glyph name="iacute" format="1">
  <advance width="592"/>
  <unicode hex="00ED"/>
  <outline>
    <contour>
      <point x="303" y="1098" type="line"/>
      <point x="159" y="1098" type="line"/>
      <point x="159" y="0" type="line"/>
      <point x="303" y="0" type="line"/>
    </contour>
    <contour>
      <point x="568" y="1582" type="line"/>
      <point x="357" y="1582" type="line"/>
      <point x="155" y="1246" type="line"/>
      <point x="284" y="1246" type="line"/>
    </contour>
  </outline>
</glyph>
<glyph name="icircumflex" format="1">
  <advance width="694"/>
  <unicode hex="00EE"/>
  <outline>
    <contour>
      <point x="341" y="1098" type="line"/>
      <point x="197" y="1098" type="line"/>
      <point x="197" y="0" type="line"/>
      <point x="341" y="0" type="line"/>
    </contour>
    <contour>
      <point x="93" y="1246" type="line"/>
      <point x="204" y="1246" type="line"/>
      <point x="365" y="1478" type="line"/>
      <point x="526" y="1246" type="line"/>
      <point x="640" y="1246" type="line"/>
      <point x="433" y="1594" type="line"/>
      <point x="300" y="1594" type="line"/>
    </contour>
  </outline>
</glyph>
<glyph name="idieresis" format="1">
  <advance width="674"/>
  <unicode hex="00EF"/>
  <outline>
    <contour>
      <point x="360" y="1098" type="line"/>
      <point x="216" y="1098" type="line"/>
      <point x="216" y="0" type="line"/>
      <point x="360" y="0" type="line"/>
    </contour>
    <contour>
      <point x="594" y="1246" type="line"/>
      <point x="594" y="1423" type="line"/>
      <point x="439" y="1423" type="line"/>
      <point x="439" y="1246" type="line"/>
    </contour>
    <contour>
      <point x="249" y="1246" type="line"/>
      <point x="249" y="1423" type="line"/>
      <point x="95" y="1423" type="line"/>
      <point x="95" y="1246" type="line"/>
    </contour>
  </outline>
</glyph>
<glyph name="eth" format="1">
  <advance width="1204"/>
  <unicode hex="00F0"/>
  <outline>
    <contour>
      <point x="87" y="777"/>
      <point x="279" y="972"/>
      <point x="569" y="972" type="curve" smooth="yes"/>
      <point x="700" y="972"/>
      <point x="787" y="919"/>
      <point x="844" y="877" type="curve"/>
      <point x="798" y="964"/>
      <point x="700" y="1096"/>
      <point x="541" y="1257" type="curve"/>
      <point x="269" y="1145" type="line"/>
      <point x="226" y="1277" type="line"/>
      <point x="446" y="1364" type="line"/>
      <point x="210" y="1588" type="line"/>
      <point x="433" y="1588" type="line"/>
      <point x="601" y="1431" type="line"/>
      <point x="868" y="1542" type="line"/>
      <point x="914" y="1413" type="line"/>
      <point x="694" y="1322" type="line"/>
      <point x="987" y="980"/>
      <point x="1117" y="773"/>
      <point x="1117" y="492" type="curve" smooth="yes"/>
      <point x="1117" y="199"/>
      <point x="943" y="-25"/>
      <point x="603" y="-25" type="curve" smooth="yes"/>
      <point x="271" y="-25"/>
      <point x="87" y="212"/>
      <point x="87" y="486" type="curve" smooth="yes"/>
    </contour>
    <contour>
      <point x="945" y="653"/>
      <point x="825" y="833"/>
      <point x="603" y="833" type="curve" smooth="yes"/>
      <point x="391" y="833"/>
      <point x="269" y="675"/>
      <point x="269" y="485" type="curve" smooth="yes"/>
      <point x="269" y="294"/>
      <point x="382" y="114"/>
      <point x="609" y="114" type="curve" smooth="yes"/>
      <point x="825" y="114"/>
      <point x="945" y="271"/>
      <point x="945" y="472" type="curve" smooth="yes"/>
    </contour>
  </outline>
</glyph>
<glyph name="divide" format="1">
  <advance width="1211"/>
  <unicode hex="00F7"/>
  <outline>
    <contour>
      <point x="1098" y="523" type="line"/>
      <point x="97" y="523" type="line"/>
      <point x="97" y="672" type="line"/>
      <point x="1098" y="672" type="line"/>
    </contour>
    <contour>
      <point x="716" y="1166" type="line"/>
      <point x="716" y="939" type="line"/>
      <point x="491" y="939" type="line"/>
      <point x="491" y="1166" type="line"/>
    </contour>
    <contour>
      <point x="682" y="249" type="line"/>
      <point x="682" y="22" type="line"/>
      <point x="491" y="22" type="line"/>
      <point x="491" y="249" type="line"/>
    </contour>
  </outline>
</glyph>
<glyph name="oslash" format="1">
  <advance width="1200"/>
  <unicode hex="00F8"/>
  <outline>
    <contour>
      <point x="899" y="1367" type="line"/>
      <point x="976" y="1336" type="line"/>
      <point x="291" y="-275" type="line"/>
      <point x="220" y="-237" type="line"/>
    </contour>
    <component base="o"/>
  </outline>
</glyph>
<glyph name="thorn" format="1">
  <advance width="1293"/>
  <unicode hex="00FE"/>
  <outline>
    <contour>
      <point x="333" y="-459" type="line"/>
      <point x="162" y="-459" type="line"/>
      <point x="162" y="1322" type="line" smooth="yes"/>
      <point x="162" y="1338"/>
      <point x="159" y="1406"/>
      <point x="159" y="1474" type="curve"/>
      <point x="157" y="1603" type="line"/>
      <point x="333" y="1603" type="line"/>
      <point x="333" y="953" type="line"/>
      <point x="421" y="1066"/>
      <point x="539" y="1124"/>
      <point x="692" y="1124" type="curve" smooth="yes"/>
      <point x="1021" y="1124"/>
      <point x="1158" y="855"/>
      <point x="1158" y="538" type="curve" smooth="yes"/>
      <point x="1158" y="246"/>
      <point x="1044" y="-25"/>
      <point x="712" y="-25" type="curve" smooth="yes"/>
      <point x="555" y="-25"/>
      <point x="420" y="35"/>
      <point x="333" y="162" type="curve"/>
    </contour>
    <contour>
      <point x="329" y="551" type="curve" smooth="yes"/>
      <point x="329" y="321"/>
      <point x="431" y="139"/>
      <point x="672" y="139" type="curve" smooth="yes"/>
      <point x="908" y="139"/>
      <point x="985" y="359"/>
      <point x="985" y="551" type="curve" smooth="yes"/>
      <point x="985" y="743"/>
      <point x="908" y="964"/>
      <point x="672" y="964" type="curve" smooth="yes"/>
      <point x="431" y="964"/>
      <point x="329" y="781"/>
    </contour>
  </outline>
</glyph>
<glyph name="Amacron" format="1">
  <advance width="1514"/>
  <unicode hex="0100"/>
  <outline>
    <contour>
      <point x="1295" y="1750" type="line"/>
      <point x="495" y="1750" type="line"/>
      <point x="495" y="1611" type="line"/>
      <point x="1295" y="1611" type="line"/>
    </contour>
    <contour>
      <point x="142" y="0" type="line"/>
      <point x="324" y="0" type="line"/>
      <point x="508" y="473" type="line"/>
      <point x="1118" y="473" type="line"/>
      <point x="1289" y="0" type="line"/>
      <point x="1471" y="0" type="line"/>
      <point x="928" y="1497" type="line"/>
      <point x="716" y="1497" type="line"/>
    </contour>
    <contour>
      <point x="1056" y="631" type="line"/>
      <point x="566" y="631" type="line"/>
      <point x="823" y="1294" type="line"/>
    </contour>
  </outline>
</glyph>
<glyph name="Cacute" format="1">
  <advance width="1372"/>
  <unicode hex="0106"/>
  <outline>
    <contour>
      <point x="1153" y="1947" type="line"/>
      <point x="942" y="1947" type="line"/>
      <point x="740" y="1611" type="line"/>
      <point x="869" y="1611" type="line"/>
    </contour>
    <contour>
      <point x="140" y="745" type="curve" smooth="yes"/>
      <point x="140" y="334"/>
      <point x="363" y="-23"/>
      <point x="849" y="-23" type="curve" smooth="yes"/>
      <point x="1045" y="-23"/>
      <point x="1186" y="20"/>
      <point x="1287" y="107" type="curve"/>
      <point x="1229" y="253" type="line"/>
      <point x="1147" y="190"/>
      <point x="1017" y="143"/>
      <point x="867" y="143" type="curve" smooth="yes"/>
      <point x="489" y="143"/>
      <point x="329" y="432"/>
      <point x="329" y="745" type="curve" smooth="yes"/>
      <point x="329" y="1067"/>
      <point x="489" y="1359"/>
      <point x="867" y="1359" type="curve" smooth="yes"/>
      <point x="1017" y="1359"/>
      <point x="1146" y="1307"/>
      <point x="1228" y="1237" type="curve"/>
      <point x="1287" y="1394" type="line"/>
      <point x="1186" y="1481"/>
      <point x="1045" y="1525"/>
      <point x="849" y="1525" type="curve" smooth="yes"/>
      <point x="363" y="1525"/>
      <point x="140" y="1165"/>
    </contour>
  </outline>
</glyph>
<glyph name="Gcedilla" format="1">
  <advance width="1488"/>
  <unicode hex="0122"/>
  <outline>
    <contour>
      <point x="776" y="-643" type="line"/>
      <point x="893" y="-643" type="line"/>
      <point x="1036" y="-145" type="line"/>
      <point x="870" y="-145" type="line"/>
    </contour>
    <contour>
      <point x="141" y="745" type="curve" smooth="yes"/>
      <point x="141" y="334"/>
      <point x="365" y="-23"/>
      <point x="851" y="-23" type="curve" smooth="yes"/>
      <point x="1041" y="-23"/>
      <point x="1205" y="30"/>
      <point x="1361" y="131" type="curve"/>
      <point x="1361" y="764" type="line"/>
      <point x="837" y="764" type="line"/>
      <point x="837" y="615" type="line"/>
      <point x="1207" y="615" type="line"/>
      <point x="1207" y="234" type="line"/>
      <point x="1113" y="179"/>
      <point x="995" y="139"/>
      <point x="870" y="139" type="curve" smooth="yes"/>
      <point x="492" y="139"/>
      <point x="330" y="430"/>
      <point x="330" y="745" type="curve" smooth="yes"/>
      <point x="330" y="1069"/>
      <point x="492" y="1363"/>
      <point x="870" y="1363" type="curve" smooth="yes"/>
      <point x="1020" y="1363"/>
      <point x="1176" y="1309"/>
      <point x="1263" y="1237" type="curve"/>
      <point x="1321" y="1394" type="line"/>
      <point x="1220" y="1481"/>
      <point x="1048" y="1525"/>
      <point x="851" y="1525" type="curve" smooth="yes"/>
      <point x="365" y="1525"/>
      <point x="141" y="1165"/>
    </contour>
  </outline>
</glyph>
<glyph name="gcedilla" format="1">
  <advance width="1268"/>
  <unicode hex="0123"/>
  <outline>
    <contour>
      <point x="939" y="563" type="curve" smooth="yes"/>
      <point x="939" y="785"/>
      <point x="838" y="964"/>
      <point x="597" y="964" type="curve" smooth="yes"/>
      <point x="361" y="964"/>
      <point x="282" y="750"/>
      <point x="282" y="563" type="curve" smooth="yes"/>
      <point x="282" y="376"/>
      <point x="361" y="166"/>
      <point x="597" y="166" type="curve" smooth="yes"/>
      <point x="838" y="166"/>
      <point x="939" y="341"/>
    </contour>
    <contour>
      <point x="357" y="-432" type="line"/>
      <point x="357" y="-268" type="line"/>
      <point x="513" y="-268" type="line"/>
      <point x="939" y="-266"/>
      <point x="941" y="-117"/>
      <point x="941" y="119" type="curve" smooth="yes"/>
      <point x="941" y="184" type="line"/>
      <point x="867" y="67"/>
      <point x="749" y="0"/>
      <point x="567" y="0" type="curve" smooth="yes"/>
      <point x="240" y="0"/>
      <point x="111" y="294"/>
      <point x="111" y="554" type="curve" smooth="yes"/>
      <point x="111" y="866"/>
      <point x="250" y="1124"/>
      <point x="580" y="1124" type="curve" smooth="yes"/>
      <point x="732" y="1124"/>
      <point x="850" y="1065"/>
      <point x="938" y="953" type="curve"/>
      <point x="939" y="1098" type="line"/>
      <point x="1115" y="1098" type="line"/>
      <point x="1115" y="1098"/>
      <point x="1107" y="846"/>
      <point x="1107" y="816" type="curve" smooth="yes"/>
      <point x="1107" y="135" type="line" smooth="yes"/>
      <point x="1107" y="-133"/>
      <point x="1086" y="-432"/>
      <point x="507" y="-432" type="curve" smooth="yes"/>
    </contour>
    <contour>
      <point x="793" y="1749" type="line"/>
      <point x="683" y="1250" type="line"/>
      <point x="488" y="1250" type="line"/>
      <point x="653" y="1749" type="line"/>
    </contour>
  </outline>
</glyph>
<glyph name="hbar" format="1">
  <advance width="1269"/>
  <unicode hex="0127"/>
  <outline>
    <contour>
      <point x="403" y="719" type="curve"/>
      <point x="403" y="0" type="line"/>
      <point x="234" y="0" type="line"/>
      <point x="234" y="1601" type="line"/>
      <point x="403" y="1601" type="line"/>
      <point x="403" y="945" type="line"/>
      <point x="493" y="1071"/>
      <point x="616" y="1124"/>
      <point x="769" y="1124" type="curve" smooth="yes"/>
      <point x="1013" y="1124"/>
      <point x="1120" y="958"/>
      <point x="1120" y="657" type="curve" smooth="yes"/>
      <point x="1120" y="0" type="line"/>
      <point x="951" y="0" type="line"/>
      <point x="951" y="551" type="line" smooth="yes"/>
      <point x="951" y="827"/>
      <point x="918" y="964"/>
      <point x="733" y="964" type="curve" smooth="yes"/>
      <point x="567" y="964"/>
      <point x="430" y="823"/>
    </contour>
    <contour>
      <point x="623" y="1275" type="line"/>
      <point x="86" y="1275" type="line"/>
      <point x="86" y="1418" type="line"/>
      <point x="623" y="1418" type="line"/>
    </contour>
  </outline>
</glyph>
<glyph name="Itilde" format="1">
  <advance width="774"/>
  <unicode hex="0128"/>
  <outline>
    <contour>
      <point x="125" y="1624" type="curve"/>
      <point x="232" y="1624" type="line"/>
      <point x="234" y="1679"/>
      <point x="252" y="1725"/>
      <point x="305" y="1725" type="curve" smooth="yes"/>
      <point x="373" y="1725"/>
      <point x="468" y="1611"/>
      <point x="561" y="1611" type="curve" smooth="yes"/>
      <point x="686" y="1611"/>
      <point x="744" y="1723"/>
      <point x="748" y="1855" type="curve"/>
      <point x="639" y="1855" type="line"/>
      <point x="637" y="1809"/>
      <point x="623" y="1752"/>
      <point x="573" y="1752" type="curve" smooth="yes"/>
      <point x="487" y="1752"/>
      <point x="423" y="1867"/>
      <point x="315" y="1867" type="curve" smooth="yes"/>
      <point x="190" y="1867"/>
      <point x="129" y="1761"/>
    </contour>
    <contour>
      <point x="353" y="1497" type="line"/>
      <point x="177" y="1497" type="line"/>
      <point x="177" y="0" type="line"/>
      <point x="353" y="0" type="line"/>
    </contour>
  </outline>
</glyph>
<glyph name="dotlessi" format="1">
  <advance width="479.0"/>
  <unicode hex="0131"/>
  <outline>
    <contour>
      <point x="324.0" y="1098.0" type="line"/>
      <point x="324.0" y="0.0" type="line"/>
      <point x="155.0" y="0.0" type="line"/>
      <point x="155.0" y="1098.0" type="line"/>
    </contour>
    <contour>
      <point x="223" y="1098" type="move" name="top"/>
    </contour>
    <contour>
      <point x="401" y="10" type="move" name="ogonek"/>
    </contour>
  </outline>
</glyph>
<glyph name="IJ" format="1">
  <advance width="1464"/>
  <unicode hex="0132"/>
  <outline>
    <contour>
      <point x="334" y="1557" type="line"/>
      <point x="334" y="0" type="line"/>
      <point x="155" y="0" type="line"/>
      <point x="155" y="1557" type="line"/>
    </contour>
    <contour>
      <point x="1133" y="409" type="curve" smooth="yes"/>
      <point x="1133" y="1557" type="line"/>
      <point x="1309" y="1557" type="line"/>
      <point x="1309" y="461" type="line" smooth="yes"/>
      <point x="1309" y="133"/>
      <point x="1277" y="-28"/>
      <point x="887" y="-28" type="curve" smooth="yes"/>
      <point x="854" y="-28" type="line"/>
      <point x="854" y="139" type="line"/>
      <point x="907" y="139" type="line"/>
      <point x="1121" y="145"/>
      <point x="1133" y="251"/>
    </contour>
  </outline>
</glyph>
<glyph name="ij" format="1">
  <advance width="976"/>
  <unicode hex="0133"/>
  <outline>
    <contour>
      <point x="325" y="1098" type="line"/>
      <point x="155" y="1098" type="line"/>
      <point x="155" y="0" type="line"/>
      <point x="325" y="0" type="line"/>
    </contour>
    <contour>
      <point x="325" y="1557" type="line"/>
      <point x="155" y="1557" type="line"/>
      <point x="155" y="1359" type="line"/>
      <point x="325" y="1359" type="line"/>
    </contour>
    <contour>
      <point x="817" y="1098" type="line"/>
      <point x="647" y="1098" type="line"/>
      <point x="647" y="126" type="line" smooth="yes"/>
      <point x="647" y="-32"/>
      <point x="644" y="-116"/>
      <point x="445" y="-141" type="curve"/>
      <point x="437" y="-141" type="line"/>
      <point x="437" y="-310" type="line"/>
      <point x="445" y="-308" type="line"/>
      <point x="793" y="-262"/>
      <point x="817" y="-148"/>
      <point x="817" y="180" type="curve" smooth="yes"/>
    </contour>
    <contour>
      <point x="817" y="1557" type="line"/>
      <point x="647" y="1557" type="line"/>
      <point x="647" y="1359" type="line"/>
      <point x="817" y="1359" type="line"/>
    </contour>
  </outline>
</glyph>
<glyph name="kgreenlandic" format="1">
  <advance width="1104"/>
  <unicode hex="0138"/>
  <outline>
    <contour>
      <point x="147" y="1105" type="line"/>
      <point x="147" y="0" type="line"/>
      <point x="293" y="0" type="line"/>
      <point x="293" y="506" type="line"/>
      <point x="823" y="0" type="line"/>
      <point x="1014" y="0" type="line"/>
      <point x="848" y="182"/>
      <point x="654" y="369"/>
      <point x="458" y="551" type="curve"/>
      <point x="981" y="1105" type="line"/>
      <point x="776" y="1105" type="line"/>
      <point x="293" y="600" type="line"/>
      <point x="293" y="1105" type="line"/>
    </contour>
  </outline>
</glyph>
<glyph name="Lslash" format="1">
  <advance width="960"/>
  <unicode hex="0141"/>
  <outline>
    <contour>
      <point x="0" y="527" type="line"/>
      <point x="0" y="675" type="line"/>
      <point x="675" y="1045" type="line"/>
      <point x="675" y="889" type="line"/>
    </contour>
    <component base="L"/>
  </outline>
</glyph>
<glyph name="Lslash" format="1">
  <advance width="1081"/>
  <unicode hex="0141"/>
  <outline>
    <contour>
      <point x="1050" y="158" type="line"/>
      <point x="1050" y="0" type="line"/>
      <point x="199" y="0" type="line"/>
      <point x="199" y="650" type="line"/>
      <point x="14" y="527" type="line"/>
      <point x="14" y="675" type="line"/>
      <point x="199" y="798" type="line"/>
      <point x="199" y="1568" type="line"/>
      <point x="365" y="1568" type="line"/>
      <point x="365" y="915" type="line"/>
      <point x="646" y="1105" type="line"/>
      <point x="646" y="959" type="line"/>
      <point x="365" y="768" type="line"/>
      <point x="365" y="158" type="line"/>
    </contour>
  </outline>
</glyph>
<glyph name="lslash" format="1">
  <advance width="668"/>
  <unicode hex="0142"/>
  <outline>
    <contour>
      <point x="255" y="1608" type="line"/>
      <point x="397" y="1608" type="line"/>
      <point x="397" y="997" type="line"/>
      <point x="551" y="1105" type="line"/>
      <point x="551" y="959" type="line"/>
      <point x="397" y="849" type="line"/>
      <point x="397" y="0" type="line"/>
      <point x="255" y="0" type="line"/>
      <point x="255" y="741" type="line"/>
      <point x="107" y="636" type="line"/>
      <point x="107" y="781" type="line"/>
      <point x="255" y="889" type="line"/>
    </contour>
  </outline>
</glyph>
<glyph name="Eng" format="1">
  <advance width="1420"/>
  <unicode hex="014A"/>
  <outline>
    <contour>
      <point x="839" y="-328" type="curve" smooth="yes"/>
      <point x="1200" y="-328"/>
      <point x="1269" y="-143"/>
      <point x="1269" y="165" type="curve" smooth="yes"/>
      <point x="1269" y="1009" type="line" smooth="yes"/>
      <point x="1269" y="1341"/>
      <point x="1128" y="1520"/>
      <point x="857" y="1520" type="curve" smooth="yes"/>
      <point x="683" y="1520"/>
      <point x="503" y="1480"/>
      <point x="322" y="1284" type="curve"/>
      <point x="304" y="1496" type="line"/>
      <point x="144" y="1496" type="line"/>
      <point x="144" y="1496"/>
      <point x="146" y="0"/>
      <point x="146" y="0" type="curve"/>
      <point x="322" y="0" type="line"/>
      <point x="322" y="1089" type="line"/>
      <point x="417" y="1232"/>
      <point x="586" y="1358"/>
      <point x="804" y="1358" type="curve" smooth="yes"/>
      <point x="1020" y="1358"/>
      <point x="1094" y="1269"/>
      <point x="1094" y="1003" type="curve" smooth="yes"/>
      <point x="1094" y="171" type="line" smooth="yes"/>
      <point x="1094" y="-101"/>
      <point x="1071" y="-175"/>
      <point x="794" y="-175" type="curve" smooth="yes"/>
      <point x="773" y="-175"/>
      <point x="752" y="-174"/>
      <point x="616" y="-166" type="curve"/>
      <point x="639" y="-314" type="line"/>
      <point x="761" y="-326"/>
      <point x="811" y="-328"/>
    </contour>
  </outline>
</glyph>
<glyph name="Eng" format="1">
  <advance width="1420"/>
  <unicode hex="014A"/>
  <outline>
    <contour>
      <point x="707" y="1520" type="curve" smooth="yes"/>
      <point x="1142" y="1520"/>
      <point x="1269" y="1288"/>
      <point x="1269" y="956" type="curve" smooth="yes"/>
      <point x="1269" y="0" type="line"/>
      <point x="1094" y="0" type="line"/>
      <point x="1094" y="950" type="line" smooth="yes"/>
      <point x="1094" y="1241"/>
      <point x="977" y="1354"/>
      <point x="707" y="1354" type="curve" smooth="yes"/>
      <point x="437" y="1354"/>
      <point x="322" y="1241"/>
      <point x="322" y="950" type="curve" smooth="yes"/>
      <point x="322" y="0" type="line"/>
      <point x="146" y="0" type="line"/>
      <point x="146" y="956" type="line" smooth="yes"/>
      <point x="146" y="1288"/>
      <point x="272" y="1520"/>
    </contour>
  </outline>
</glyph>
<glyph name="eng" format="1">
  <advance width="1194"/>
  <unicode hex="014B"/>
  <outline>
    <contour>
      <point x="697" y="1124" type="curve" smooth="yes"/>
      <point x="938" y="1124"/>
      <point x="1043" y="965"/>
      <point x="1043" y="657" type="curve" smooth="yes"/>
      <point x="1043" y="180" type="line" smooth="yes"/>
      <point x="1043" y="-147"/>
      <point x="1020" y="-263"/>
      <point x="703" y="-308" type="curve"/>
      <point x="696" y="-310" type="line"/>
      <point x="696" y="-141" type="line"/>
      <point x="703" y="-141" type="line"/>
      <point x="873" y="-117"/>
      <point x="875" y="-30"/>
      <point x="875" y="126" type="curve" smooth="yes"/>
      <point x="875" y="551" type="line" smooth="yes"/>
      <point x="875" y="836"/>
      <point x="864" y="971"/>
      <point x="661" y="971" type="curve" smooth="yes"/>
      <point x="477" y="971"/>
      <point x="345" y="830"/>
      <point x="318" y="731" type="curve"/>
      <point x="318" y="0" type="line"/>
      <point x="150" y="0" type="line"/>
      <point x="150" y="831" type="line"/>
      <point x="147" y="1098" type="line"/>
      <point x="301" y="1098" type="line"/>
      <point x="313" y="945" type="line"/>
      <point x="398" y="1062"/>
      <point x="545" y="1124"/>
    </contour>
  </outline>
</glyph>
<glyph name="OE" format="1">
  <advance width="1980.0"/>
  <unicode hex="0152"/>
  <outline>
    <contour>
      <point x="1898.0" y="156.0" type="line"/>
      <point x="1883.0" y="0.0" type="line"/>
      <point x="1148.0" y="0.0" type="line"/>
      <point x="1148.0" y="72.0" type="line"/>
      <point x="1105.0" y="26.0"/>
      <point x="959.0" y="-23.0"/>
      <point x="842.0" y="-23.0" type="curve" smooth="yes"/>
      <point x="367.0" y="-23.0"/>
      <point x="101.0" y="284.0"/>
      <point x="101.0" y="756.0" type="curve" smooth="yes"/>
      <point x="101.0" y="766.0"/>
      <point x="101.0" y="775.0"/>
      <point x="101.0" y="785.0" type="curve" smooth="yes"/>
      <point x="111.0" y="1221.0"/>
      <point x="398.0" y="1524.0"/>
      <point x="800.0" y="1524.0" type="curve" smooth="yes"/>
      <point x="948.0" y="1524.0"/>
      <point x="1073.0" y="1478.0"/>
      <point x="1148.0" y="1413.0" type="curve"/>
      <point x="1148.0" y="1495.0" type="line"/>
      <point x="1874.0" y="1495.0" type="line"/>
      <point x="1857.0" y="1341.0" type="line"/>
      <point x="1325.0" y="1341.0" type="line"/>
      <point x="1325.0" y="845.0" type="line"/>
      <point x="1821.0" y="845.0" type="line"/>
      <point x="1821.0" y="692.0" type="line"/>
      <point x="1325.0" y="692.0" type="line"/>
      <point x="1325.0" y="156.0" type="line"/>
    </contour>
    <contour>
      <point x="845.0" y="129.0"/>
      <point x="846.0" y="129.0"/>
      <point x="848.0" y="129.0" type="curve" smooth="yes"/>
      <point x="986.0" y="129.0"/>
      <point x="1100.0" y="193.0"/>
      <point x="1148.0" y="222.0" type="curve"/>
      <point x="1148.0" y="1259.0" type="line"/>
      <point x="1071.0" y="1322.0"/>
      <point x="955.0" y="1373.0"/>
      <point x="815.0" y="1373.0" type="curve" smooth="yes"/>
      <point x="491.0" y="1373.0"/>
      <point x="299.0" y="1131.0"/>
      <point x="291.0" y="783.0" type="curve" smooth="yes"/>
      <point x="291.0" y="774.0"/>
      <point x="291.0" y="766.0"/>
      <point x="291.0" y="757.0" type="curve" smooth="yes"/>
      <point x="291.0" y="402.0"/>
      <point x="453.0" y="133.0"/>
      <point x="844.0" y="129.0" type="curve" smooth="yes"/>
    </contour>
  </outline>
</glyph>
<glyph name="OE" format="1">
  <advance width="2032"/>
  <unicode hex="0152"/>
  <outline>
    <contour>
      <point x="1912" y="158" type="line"/>
      <point x="1329" y="158" type="line"/>
      <point x="1329" y="724" type="line"/>
      <point x="1850" y="724" type="line"/>
      <point x="1850" y="882" type="line"/>
      <point x="1329" y="882" type="line"/>
      <point x="1329" y="1409" type="line"/>
      <point x="1886" y="1409" type="line"/>
      <point x="1886" y="1568" type="line"/>
      <point x="1177" y="1568" type="line"/>
      <point x="1177" y="1486" type="line"/>
      <point x="1083" y="1557"/>
      <point x="975" y="1596"/>
      <point x="853" y="1596" type="curve" smooth="yes"/>
      <point x="381" y="1596"/>
      <point x="130" y="1254"/>
      <point x="130" y="785" type="curve" smooth="yes"/>
      <point x="130" y="291"/>
      <point x="381" y="-25"/>
      <point x="844" y="-25" type="curve" smooth="yes"/>
      <point x="969" y="-25"/>
      <point x="1080" y="23"/>
      <point x="1177" y="112" type="curve"/>
      <point x="1177" y="0" type="line"/>
      <point x="1912" y="0" type="line"/>
    </contour>
    <contour>
      <point x="843" y="135" type="curve" smooth="yes"/>
      <point x="480" y="135"/>
      <point x="293" y="420"/>
      <point x="293" y="781" type="curve" smooth="yes"/>
      <point x="293" y="1129"/>
      <point x="483" y="1438"/>
      <point x="844" y="1438" type="curve" smooth="yes"/>
      <point x="983" y="1438"/>
      <point x="1091" y="1391"/>
      <point x="1177" y="1312" type="curve"/>
      <point x="1177" y="284" type="line"/>
      <point x="1091" y="189"/>
      <point x="982" y="135"/>
    </contour>
  </outline>
</glyph>
<glyph name="oe" format="1">
  <advance width="1999"/>
  <unicode hex="0153"/>
  <outline>
    <contour>
      <point x="1723" y="290" type="line"/>
      <point x="1668" y="195"/>
      <point x="1574" y="137"/>
      <point x="1466" y="137" type="curve" smooth="yes"/>
      <point x="1295" y="137"/>
      <point x="1182" y="287"/>
      <point x="1169" y="511" type="curve"/>
      <point x="1854" y="511" type="line"/>
      <point x="1854" y="530"/>
      <point x="1856" y="560"/>
      <point x="1856" y="576" type="curve" smooth="yes"/>
      <point x="1856" y="917"/>
      <point x="1689" y="1124"/>
      <point x="1460" y="1124" type="curve" smooth="yes"/>
      <point x="1302" y="1124"/>
      <point x="1167" y="1039"/>
      <point x="1085" y="895" type="curve"/>
      <point x="1007" y="1034"/>
      <point x="862" y="1124"/>
      <point x="648" y="1124" type="curve" smooth="yes"/>
      <point x="283" y="1124"/>
      <point x="112" y="861"/>
      <point x="112" y="547" type="curve" smooth="yes"/>
      <point x="112" y="233"/>
      <point x="279" y="-25"/>
      <point x="644" y="-25" type="curve" smooth="yes"/>
      <point x="852" y="-25"/>
      <point x="1005" y="70"/>
      <point x="1085" y="214" type="curve"/>
      <point x="1167" y="68"/>
      <point x="1297" y="-25"/>
      <point x="1453" y="-25" type="curve" smooth="yes"/>
      <point x="1607" y="-25"/>
      <point x="1743" y="25"/>
      <point x="1827" y="178" type="curve"/>
    </contour>
    <contour>
      <point x="995" y="547" type="curve" smooth="yes"/>
      <point x="995" y="333"/>
      <point x="886" y="137"/>
      <point x="648" y="137" type="curve" smooth="yes"/>
      <point x="407" y="137"/>
      <point x="286" y="330"/>
      <point x="286" y="544" type="curve" smooth="yes"/>
      <point x="286" y="758"/>
      <point x="409" y="961"/>
      <point x="644" y="961" type="curve" smooth="yes"/>
      <point x="891" y="961"/>
      <point x="995" y="769"/>
    </contour>
    <contour>
      <point x="1462" y="966" type="curve" smooth="yes"/>
      <point x="1594" y="966"/>
      <point x="1680" y="843"/>
      <point x="1691" y="646" type="curve"/>
      <point x="1176" y="646" type="line"/>
      <point x="1199" y="845"/>
      <point x="1314" y="966"/>
    </contour>
  </outline>
</glyph>
<glyph name="Tcommaaccent" format="1">
  <advance width="1166"/>
  <unicode hex="0162"/>
  <outline>
    <contour>
      <point x="516" y="-404" type="line"/>
      <point x="569" y="-416"/>
      <point x="625" y="-426"/>
      <point x="670" y="-426" type="curve" smooth="yes"/>
      <point x="790" y="-426"/>
      <point x="884" y="-372"/>
      <point x="884" y="-258" type="curve" smooth="yes"/>
      <point x="884" y="-148"/>
      <point x="801" y="-98"/>
      <point x="707" y="-98" type="curve" smooth="yes"/>
      <point x="700" y="-98" type="line"/>
      <point x="714" y="15" type="line"/>
      <point x="628" y="15" type="line"/>
      <point x="600" y="-185" type="line"/>
      <point x="600" y="-185"/>
      <point x="656" y="-181"/>
      <point x="661" y="-181" type="curve" smooth="yes"/>
      <point x="718" y="-181"/>
      <point x="758" y="-204"/>
      <point x="758" y="-261" type="curve" smooth="yes"/>
      <point x="758" y="-307"/>
      <point x="733" y="-338"/>
      <point x="658" y="-338" type="curve" smooth="yes"/>
      <point x="622" y="-338"/>
      <point x="575" y="-327"/>
      <point x="524" y="-313" type="curve"/>
    </contour>
    <contour>
      <point x="137" y="1341" type="line"/>
      <point x="564" y="1341" type="line"/>
      <point x="564" y="0" type="line"/>
      <point x="740" y="0" type="line"/>
      <point x="740" y="1341" type="line"/>
      <point x="1169" y="1341" type="line"/>
      <point x="1169" y="1497" type="line"/>
      <point x="137" y="1497" type="line"/>
    </contour>
  </outline>
</glyph>
<glyph name="tcommaaccent" format="1">
  <advance width="911"/>
  <unicode hex="0163"/>
  <outline>
    <contour>
      <point x="51" y="973" type="line"/>
      <point x="216" y="973" type="line"/>
      <point x="216" y="483" type="line" smooth="yes"/>
      <point x="216" y="135"/>
      <point x="232" y="-11"/>
      <point x="658" y="-11" type="curve" smooth="yes"/>
      <point x="682" y="-11" type="line"/>
      <point x="682" y="133" type="line"/>
      <point x="638" y="133" type="line" smooth="yes"/>
      <point x="384" y="133"/>
      <point x="385" y="242"/>
      <point x="385" y="429" type="curve" smooth="yes"/>
      <point x="385" y="973" type="line"/>
      <point x="671" y="973" type="line"/>
      <point x="671" y="1098" type="line"/>
      <point x="385" y="1098" type="line"/>
      <point x="385" y="1462" type="line"/>
      <point x="216" y="1402" type="line"/>
      <point x="216" y="1098" type="line"/>
      <point x="51" y="1098" type="line"/>
    </contour>
    <contour>
      <point x="525" y="-415" type="line"/>
      <point x="578" y="-427"/>
      <point x="634" y="-437"/>
      <point x="679" y="-437" type="curve" smooth="yes"/>
      <point x="799" y="-437"/>
      <point x="893" y="-383"/>
      <point x="893" y="-269" type="curve" smooth="yes"/>
      <point x="893" y="-159"/>
      <point x="810" y="-109"/>
      <point x="716" y="-109" type="curve" smooth="yes"/>
      <point x="709" y="-109" type="line"/>
      <point x="723" y="4" type="line"/>
      <point x="637" y="4" type="line"/>
      <point x="609" y="-196" type="line"/>
      <point x="609" y="-196"/>
      <point x="665" y="-192"/>
      <point x="670" y="-192" type="curve" smooth="yes"/>
      <point x="727" y="-192"/>
      <point x="767" y="-215"/>
      <point x="767" y="-272" type="curve" smooth="yes"/>
      <point x="767" y="-318"/>
      <point x="742" y="-349"/>
      <point x="667" y="-349" type="curve" smooth="yes"/>
      <point x="631" y="-349"/>
      <point x="584" y="-338"/>
      <point x="533" y="-324" type="curve"/>
    </contour>
  </outline>
</glyph>
<glyph name="tbar" format="1">
  <advance width="677"/>
  <unicode hex="0167"/>
  <outline>
    <contour>
      <point x="38" y="638" type="line"/>
      <point x="38" y="764" type="line"/>
      <point x="570" y="764" type="line"/>
      <point x="570" y="638" type="line"/>
    </contour>
    <component base="t"/>
  </outline>
</glyph>
<glyph name="Ydieresis" format="1">
  <advance width="1366"/>
  <unicode hex="0178"/>
  <outline>
    <contour>
      <point x="915" y="1611" type="line"/>
      <point x="915" y="1788" type="line"/>
      <point x="760" y="1788" type="line"/>
      <point x="760" y="1611" type="line"/>
    </contour>
    <contour>
      <point x="570" y="1611" type="line"/>
      <point x="570" y="1788" type="line"/>
      <point x="416" y="1788" type="line"/>
      <point x="416" y="1611" type="line"/>
    </contour>
    <contour>
      <point x="1305" y="1497" type="line"/>
      <point x="1113" y="1497" type="line"/>
      <point x="678" y="778" type="line"/>
      <point x="249" y="1497" type="line"/>
      <point x="61" y="1497" type="line"/>
      <point x="572" y="614" type="line"/>
      <point x="572" y="0" type="line"/>
      <point x="749" y="0" type="line"/>
      <point x="749" y="614" type="line"/>
    </contour>
  </outline>
</glyph>
<glyph name="zacute" format="1">
  <advance width="956"/>
  <unicode hex="017A"/>
  <outline>
    <contour>
      <point x="611" y="945" type="line"/>
      <point x="132" y="139" type="line"/>
      <point x="132" y="0" type="line"/>
      <point x="823" y="0" type="line"/>
      <point x="823" y="153" type="line"/>
      <point x="326" y="153" type="line"/>
      <point x="809" y="964" type="line"/>
      <point x="809" y="1098" type="line"/>
      <point x="146" y="1098" type="line"/>
      <point x="146" y="945" type="line"/>
    </contour>
    <contour>
      <point x="748" y="1582" type="line"/>
      <point x="537" y="1582" type="line"/>
      <point x="335" y="1246" type="line"/>
      <point x="464" y="1246" type="line"/>
    </contour>
  </outline>
</glyph>
<glyph name="uni018F" format="1">
  <advance width="1432"/>
  <unicode hex="018F"/>
  <outline>
    <contour>
      <point x="661.404" y="-23.123" type="curve" smooth="yes"/>
      <point x="1054.59" y="-23.123"/>
      <point x="1322" y="309.261"/>
      <point x="1322" y="757" type="curve" smooth="yes"/>
      <point x="1322" y="1180"/>
      <point x="1076" y="1525"/>
      <point x="606" y="1525" type="curve" smooth="yes"/>
      <point x="401.197" y="1525"/>
      <point x="278.8" y="1479.2"/>
      <point x="151" y="1384" type="curve"/>
      <point x="218" y="1250" type="line"/>
      <point x="318.8" y="1316.2"/>
      <point x="435.733" y="1373"/>
      <point x="592" y="1373" type="curve" smooth="yes"/>
      <point x="977.205" y="1373"/>
      <point x="1126.31" y="1086.24"/>
      <point x="1132.78" y="777.2" type="curve"/>
      <point x="43.7998" y="777.2" type="line" smooth="yes"/>
      <point x="43.8572" y="777.2"/>
      <point x="36.7998" y="686.2"/>
      <point x="36.7998" y="641.2" type="curve"/>
      <point x="51.282" y="337.432"/>
      <point x="211.64" y="-23.123"/>
    </contour>
    <contour>
      <point x="1124.73" y="631.2" type="line"/>
      <point x="1091.69" y="350.92"/>
      <point x="928.749" y="128.963"/>
      <point x="664.867" y="128.963" type="curve" smooth="yes"/>
      <point x="307.404" y="128.963"/>
      <point x="231.705" y="417.489"/>
      <point x="217.359" y="631.2" type="curve"/>
    </contour>
  </outline>
</glyph>
<glyph name="florin" format="1">
  <advance width="978"/>
  <unicode hex="0192"/>
  <outline>
    <contour>
      <point x="412" y="865" type="line"/>
      <point x="359" y="583"/>
      <point x="319" y="282"/>
      <point x="255" y="6" type="curve"/>
      <point x="230" y="-111"/>
      <point x="194" y="-210"/>
      <point x="108" y="-210" type="curve" smooth="yes"/>
      <point x="90" y="-210"/>
      <point x="66" y="-202"/>
      <point x="39" y="-192" type="curve"/>
      <point x="28" y="-339" type="line"/>
      <point x="64" y="-349"/>
      <point x="94" y="-358"/>
      <point x="119" y="-358" type="curve" smooth="yes"/>
      <point x="346" y="-358"/>
      <point x="413" y="-126"/>
      <point x="460" y="130" type="curve" smooth="yes"/>
      <point x="593" y="865" type="line"/>
      <point x="790" y="865" type="line"/>
      <point x="801" y="1015" type="line"/>
      <point x="615" y="1015" type="line"/>
      <point x="654" y="1227" type="line"/>
      <point x="670" y="1333"/>
      <point x="704" y="1393"/>
      <point x="807" y="1393" type="curve" smooth="yes"/>
      <point x="836" y="1393"/>
      <point x="867" y="1385"/>
      <point x="903" y="1369" type="curve"/>
      <point x="911" y="1525" type="line"/>
      <point x="868" y="1537"/>
      <point x="821" y="1547"/>
      <point x="783" y="1547" type="curve" smooth="yes"/>
      <point x="563" y="1547"/>
      <point x="487" y="1370"/>
      <point x="460" y="1178" type="curve" smooth="yes"/>
      <point x="438" y="1015" type="line"/>
      <point x="265" y="1015" type="line"/>
      <point x="254" y="865" type="line"/>
    </contour>
  </outline>
</glyph>
<glyph name="uni0204" format="1">
  <advance width="1169"/>
  <unicode hex="0204"/>
  <outline>
    <contour>
      <point x="261" y="1611" type="line"/>
      <point x="363" y="1611" type="line"/>
      <point x="161" y="1946" type="line"/>
      <point x="11" y="1946" type="line"/>
    </contour>
    <contour>
      <point x="529" y="1611" type="line"/>
      <point x="631" y="1611" type="line"/>
      <point x="433" y="1946" type="line"/>
      <point x="282" y="1946" type="line"/>
    </contour>
    <contour>
      <point x="975" y="839" type="line"/>
      <point x="332" y="839" type="line"/>
      <point x="332" y="1341" type="line"/>
      <point x="1003" y="1341" type="line"/>
      <point x="1017" y="1497" type="line"/>
      <point x="155" y="1497" type="line"/>
      <point x="155" y="0" type="line"/>
      <point x="1031" y="0" type="line"/>
      <point x="1046" y="156" type="line"/>
      <point x="332" y="156" type="line"/>
      <point x="332" y="680" type="line"/>
      <point x="975" y="680" type="line"/>
    </contour>
  </outline>
</glyph>
<glyph name="uni0206" format="1">
  <advance width="1169"/>
  <unicode hex="0206"/>
  <outline>
    <contour>
      <point x="570" y="1869" type="curve" smooth="yes"/>
      <point x="447" y="1869"/>
      <point x="321" y="1783"/>
      <point x="321" y="1611" type="curve"/>
      <point x="437" y="1611" type="line"/>
      <point x="437" y="1706"/>
      <point x="497" y="1752"/>
      <point x="570" y="1752" type="curve" smooth="yes"/>
      <point x="643" y="1752"/>
      <point x="706" y="1706"/>
      <point x="706" y="1611" type="curve"/>
      <point x="823" y="1611" type="line"/>
      <point x="823" y="1783"/>
      <point x="693" y="1869"/>
    </contour>
    <contour>
      <point x="975" y="839" type="line"/>
      <point x="332" y="839" type="line"/>
      <point x="332" y="1341" type="line"/>
      <point x="1003" y="1341" type="line"/>
      <point x="1017" y="1497" type="line"/>
      <point x="155" y="1497" type="line"/>
      <point x="155" y="0" type="line"/>
      <point x="1031" y="0" type="line"/>
      <point x="1046" y="156" type="line"/>
      <point x="332" y="156" type="line"/>
      <point x="332" y="680" type="line"/>
      <point x="975" y="680" type="line"/>
    </contour>
  </outline>
</glyph>
<glyph name="uni0209" format="1">
  <advance width="445"/>
  <unicode hex="0209"/>
  <outline>
    <contour>
      <point x="-53" y="1246" type="line"/>
      <point x="49" y="1246" type="line"/>
      <point x="-153" y="1581" type="line"/>
      <point x="-303" y="1581" type="line"/>
    </contour>
    <contour>
      <point x="215" y="1246" type="line"/>
      <point x="317" y="1246" type="line"/>
      <point x="119" y="1581" type="line"/>
      <point x="-32" y="1581" type="line"/>
    </contour>
    <contour>
      <point x="291" y="1098" type="line"/>
      <point x="147" y="1098" type="line"/>
      <point x="147" y="0" type="line"/>
      <point x="291" y="0" type="line"/>
    </contour>
  </outline>
</glyph>
<glyph name="uni0214" format="1">
  <advance width="1420"/>
  <unicode hex="0214"/>
  <outline>
    <contour>
      <point x="374" y="1611" type="line"/>
      <point x="476" y="1611" type="line"/>
      <point x="274" y="1946" type="line"/>
      <point x="124" y="1946" type="line"/>
    </contour>
    <contour>
      <point x="642" y="1611" type="line"/>
      <point x="744" y="1611" type="line"/>
      <point x="546" y="1946" type="line"/>
      <point x="395" y="1946" type="line"/>
    </contour>
    <contour>
      <point x="707" y="-23" type="curve" smooth="yes"/>
      <point x="1142" y="-23"/>
      <point x="1269" y="209"/>
      <point x="1269" y="541" type="curve" smooth="yes"/>
      <point x="1269" y="1497" type="line"/>
      <point x="1094" y="1497" type="line"/>
      <point x="1094" y="547" type="line" smooth="yes"/>
      <point x="1094" y="256"/>
      <point x="977" y="143"/>
      <point x="707" y="143" type="curve" smooth="yes"/>
      <point x="437" y="143"/>
      <point x="322" y="256"/>
      <point x="322" y="547" type="curve" smooth="yes"/>
      <point x="322" y="1497" type="line"/>
      <point x="146" y="1497" type="line"/>
      <point x="146" y="541" type="line" smooth="yes"/>
      <point x="146" y="209"/>
      <point x="272" y="-23"/>
    </contour>
  </outline>
</glyph>
<glyph name="uni0215" format="1">
  <advance width="1147"/>
  <unicode hex="0215"/>
  <outline>
    <contour>
      <point x="254" y="1246" type="line"/>
      <point x="356" y="1246" type="line"/>
      <point x="154" y="1581" type="line"/>
      <point x="4" y="1581" type="line"/>
    </contour>
    <contour>
      <point x="522" y="1246" type="line"/>
      <point x="624" y="1246" type="line"/>
      <point x="426" y="1581" type="line"/>
      <point x="275" y="1581" type="line"/>
    </contour>
    <contour>
      <point x="569" y="-25" type="curve" smooth="yes"/>
      <point x="801" y="-25"/>
      <point x="998" y="124"/>
      <point x="998" y="421" type="curve" smooth="yes"/>
      <point x="998" y="1098" type="line"/>
      <point x="829" y="1098" type="line"/>
      <point x="829" y="419" type="line" smooth="yes"/>
      <point x="829" y="207"/>
      <point x="700" y="130"/>
      <point x="569" y="130" type="curve" smooth="yes"/>
      <point x="438" y="130"/>
      <point x="308" y="205"/>
      <point x="308" y="419" type="curve" smooth="yes"/>
      <point x="308" y="1098" type="line"/>
      <point x="137" y="1098" type="line"/>
      <point x="137" y="421" type="line" smooth="yes"/>
      <point x="137" y="124"/>
      <point x="337" y="-25"/>
    </contour>
  </outline>
</glyph>
<glyph name="dotlessj" format="1">
  <advance width="485"/>
  <unicode hex="0237"/>
  <outline>
    <contour>
      <point x="-99" y="-448" type="curve"/>
      <point x="-99" y="-292" type="line"/>
      <point x="-63" y="-298"/>
      <point x="-36" y="-305"/>
      <point x="-16" y="-305" type="curve" smooth="yes"/>
      <point x="110" y="-305"/>
      <point x="171" y="-200"/>
      <point x="171" y="34" type="curve" smooth="yes"/>
      <point x="171" y="1098" type="line"/>
      <point x="333" y="1098" type="line"/>
      <point x="333" y="114" type="line" smooth="yes"/>
      <point x="333" y="-129"/>
      <point x="308" y="-461"/>
      <point x="20" y="-461" type="curve" smooth="yes"/>
      <point x="-18" y="-461"/>
      <point x="-57" y="-456"/>
    </contour>
  </outline>
</glyph>
<glyph name="circumflex" format="1">
  <advance width="683"/>
  <unicode hex="02C6"/>
  <outline>
    <contour>
      <point x="34" y="1255" type="line"/>
      <point x="264" y="1603" type="line"/>
      <point x="411" y="1603" type="line"/>
      <point x="641" y="1255" type="line"/>
      <point x="515" y="1255" type="line"/>
      <point x="336" y="1487" type="line"/>
      <point x="157" y="1255" type="line"/>
    </contour>
  </outline>
</glyph>
<glyph name="caron" format="1">
  <advance width="785"/>
  <unicode hex="02C7"/>
  <outline>
    <contour>
      <point x="328" y="1255" type="line"/>
      <point x="461" y="1255" type="line"/>
      <point x="678" y="1601" type="line"/>
      <point x="541" y="1601" type="line"/>
      <point x="390" y="1369" type="line"/>
      <point x="241" y="1601" type="line"/>
      <point x="112" y="1601" type="line"/>
    </contour>
  </outline>
</glyph>
